<?xml version="1.0" encoding="UTF-8" standalone="no"?>
<!-- Created with Inkscape (http://www.inkscape.org/) -->

<svg
   xmlns:dc="http://purl.org/dc/elements/1.1/"
   xmlns:cc="http://creativecommons.org/ns#"
   xmlns:rdf="http://www.w3.org/1999/02/22-rdf-syntax-ns#"
   xmlns:svg="http://www.w3.org/2000/svg"
   xmlns="http://www.w3.org/2000/svg"
   xmlns:sodipodi="http://sodipodi.sourceforge.net/DTD/sodipodi-0.dtd"
   xmlns:inkscape="http://www.inkscape.org/namespaces/inkscape"
   version="1.1"
   id="svg2"
   xml:space="preserve"
   width="575.09998"
   height="515"
   viewBox="0 0 575.09997 515"
   sodipodi:docname="overview.svg"
   inkscape:version="0.92.3 (2405546, 2018-03-11)"><metadata
     id="metadata8"><rdf:RDF><cc:Work
         rdf:about=""><dc:format>image/svg+xml</dc:format><dc:type
           rdf:resource="http://purl.org/dc/dcmitype/StillImage" /><dc:title /></cc:Work></rdf:RDF></metadata><defs
     id="defs6"><clipPath
       clipPathUnits="userSpaceOnUse"
       id="clipPath18"><path
         d="M 0,0 H 793.6 V 446.4 H 0 Z"
         id="path16"
         inkscape:connector-curvature="0"
         style="clip-rule:evenodd" /></clipPath></defs><sodipodi:namedview
     pagecolor="#ffffff"
     bordercolor="#666666"
     borderopacity="1"
     objecttolerance="10"
     gridtolerance="10"
     guidetolerance="10"
     inkscape:pageopacity="0"
     inkscape:pageshadow="2"
     inkscape:window-width="1853"
     inkscape:window-height="1025"
     id="namedview4"
     showgrid="false"
     fit-margin-top="0"
     fit-margin-left="0"
     fit-margin-right="0"
     fit-margin-bottom="0"
     inkscape:zoom="1.1214154"
     inkscape:cx="204.67876"
     inkscape:cy="259.29026"
     inkscape:window-x="67"
     inkscape:window-y="27"
     inkscape:window-maximized="1"
     inkscape:current-layer="g14" /><g
     id="g10"
     inkscape:groupmode="layer"
     inkscape:label="未命名 1"
     transform="matrix(1.3333333,0,0,-1.3333333,-188.86666,588.09999)"><g
       clip-path="url(#clipPath18)"
       id="g14"><g
         id="g22" /><g
         id="g24" /><path
         inkscape:connector-curvature="0"
         id="path26"
         style="fill:#729fcf;fill-opacity:1;fill-rule:evenodd;stroke:none"
         d="m 362.8,406.7 h -79.3 v 34 h 158.7 v -34 z" /><g
         id="g28"><path
           inkscape:connector-curvature="0"
           id="path30"
           style="fill:none;stroke:#3465a4;stroke-width:0.75;stroke-linecap:butt;stroke-linejoin:round;stroke-miterlimit:10;stroke-dasharray:none;stroke-opacity:1"
           d="m 362.8,406.7 h -79.3 v 34 h 158.7 v -34 z" /></g><g
         id="g32"><text
   id="text36"
   style="font-variant:normal;font-weight:normal;font-size:18px;font-family:'Liberation Sans';-inkscape-font-specification:LiberationSans;writing-mode:lr-tb;fill:#000000;fill-opacity:1;fill-rule:nonzero;stroke:none"
   transform="matrix(1,0,0,-1,299.5,417.5)"><tspan
     id="tspan34"
     sodipodi:role="line"
     y="0"
     x="0 14.994 25.002001 33.894001 37.889999 46.889999 51.875999 57.869999 67.877998 76.877998 86.886002 92.879997 102.78 106.776 116.676">music recording</tspan></text>

</g><path
         inkscape:connector-curvature="0"
         id="path38"
         style="fill:#729fcf;fill-opacity:1;fill-rule:evenodd;stroke:none"
         d="m 362.8,55.2 h -79.3 v 34 h 158.7 v -34 z" /><g
         id="g40"><path
           inkscape:connector-curvature="0"
           id="path42"
           style="fill:none;stroke:#3465a4;stroke-width:0.75;stroke-linecap:butt;stroke-linejoin:round;stroke-miterlimit:10;stroke-dasharray:none;stroke-opacity:1"
           d="m 362.8,55.2 h -79.3 v 34 h 158.7 v -34 z" /></g><g
         id="g44"><text
   id="text48"
   style="font-variant:normal;font-weight:normal;font-size:18px;font-family:'Liberation Sans';-inkscape-font-specification:LiberationSans;writing-mode:lr-tb;fill:#000000;fill-opacity:1;fill-rule:nonzero;stroke:none"
   transform="matrix(1,0,0,-1,300.4,66)"><tspan
     id="tspan46"
     sodipodi:role="line"
     y="0"
     x="0 9.0900002 18.99 28.997999 34.992001 44.891998 53.891998 58.967999 67.968002 77.867996 86.867996 91.944 95.849998 105.858 115.758">chorus sections</tspan></text>

</g><path
         inkscape:connector-curvature="0"
         id="path50"
         style="fill:#729fcf;fill-opacity:1;fill-rule:evenodd;stroke:none"
         d="m 362.8,117.6 h -79.3 v 34 h 158.7 v -34 z" /><g
         id="g52"><path
           inkscape:connector-curvature="0"
           id="path54"
           style="fill:none;stroke:#3465a4;stroke-width:0.75;stroke-linecap:butt;stroke-linejoin:round;stroke-miterlimit:10;stroke-dasharray:none;stroke-opacity:1"
           d="m 362.8,117.6 h -79.3 v 34 h 158.7 v -34 z" /></g><g
         id="g56"><text
   id="text60"
   style="font-variant:normal;font-weight:normal;font-size:18px;font-family:'Liberation Sans';-inkscape-font-specification:LiberationSans;writing-mode:lr-tb;fill:#000000;fill-opacity:1;fill-rule:nonzero;stroke:none"
   transform="matrix(1,0,0,-1,291.9,128.3)"><tspan
     id="tspan58"
     sodipodi:role="line"
     y="0"
     x="0 5.0760002 14.976 24.983999 29.969999 33.966 43.866001 52.866001 62.874001 66.870003 71.856003 80.856003 85.842003 91.835999 101.844 110.844 115.83 125.838 131.832">top level structure</tspan></text>

</g><path
         inkscape:connector-curvature="0"
         id="path62"
         style="fill:#729fcf;fill-opacity:1;fill-rule:evenodd;stroke:none"
         d="M 362.8,179.9 H 283.5 V 214 h 158.7 v -34.1 z" /><g
         id="g64"><path
           inkscape:connector-curvature="0"
           id="path66"
           style="fill:none;stroke:#3465a4;stroke-width:0.75;stroke-linecap:butt;stroke-linejoin:round;stroke-miterlimit:10;stroke-dasharray:none;stroke-opacity:1"
           d="M 362.8,179.9 H 283.5 V 214 h 158.7 v -34.1 z" /></g><g
         id="g68"><text
   id="text72"
   style="font-variant:normal;font-weight:normal;font-size:18px;font-family:'Liberation Sans';-inkscape-font-specification:LiberationSans;writing-mode:lr-tb;fill:#000000;fill-opacity:1;fill-rule:nonzero;stroke:none"
   transform="matrix(1,0,0,-1,290.9,190.7)"><tspan
     id="tspan70"
     sodipodi:role="line"
     y="0"
     x="0 3.9960001 14.004 26.91 31.986 35.891998 45.900002 54.900002 64.800003 68.795998 73.872002 82.764 87.839996 93.834 103.842 112.734 117.81 127.818 133.722">low level structure</tspan></text>

</g><path
         inkscape:connector-curvature="0"
         id="path74"
         style="fill:#729fcf;fill-opacity:1;fill-rule:evenodd;stroke:none"
         d="m 362.8,242.3 h -85 v 34 h 170.1 v -34 z" /><g
         id="g76"><path
           inkscape:connector-curvature="0"
           id="path78"
           style="fill:none;stroke:#3465a4;stroke-width:0.75;stroke-linecap:butt;stroke-linejoin:round;stroke-miterlimit:10;stroke-dasharray:none;stroke-opacity:1"
           d="m 362.8,242.3 h -85 v 34 h 170.1 v -34 z" /></g><g
         id="g80"><text
   id="text84"
   style="font-variant:normal;font-weight:normal;font-size:18px;font-family:'Liberation Sans';-inkscape-font-specification:LiberationSans;writing-mode:lr-tb;fill:#000000;fill-opacity:1;fill-rule:nonzero;stroke:none"
   transform="matrix(1,0,0,-1,283.9,253)"><tspan
     id="tspan82"
     sodipodi:role="line"
     y="0"
     x="0 9 19.007999 23.004 27.99 33.984001 42.984001 46.889999 61.883999 65.879997 69.875999 79.776001 85.769997 89.765999 94.751999 103.752 108.828 123.822 133.722 138.798 144.79201 148.698">self-similarity matrix</tspan></text>

</g><path
         inkscape:connector-curvature="0"
         id="path86"
         style="fill:#729fcf;fill-opacity:1;fill-rule:evenodd;stroke:none"
         d="m 484.7,333 h -87.8 v 34 h 175.7 v -34 z" /><g
         id="g88"><path
           inkscape:connector-curvature="0"
           id="path90"
           style="fill:none;stroke:#3465a4;stroke-width:0.75;stroke-linecap:butt;stroke-linejoin:round;stroke-miterlimit:10;stroke-dasharray:none;stroke-opacity:1"
           d="m 484.7,333 h -87.8 v 34 h 175.7 v -34 z" /></g><g
         id="g92"><text
   id="text96"
   style="font-variant:normal;font-weight:normal;font-size:18px;font-family:'Liberation Sans';-inkscape-font-specification:LiberationSans;writing-mode:lr-tb;fill:#000000;fill-opacity:1;fill-rule:nonzero;stroke:none"
   transform="matrix(1,0,0,-1,400.7,343.8)"><tspan
     id="tspan94"
     sodipodi:role="line"
     y="0"
     x="0 14.994 19.98 28.98 37.98 43.056 48.042 57.042 67.050003 73.043999 82.944 98.028 107.928 113.004 117.99 122.976 132.98399 147.978 157.87801">mfcc, chroma, tempo</tspan></text>

</g><path
         inkscape:connector-curvature="0"
         id="path98"
         style="fill:#729fcf;fill-opacity:1;fill-rule:evenodd;stroke:none"
         d="m 249.4,333 h -79.3 v 34 h 158.7 v -34 z" /><g
         id="g100"><path
           inkscape:connector-curvature="0"
           id="path102"
           style="fill:none;stroke:#3465a4;stroke-width:0.75;stroke-linecap:butt;stroke-linejoin:round;stroke-miterlimit:10;stroke-dasharray:none;stroke-opacity:1"
           d="m 249.4,333 h -79.3 v 34 h 158.7 v -34 z" /></g><g
         id="g104"><text
   id="text108"
   style="font-variant:normal;font-weight:normal;font-size:18px;font-family:'Liberation Sans';-inkscape-font-specification:LiberationSans;writing-mode:lr-tb;fill:#000000;fill-opacity:1;fill-rule:nonzero;stroke:none"
   transform="matrix(1,0,0,-1,198,343.8)"><tspan
     id="tspan106"
     sodipodi:role="line"
     y="0"
     x="0 10.008 13.914 18.99 27.99 37.998001 42.984001 51.984001 61.883999 67.877998 77.886002 92.879997">pitch chroma</tspan></text>

</g><path
         inkscape:connector-curvature="0"
         id="path110"
         style="fill:none;stroke:#000000;stroke-width:0.1;stroke-linecap:butt;stroke-linejoin:miter;stroke-miterlimit:10;stroke-dasharray:none;stroke-opacity:1"
         d="M 362.8,406.7 V 386.9 H 249.4 v -7.7" /><path
         inkscape:connector-curvature="0"
         id="path112"
         style="fill:#000000;fill-opacity:1;fill-rule:evenodd;stroke:none"
         d="m 249.4,367 4.3,12.8 h -8.5 z" /><path
         inkscape:connector-curvature="0"
         id="path114"
         style="fill:none;stroke:#000000;stroke-width:0.1;stroke-linecap:butt;stroke-linejoin:miter;stroke-miterlimit:10;stroke-dasharray:none;stroke-opacity:1"
         d="m 362.8,406.7 v -19.8 h 121.9 v -7.7" /><path
         inkscape:connector-curvature="0"
         id="path116"
         style="fill:#000000;fill-opacity:1;fill-rule:evenodd;stroke:none"
         d="m 484.7,367 4.3,12.8 h -8.5 z" /><path
         inkscape:connector-curvature="0"
         id="path118"
         style="fill:none;stroke:#000000;stroke-width:0.1;stroke-linecap:butt;stroke-linejoin:miter;stroke-miterlimit:10;stroke-dasharray:none;stroke-opacity:1"
         d="M 249.4,333 V 304.7 H 362.8 V 288.5" /><path
         inkscape:connector-curvature="0"
         id="path120"
         style="fill:#000000;fill-opacity:1;fill-rule:evenodd;stroke:none"
         d="m 362.8,276.3 4.3,12.8 h -8.5 z" /><path
         inkscape:connector-curvature="0"
         id="path122"
         style="fill:none;stroke:#000000;stroke-width:0.1;stroke-linecap:butt;stroke-linejoin:miter;stroke-miterlimit:10;stroke-dasharray:none;stroke-opacity:1"
         d="M 484.7,333 V 304.7 H 362.8 v -16.2" /><path
         inkscape:connector-curvature="0"
         id="path124"
         style="fill:#000000;fill-opacity:1;fill-rule:evenodd;stroke:none"
         d="m 362.8,276.3 4.3,12.8 h -8.5 z" /><path
         inkscape:connector-curvature="0"
         id="path126"
         style="fill:none;stroke:#000000;stroke-width:0.1;stroke-linecap:butt;stroke-linejoin:miter;stroke-miterlimit:10;stroke-dasharray:none;stroke-opacity:1"
         d="M 362.8,242.3 V 226.1" /><path
         inkscape:connector-curvature="0"
         id="path128"
         style="fill:#000000;fill-opacity:1;fill-rule:evenodd;stroke:none"
         d="m 362.8,214 4.3,12.7 h -8.5 z" /><path
         inkscape:connector-curvature="0"
         id="path130"
         style="fill:none;stroke:#000000;stroke-width:0.1;stroke-linecap:butt;stroke-linejoin:miter;stroke-miterlimit:10;stroke-dasharray:none;stroke-opacity:1"
         d="M 362.8,179.9 V 163.8" /><path
         inkscape:connector-curvature="0"
         id="path132"
         style="fill:#000000;fill-opacity:1;fill-rule:evenodd;stroke:none"
         d="m 362.8,151.6 4.3,12.8 h -8.5 z" /><path
         inkscape:connector-curvature="0"
         id="path134"
         style="fill:none;stroke:#000000;stroke-width:0.1;stroke-linecap:butt;stroke-linejoin:miter;stroke-miterlimit:10;stroke-dasharray:none;stroke-opacity:1"
         d="M 362.8,117.6 V 101.4" /><path
         inkscape:connector-curvature="0"
         id="path136"
         style="fill:#000000;fill-opacity:1;fill-rule:evenodd;stroke:none"
         d="m 362.8,89.2 4.3,12.8 h -8.5 z" /><g
         id="g138"><text
   id="text142"
   style="font-variant:normal;font-weight:normal;font-size:18px;font-family:'Liberation Sans';-inkscape-font-specification:LiberationSans;writing-mode:lr-tb;fill:#000000;fill-opacity:1;fill-rule:nonzero;stroke:none"
   transform="matrix(1,0,0,-1,148.8,392.5)"><tspan
     id="tspan140"
     sodipodi:role="line"
     y="0"
     x="0 14.994 25.002001 28.908001 38.916 48.924 57.816002 62.891998 72.900002 81.900002 86.886002 92.879997 102.888 111.78 116.856 120.852 130.752">melody extraction</tspan></text>

</g><g
         id="g144"
         transform="translate(-246)"><text
   id="text148"
   style="font-variant:normal;font-weight:normal;font-size:18px;font-family:'Liberation Sans';-inkscape-font-specification:LiberationSans;writing-mode:lr-tb;fill:#000000;fill-opacity:1;fill-rule:nonzero;stroke:none"
   transform="matrix(1,0,0,-1,432.3,284.8)"><tspan
     id="tspan146"
     sodipodi:role="line"
     y="0"
     x="0 14.994 25.002001 29.988001 35.981998 39.978001 48.869999 53.945999 58.931999 68.940002 77.940002 81.846001 91.853996">matrix fusing</tspan></text>

</g><g
         id="g162"><text
   id="text166"
   style="font-variant:normal;font-weight:normal;font-size:18px;font-family:'Liberation Sans';-inkscape-font-specification:LiberationSans;writing-mode:lr-tb;fill:#000000;fill-opacity:1;fill-rule:nonzero;stroke:none"
   transform="matrix(1,0,0,-1,148.8,222.4)"><tspan
     id="tspan164"
     sodipodi:role="line"
     y="0"
     x="0 10.008 19.908001 24.983999 29.969999 39.978001 45.972 55.872002 60.948002 70.848 79.848 84.924004 90.917999 100.818 109.818 114.894 118.8 128.808">pattern extraction</tspan></text>

</g><g
         id="g168"><text
   id="text172"
   style="font-variant:normal;font-weight:normal;font-size:18px;font-family:'Liberation Sans';-inkscape-font-specification:LiberationSans;writing-mode:lr-tb;fill:#000000;fill-opacity:1;fill-rule:nonzero;stroke:none"
   transform="matrix(1,0,0,-1,222.5,160.1)"><tspan
     id="tspan170"
     sodipodi:role="line"
     y="0"
     x="0 14.994 25.002001 30.996 41.004002 44.91 54.917999">merging</tspan></text>

</g><g
         id="g174"><text
   id="text178"
   style="font-variant:normal;font-weight:normal;font-size:18px;font-family:'Liberation Sans';-inkscape-font-specification:LiberationSans;writing-mode:lr-tb;fill:#000000;fill-opacity:1;fill-rule:nonzero;stroke:none"
   transform="matrix(1,0,0,-1,205.5,97.7)"><tspan
     id="tspan176"
     sodipodi:role="line"
     y="0"
     x="0 9 12.996 22.896 31.896 40.896 44.891998 49.877998 58.877998 62.874001 72.882004">classifying</tspan></text>

</g><path
         inkscape:connector-curvature="0"
         id="path180"
         style="fill:none;stroke:#000000;stroke-width:0.1;stroke-linecap:butt;stroke-linejoin:miter;stroke-miterlimit:10;stroke-dasharray:none;stroke-opacity:1"
         d="M 170.1,350 H 141.7 V 72.2 h 129.6" /><path
         inkscape:connector-curvature="0"
         id="path182"
         style="fill:#000000;fill-opacity:1;fill-rule:evenodd;stroke:none"
         d="m 283.5,72.2 -12.8,4.3 V 68 Z" /></g></g></svg>