<?xml version="1.0" encoding="utf-8" standalone="no"?>
<!DOCTYPE svg PUBLIC "-//W3C//DTD SVG 1.1//EN"
  "http://www.w3.org/Graphics/SVG/1.1/DTD/svg11.dtd">
<!-- Created with matplotlib (https://matplotlib.org/) -->
<svg height="576pt" version="1.1" viewBox="0 0 86.4 576" width="86.4pt" xmlns="http://www.w3.org/2000/svg" xmlns:xlink="http://www.w3.org/1999/xlink">
 <defs>
  <style type="text/css">
*{stroke-linecap:butt;stroke-linejoin:round;white-space:pre;}
  </style>
 </defs>
 <g id="figure_1">
  <g id="patch_1">
   <path d="M 0 576 
L 86.4 576 
L 86.4 0 
L 0 0 
z
" style="fill:#ffffff;"/>
  </g>
  <g id="axes_1">
   <g id="patch_2">
    <path d="M 33.64 247.967494 
L 75.6 247.967494 
L 75.6 57.6 
L 33.64 57.6 
z
" style="fill:#ffffff;"/>
   </g>
   <g id="PolyCollection_1">
    <path clip-path="url(#pf48c725fb8)" d="M 39.515752 239.314426 
L 39.207884 239.314426 
L 39.204341 237.566331 
L 39.202721 235.818237 
L 39.202925 234.070142 
L 39.204774 232.322048 
L 39.208031 230.573953 
L 39.212421 228.825859 
L 39.217657 227.077764 
L 39.223452 225.329669 
L 39.229542 223.581575 
L 39.235684 221.83348 
L 39.241669 220.085386 
L 39.247318 218.337291 
L 39.252484 216.589197 
L 39.257048 214.841102 
L 39.260925 213.093008 
L 39.26406 211.344913 
L 39.266434 209.596819 
L 39.268058 207.848724 
L 39.268972 206.10063 
L 39.269241 204.352535 
L 39.26894 202.604441 
L 39.268145 200.856346 
L 39.266913 199.108252 
L 39.265271 197.360157 
L 39.263202 195.612063 
L 39.260636 193.863968 
L 39.257453 192.115874 
L 39.25348 190.367779 
L 39.248508 188.619684 
L 39.242303 186.87159 
L 39.234627 185.123495 
L 39.225256 183.375401 
L 39.214 181.627306 
L 39.200722 179.879212 
L 39.185346 178.131117 
L 39.167873 176.383023 
L 39.148383 174.634928 
L 39.127034 172.886834 
L 39.104059 171.138739 
L 39.079748 169.390645 
L 39.054439 167.64255 
L 39.028483 165.894456 
L 39.002226 164.146361 
L 38.975969 162.398267 
L 38.949943 160.650172 
L 38.924276 158.902078 
L 38.898971 157.153983 
L 38.873888 155.405889 
L 38.848742 153.657794 
L 38.823102 151.9097 
L 38.796406 150.161605 
L 38.767978 148.41351 
L 38.737055 146.665416 
L 38.702807 144.917321 
L 38.664368 143.169227 
L 38.62086 141.421132 
L 38.571418 139.673038 
L 38.515223 137.924943 
L 38.451526 136.176849 
L 38.379687 134.428754 
L 38.299214 132.68066 
L 38.209799 130.932565 
L 38.111354 129.184471 
L 38.00404 127.436376 
L 37.888279 125.688282 
L 37.764745 123.940187 
L 37.634344 122.192093 
L 37.498166 120.443998 
L 37.357431 118.695904 
L 37.21342 116.947809 
L 37.067419 115.199715 
L 36.920675 113.45162 
L 36.774371 111.703525 
L 36.629626 109.955431 
L 36.487536 108.207336 
L 36.349221 106.459242 
L 36.215896 104.711147 
L 36.088949 102.963053 
L 35.97 101.214958 
L 35.860943 99.466864 
L 35.763958 97.718769 
L 35.681474 95.970675 
L 35.616097 94.22258 
L 35.5705 92.474486 
L 35.547273 90.726391 
L 35.548754 88.978297 
L 35.576859 87.230202 
L 35.632908 85.482108 
L 35.717483 83.734013 
L 35.830318 81.985919 
L 35.970241 80.237824 
L 36.135164 78.48973 
L 36.322144 76.741635 
L 36.527483 74.993541 
L 36.746894 73.245446 
L 36.975693 71.497351 
L 37.209017 69.749257 
L 37.442052 68.001162 
L 37.670249 66.253068 
L 41.053387 66.253068 
L 41.053387 66.253068 
L 41.281585 68.001162 
L 41.51462 69.749257 
L 41.747944 71.497351 
L 41.976742 73.245446 
L 42.196153 74.993541 
L 42.401493 76.741635 
L 42.588472 78.48973 
L 42.753396 80.237824 
L 42.893318 81.985919 
L 43.006154 83.734013 
L 43.090728 85.482108 
L 43.146777 87.230202 
L 43.174882 88.978297 
L 43.176364 90.726391 
L 43.153136 92.474486 
L 43.107539 94.22258 
L 43.042163 95.970675 
L 42.959678 97.718769 
L 42.862693 99.466864 
L 42.753637 101.214958 
L 42.634688 102.963053 
L 42.50774 104.711147 
L 42.374416 106.459242 
L 42.2361 108.207336 
L 42.09401 109.955431 
L 41.949266 111.703525 
L 41.802961 113.45162 
L 41.656217 115.199715 
L 41.510217 116.947809 
L 41.366205 118.695904 
L 41.22547 120.443998 
L 41.089293 122.192093 
L 40.958892 123.940187 
L 40.835358 125.688282 
L 40.719596 127.436376 
L 40.612282 129.184471 
L 40.513837 130.932565 
L 40.424422 132.68066 
L 40.343949 134.428754 
L 40.27211 136.176849 
L 40.208413 137.924943 
L 40.152218 139.673038 
L 40.102777 141.421132 
L 40.059269 143.169227 
L 40.02083 144.917321 
L 39.986582 146.665416 
L 39.955658 148.41351 
L 39.927231 150.161605 
L 39.900535 151.9097 
L 39.874895 153.657794 
L 39.849749 155.405889 
L 39.824666 157.153983 
L 39.79936 158.902078 
L 39.773693 160.650172 
L 39.747667 162.398267 
L 39.721411 164.146361 
L 39.695153 165.894456 
L 39.669198 167.64255 
L 39.643888 169.390645 
L 39.619578 171.138739 
L 39.596602 172.886834 
L 39.575254 174.634928 
L 39.555764 176.383023 
L 39.538291 178.131117 
L 39.522915 179.879212 
L 39.509636 181.627306 
L 39.49838 183.375401 
L 39.489009 185.123495 
L 39.481333 186.87159 
L 39.475128 188.619684 
L 39.470156 190.367779 
L 39.466183 192.115874 
L 39.463 193.863968 
L 39.460435 195.612063 
L 39.458366 197.360157 
L 39.456724 199.108252 
L 39.455492 200.856346 
L 39.454696 202.604441 
L 39.454396 204.352535 
L 39.454664 206.10063 
L 39.455579 207.848724 
L 39.457202 209.596819 
L 39.459576 211.344913 
L 39.462712 213.093008 
L 39.466589 214.841102 
L 39.471153 216.589197 
L 39.476318 218.337291 
L 39.481967 220.085386 
L 39.487952 221.83348 
L 39.494095 223.581575 
L 39.500184 225.329669 
L 39.50598 227.077764 
L 39.511215 228.825859 
L 39.515605 230.573953 
L 39.518862 232.322048 
L 39.520712 234.070142 
L 39.520916 235.818237 
L 39.519295 237.566331 
L 39.515752 239.314426 
z
" style="fill:#1f77b4;fill-opacity:0.3;"/>
   </g>
   <g id="PolyCollection_2">
    <path clip-path="url(#pf48c725fb8)" d="M 56.158751 239.314426 
L 53.081249 239.314426 
L 53.063016 238.156997 
L 53.055155 236.999569 
L 53.057661 235.842141 
L 53.070302 234.684713 
L 53.092619 233.527284 
L 53.123948 232.369856 
L 53.163436 231.212428 
L 53.21007 230.054999 
L 53.262706 228.897571 
L 53.320097 227.740143 
L 53.380929 226.582715 
L 53.443853 225.425286 
L 53.507511 224.267858 
L 53.570568 223.11043 
L 53.631732 221.953001 
L 53.689774 220.795573 
L 53.743549 219.638145 
L 53.792 218.480716 
L 53.834176 217.323288 
L 53.869226 216.16586 
L 53.896413 215.008432 
L 53.915105 213.851003 
L 53.924782 212.693575 
L 53.925026 211.536147 
L 53.915525 210.378718 
L 53.896069 209.22129 
L 53.866544 208.063862 
L 53.826937 206.906434 
L 53.777327 205.749005 
L 53.717891 204.591577 
L 53.648895 203.434149 
L 53.570702 202.27672 
L 53.483761 201.119292 
L 53.388613 199.961864 
L 53.285883 198.804436 
L 53.176276 197.647007 
L 53.060575 196.489579 
L 52.939631 195.332151 
L 52.814355 194.174722 
L 52.685712 193.017294 
L 52.554704 191.859866 
L 52.422364 190.702438 
L 52.289741 189.545009 
L 52.157887 188.387581 
L 52.027841 187.230153 
L 51.90062 186.072724 
L 51.7772 184.915296 
L 51.658506 183.757868 
L 51.545398 182.60044 
L 51.43866 181.443011 
L 51.33899 180.285583 
L 51.24699 179.128155 
L 51.163159 177.970726 
L 51.087889 176.813298 
L 51.021462 175.65587 
L 50.964048 174.498442 
L 50.915709 173.341013 
L 50.876402 172.183585 
L 50.845987 171.026157 
L 50.824237 169.868728 
L 50.810848 168.7113 
L 50.805455 167.553872 
L 50.807642 166.396444 
L 50.816966 165.239015 
L 50.832962 164.081587 
L 50.855169 162.924159 
L 50.883139 161.76673 
L 50.91645 160.609302 
L 50.954721 159.451874 
L 50.997618 158.294446 
L 51.044858 157.137017 
L 51.096217 155.979589 
L 51.151523 154.822161 
L 51.210659 153.664732 
L 51.273551 152.507304 
L 51.340162 151.349876 
L 51.410483 150.192448 
L 51.484518 149.035019 
L 51.562269 147.877591 
L 51.643732 146.720163 
L 51.728873 145.562734 
L 51.817628 144.405306 
L 51.909885 143.247878 
L 52.005482 142.09045 
L 52.1042 140.933021 
L 52.205762 139.775593 
L 52.309831 138.618165 
L 52.416018 137.460736 
L 52.52388 136.303308 
L 52.632933 135.14588 
L 52.742657 133.988452 
L 52.852508 132.831023 
L 52.961926 131.673595 
L 53.07035 130.516167 
L 53.177225 129.358738 
L 53.282013 128.20131 
L 53.384202 127.043882 
L 53.483318 125.886454 
L 53.578927 124.729025 
L 55.661073 124.729025 
L 55.661073 124.729025 
L 55.756682 125.886454 
L 55.855798 127.043882 
L 55.957987 128.20131 
L 56.062775 129.358738 
L 56.16965 130.516167 
L 56.278074 131.673595 
L 56.387492 132.831023 
L 56.497343 133.988452 
L 56.607067 135.14588 
L 56.71612 136.303308 
L 56.823982 137.460736 
L 56.930169 138.618165 
L 57.034238 139.775593 
L 57.1358 140.933021 
L 57.234518 142.09045 
L 57.330115 143.247878 
L 57.422372 144.405306 
L 57.511127 145.562734 
L 57.596268 146.720163 
L 57.677731 147.877591 
L 57.755482 149.035019 
L 57.829517 150.192448 
L 57.899838 151.349876 
L 57.966449 152.507304 
L 58.029341 153.664732 
L 58.088477 154.822161 
L 58.143783 155.979589 
L 58.195142 157.137017 
L 58.242382 158.294446 
L 58.285279 159.451874 
L 58.32355 160.609302 
L 58.356861 161.76673 
L 58.384831 162.924159 
L 58.407038 164.081587 
L 58.423034 165.239015 
L 58.432358 166.396444 
L 58.434545 167.553872 
L 58.429152 168.7113 
L 58.415763 169.868728 
L 58.394013 171.026157 
L 58.363598 172.183585 
L 58.324291 173.341013 
L 58.275952 174.498442 
L 58.218538 175.65587 
L 58.152111 176.813298 
L 58.076841 177.970726 
L 57.99301 179.128155 
L 57.90101 180.285583 
L 57.80134 181.443011 
L 57.694602 182.60044 
L 57.581494 183.757868 
L 57.4628 184.915296 
L 57.33938 186.072724 
L 57.212159 187.230153 
L 57.082113 188.387581 
L 56.950259 189.545009 
L 56.817636 190.702438 
L 56.685296 191.859866 
L 56.554288 193.017294 
L 56.425645 194.174722 
L 56.300369 195.332151 
L 56.179425 196.489579 
L 56.063724 197.647007 
L 55.954117 198.804436 
L 55.851387 199.961864 
L 55.756239 201.119292 
L 55.669298 202.27672 
L 55.591105 203.434149 
L 55.522109 204.591577 
L 55.462673 205.749005 
L 55.413063 206.906434 
L 55.373456 208.063862 
L 55.343931 209.22129 
L 55.324475 210.378718 
L 55.314974 211.536147 
L 55.315218 212.693575 
L 55.324895 213.851003 
L 55.343587 215.008432 
L 55.370774 216.16586 
L 55.405824 217.323288 
L 55.448 218.480716 
L 55.496451 219.638145 
L 55.550226 220.795573 
L 55.608268 221.953001 
L 55.669432 223.11043 
L 55.732489 224.267858 
L 55.796147 225.425286 
L 55.859071 226.582715 
L 55.919903 227.740143 
L 55.977294 228.897571 
L 56.02993 230.054999 
L 56.076564 231.212428 
L 56.116052 232.369856 
L 56.147381 233.527284 
L 56.169698 234.684713 
L 56.182339 235.842141 
L 56.184845 236.999569 
L 56.176984 238.156997 
L 56.158751 239.314426 
z
" style="fill:#1f77b4;fill-opacity:0.3;"/>
   </g>
   <g id="PolyCollection_3">
    <path clip-path="url(#pf48c725fb8)" d="M 70.029299 239.314426 
L 69.727065 239.314426 
L 69.728615 237.569365 
L 69.73317 235.824305 
L 69.740455 234.079245 
L 69.750044 232.334184 
L 69.761398 230.589124 
L 69.773918 228.844064 
L 69.786994 227.099003 
L 69.800057 225.353943 
L 69.81261 223.608883 
L 69.824263 221.863822 
L 69.834739 220.118762 
L 69.843874 218.373702 
L 69.851605 216.628641 
L 69.857955 214.883581 
L 69.863002 213.138521 
L 69.866861 211.393461 
L 69.869655 209.6484 
L 69.871499 207.90334 
L 69.872481 206.15828 
L 69.872654 204.413219 
L 69.872027 202.668159 
L 69.870563 200.923099 
L 69.868183 199.178038 
L 69.864773 197.432978 
L 69.860195 195.687918 
L 69.854298 193.942857 
L 69.846942 192.197797 
L 69.838007 190.452737 
L 69.827417 188.707676 
L 69.815146 186.962616 
L 69.801225 185.217556 
L 69.785738 183.472495 
L 69.768803 181.727435 
L 69.750543 179.982375 
L 69.731055 178.237314 
L 69.71036 176.492254 
L 69.68837 174.747194 
L 69.664855 173.002133 
L 69.639427 171.257073 
L 69.611552 169.512013 
L 69.580583 167.766952 
L 69.545815 166.021892 
L 69.506568 164.276832 
L 69.462272 162.531772 
L 69.412547 160.786711 
L 69.357282 159.041651 
L 69.296668 157.296591 
L 69.23121 155.55153 
L 69.161695 153.80647 
L 69.089122 152.06141 
L 69.014606 150.316349 
L 68.939266 148.571289 
L 68.864107 146.826229 
L 68.78992 145.081168 
L 68.717204 143.336108 
L 68.646125 141.591048 
L 68.576513 139.845987 
L 68.5079 138.100927 
L 68.439591 136.355867 
L 68.370762 134.610806 
L 68.300575 132.865746 
L 68.228287 131.120686 
L 68.153358 129.375625 
L 68.075532 127.630565 
L 67.994879 125.885505 
L 67.911803 124.140444 
L 67.827005 122.395384 
L 67.741396 120.650324 
L 67.655986 118.905263 
L 67.571738 117.160203 
L 67.489428 115.415143 
L 67.409506 113.670082 
L 67.332002 111.925022 
L 67.256481 110.179962 
L 67.182055 108.434902 
L 67.107477 106.689841 
L 67.03129 104.944781 
L 66.952035 103.199721 
L 66.868491 101.45466 
L 66.779929 99.7096 
L 66.686337 97.96454 
L 66.588608 96.219479 
L 66.488651 94.474419 
L 66.389422 92.729359 
L 66.294847 90.984298 
L 66.209651 89.239238 
L 66.139102 87.494178 
L 66.088668 85.749117 
L 66.063636 84.004057 
L 66.06871 82.258997 
L 66.107621 80.513936 
L 66.18279 78.768876 
L 66.295078 77.023816 
L 66.443635 75.278755 
L 66.62589 73.533695 
L 66.837659 71.788635 
L 67.073396 70.043574 
L 67.326529 68.298514 
L 67.589889 66.553454 
L 72.166475 66.553454 
L 72.166475 66.553454 
L 72.429835 68.298514 
L 72.682968 70.043574 
L 72.918704 71.788635 
L 73.130474 73.533695 
L 73.312728 75.278755 
L 73.461286 77.023816 
L 73.573573 78.768876 
L 73.648743 80.513936 
L 73.687653 82.258997 
L 73.692727 84.004057 
L 73.667696 85.749117 
L 73.617261 87.494178 
L 73.546712 89.239238 
L 73.461517 90.984298 
L 73.366942 92.729359 
L 73.267713 94.474419 
L 73.167756 96.219479 
L 73.070027 97.96454 
L 72.976434 99.7096 
L 72.887872 101.45466 
L 72.804329 103.199721 
L 72.725074 104.944781 
L 72.648886 106.689841 
L 72.574308 108.434902 
L 72.499883 110.179962 
L 72.424361 111.925022 
L 72.346858 113.670082 
L 72.266936 115.415143 
L 72.184625 117.160203 
L 72.100378 118.905263 
L 72.014968 120.650324 
L 71.929359 122.395384 
L 71.84456 124.140444 
L 71.761485 125.885505 
L 71.680831 127.630565 
L 71.603005 129.375625 
L 71.528077 131.120686 
L 71.455789 132.865746 
L 71.385601 134.610806 
L 71.316773 136.355867 
L 71.248463 138.100927 
L 71.17985 139.845987 
L 71.110238 141.591048 
L 71.03916 143.336108 
L 70.966444 145.081168 
L 70.892257 146.826229 
L 70.817098 148.571289 
L 70.741758 150.316349 
L 70.667242 152.06141 
L 70.594668 153.80647 
L 70.525153 155.55153 
L 70.459695 157.296591 
L 70.399081 159.041651 
L 70.343816 160.786711 
L 70.294092 162.531772 
L 70.249795 164.276832 
L 70.210549 166.021892 
L 70.175781 167.766952 
L 70.144811 169.512013 
L 70.116936 171.257073 
L 70.091508 173.002133 
L 70.067993 174.747194 
L 70.046004 176.492254 
L 70.025309 178.237314 
L 70.00582 179.982375 
L 69.987561 181.727435 
L 69.970625 183.472495 
L 69.955138 185.217556 
L 69.941218 186.962616 
L 69.928947 188.707676 
L 69.918357 190.452737 
L 69.909422 192.197797 
L 69.902065 193.942857 
L 69.896169 195.687918 
L 69.89159 197.432978 
L 69.88818 199.178038 
L 69.885801 200.923099 
L 69.884336 202.668159 
L 69.883709 204.413219 
L 69.883882 206.15828 
L 69.884865 207.90334 
L 69.886709 209.6484 
L 69.889503 211.393461 
L 69.893361 213.138521 
L 69.898409 214.883581 
L 69.904758 216.628641 
L 69.91249 218.373702 
L 69.921624 220.118762 
L 69.9321 221.863822 
L 69.943753 223.608883 
L 69.956307 225.353943 
L 69.969369 227.099003 
L 69.982446 228.844064 
L 69.994965 230.589124 
L 70.006319 232.334184 
L 70.015908 234.079245 
L 70.023194 235.824305 
L 70.027749 237.569365 
L 70.029299 239.314426 
z
" style="fill:#1f77b4;fill-opacity:0.3;"/>
   </g>
   <g id="matplotlib.axis_1">
    <g id="xtick_1">
     <g id="line2d_1">
      <defs>
       <path d="M 0 0 
L 0 3.5 
" id="m25bac5cf7c" style="stroke:#000000;stroke-width:0.8;"/>
      </defs>
      <g>
       <use style="stroke:#000000;stroke-width:0.8;" x="39.361818" xlink:href="#m25bac5cf7c" y="247.967494"/>
      </g>
     </g>
     <g id="text_1">
      <!-- seqRecur -->
      <defs>
       <path d="M 44.28125 53.078125 
L 44.28125 44.578125 
Q 40.484375 46.53125 36.375 47.5 
Q 32.28125 48.484375 27.875 48.484375 
Q 21.1875 48.484375 17.84375 46.4375 
Q 14.5 44.390625 14.5 40.28125 
Q 14.5 37.15625 16.890625 35.375 
Q 19.28125 33.59375 26.515625 31.984375 
L 29.59375 31.296875 
Q 39.15625 29.25 43.1875 25.515625 
Q 47.21875 21.78125 47.21875 15.09375 
Q 47.21875 7.46875 41.1875 3.015625 
Q 35.15625 -1.421875 24.609375 -1.421875 
Q 20.21875 -1.421875 15.453125 -0.5625 
Q 10.6875 0.296875 5.421875 2 
L 5.421875 11.28125 
Q 10.40625 8.6875 15.234375 7.390625 
Q 20.0625 6.109375 24.8125 6.109375 
Q 31.15625 6.109375 34.5625 8.28125 
Q 37.984375 10.453125 37.984375 14.40625 
Q 37.984375 18.0625 35.515625 20.015625 
Q 33.0625 21.96875 24.703125 23.78125 
L 21.578125 24.515625 
Q 13.234375 26.265625 9.515625 29.90625 
Q 5.8125 33.546875 5.8125 39.890625 
Q 5.8125 47.609375 11.28125 51.796875 
Q 16.75 56 26.8125 56 
Q 31.78125 56 36.171875 55.265625 
Q 40.578125 54.546875 44.28125 53.078125 
z
" id="DejaVuSans-115"/>
       <path d="M 56.203125 29.59375 
L 56.203125 25.203125 
L 14.890625 25.203125 
Q 15.484375 15.921875 20.484375 11.0625 
Q 25.484375 6.203125 34.421875 6.203125 
Q 39.59375 6.203125 44.453125 7.46875 
Q 49.3125 8.734375 54.109375 11.28125 
L 54.109375 2.78125 
Q 49.265625 0.734375 44.1875 -0.34375 
Q 39.109375 -1.421875 33.890625 -1.421875 
Q 20.796875 -1.421875 13.15625 6.1875 
Q 5.515625 13.8125 5.515625 26.8125 
Q 5.515625 40.234375 12.765625 48.109375 
Q 20.015625 56 32.328125 56 
Q 43.359375 56 49.78125 48.890625 
Q 56.203125 41.796875 56.203125 29.59375 
z
M 47.21875 32.234375 
Q 47.125 39.59375 43.09375 43.984375 
Q 39.0625 48.390625 32.421875 48.390625 
Q 24.90625 48.390625 20.390625 44.140625 
Q 15.875 39.890625 15.1875 32.171875 
z
" id="DejaVuSans-101"/>
       <path d="M 14.796875 27.296875 
Q 14.796875 17.390625 18.875 11.75 
Q 22.953125 6.109375 30.078125 6.109375 
Q 37.203125 6.109375 41.296875 11.75 
Q 45.40625 17.390625 45.40625 27.296875 
Q 45.40625 37.203125 41.296875 42.84375 
Q 37.203125 48.484375 30.078125 48.484375 
Q 22.953125 48.484375 18.875 42.84375 
Q 14.796875 37.203125 14.796875 27.296875 
z
M 45.40625 8.203125 
Q 42.578125 3.328125 38.25 0.953125 
Q 33.9375 -1.421875 27.875 -1.421875 
Q 17.96875 -1.421875 11.734375 6.484375 
Q 5.515625 14.40625 5.515625 27.296875 
Q 5.515625 40.1875 11.734375 48.09375 
Q 17.96875 56 27.875 56 
Q 33.9375 56 38.25 53.625 
Q 42.578125 51.265625 45.40625 46.390625 
L 45.40625 54.6875 
L 54.390625 54.6875 
L 54.390625 -20.796875 
L 45.40625 -20.796875 
z
" id="DejaVuSans-113"/>
       <path d="M 44.390625 34.1875 
Q 47.5625 33.109375 50.5625 29.59375 
Q 53.5625 26.078125 56.59375 19.921875 
L 66.609375 0 
L 56 0 
L 46.6875 18.703125 
Q 43.0625 26.03125 39.671875 28.421875 
Q 36.28125 30.8125 30.421875 30.8125 
L 19.671875 30.8125 
L 19.671875 0 
L 9.8125 0 
L 9.8125 72.90625 
L 32.078125 72.90625 
Q 44.578125 72.90625 50.734375 67.671875 
Q 56.890625 62.453125 56.890625 51.90625 
Q 56.890625 45.015625 53.6875 40.46875 
Q 50.484375 35.9375 44.390625 34.1875 
z
M 19.671875 64.796875 
L 19.671875 38.921875 
L 32.078125 38.921875 
Q 39.203125 38.921875 42.84375 42.21875 
Q 46.484375 45.515625 46.484375 51.90625 
Q 46.484375 58.296875 42.84375 61.546875 
Q 39.203125 64.796875 32.078125 64.796875 
z
" id="DejaVuSans-82"/>
       <path d="M 48.78125 52.59375 
L 48.78125 44.1875 
Q 44.96875 46.296875 41.140625 47.34375 
Q 37.3125 48.390625 33.40625 48.390625 
Q 24.65625 48.390625 19.8125 42.84375 
Q 14.984375 37.3125 14.984375 27.296875 
Q 14.984375 17.28125 19.8125 11.734375 
Q 24.65625 6.203125 33.40625 6.203125 
Q 37.3125 6.203125 41.140625 7.25 
Q 44.96875 8.296875 48.78125 10.40625 
L 48.78125 2.09375 
Q 45.015625 0.34375 40.984375 -0.53125 
Q 36.96875 -1.421875 32.421875 -1.421875 
Q 20.0625 -1.421875 12.78125 6.34375 
Q 5.515625 14.109375 5.515625 27.296875 
Q 5.515625 40.671875 12.859375 48.328125 
Q 20.21875 56 33.015625 56 
Q 37.15625 56 41.109375 55.140625 
Q 45.0625 54.296875 48.78125 52.59375 
z
" id="DejaVuSans-99"/>
       <path d="M 8.5 21.578125 
L 8.5 54.6875 
L 17.484375 54.6875 
L 17.484375 21.921875 
Q 17.484375 14.15625 20.5 10.265625 
Q 23.53125 6.390625 29.59375 6.390625 
Q 36.859375 6.390625 41.078125 11.03125 
Q 45.3125 15.671875 45.3125 23.6875 
L 45.3125 54.6875 
L 54.296875 54.6875 
L 54.296875 0 
L 45.3125 0 
L 45.3125 8.40625 
Q 42.046875 3.421875 37.71875 1 
Q 33.40625 -1.421875 27.6875 -1.421875 
Q 18.265625 -1.421875 13.375 4.4375 
Q 8.5 10.296875 8.5 21.578125 
z
M 31.109375 56 
z
" id="DejaVuSans-117"/>
       <path d="M 41.109375 46.296875 
Q 39.59375 47.171875 37.8125 47.578125 
Q 36.03125 48 33.890625 48 
Q 26.265625 48 22.1875 43.046875 
Q 18.109375 38.09375 18.109375 28.8125 
L 18.109375 0 
L 9.078125 0 
L 9.078125 54.6875 
L 18.109375 54.6875 
L 18.109375 46.1875 
Q 20.953125 51.171875 25.484375 53.578125 
Q 30.03125 56 36.53125 56 
Q 37.453125 56 38.578125 55.875 
Q 39.703125 55.765625 41.0625 55.515625 
z
" id="DejaVuSans-114"/>
      </defs>
      <g transform="translate(24.783265 293.399852)rotate(-45)scale(0.1 -0.1)">
       <use xlink:href="#DejaVuSans-115"/>
       <use x="52.099609" xlink:href="#DejaVuSans-101"/>
       <use x="113.623047" xlink:href="#DejaVuSans-113"/>
       <use x="177.099609" xlink:href="#DejaVuSans-82"/>
       <use x="246.519531" xlink:href="#DejaVuSans-101"/>
       <use x="308.042969" xlink:href="#DejaVuSans-99"/>
       <use x="363.023438" xlink:href="#DejaVuSans-117"/>
       <use x="426.402344" xlink:href="#DejaVuSans-114"/>
      </g>
     </g>
    </g>
    <g id="xtick_2">
     <g id="line2d_2">
      <g>
       <use style="stroke:#000000;stroke-width:0.8;" x="54.62" xlink:href="#m25bac5cf7c" y="247.967494"/>
      </g>
     </g>
     <g id="text_2">
      <!-- highlighter -->
      <defs>
       <path d="M 54.890625 33.015625 
L 54.890625 0 
L 45.90625 0 
L 45.90625 32.71875 
Q 45.90625 40.484375 42.875 44.328125 
Q 39.84375 48.1875 33.796875 48.1875 
Q 26.515625 48.1875 22.3125 43.546875 
Q 18.109375 38.921875 18.109375 30.90625 
L 18.109375 0 
L 9.078125 0 
L 9.078125 75.984375 
L 18.109375 75.984375 
L 18.109375 46.1875 
Q 21.34375 51.125 25.703125 53.5625 
Q 30.078125 56 35.796875 56 
Q 45.21875 56 50.046875 50.171875 
Q 54.890625 44.34375 54.890625 33.015625 
z
" id="DejaVuSans-104"/>
       <path d="M 9.421875 54.6875 
L 18.40625 54.6875 
L 18.40625 0 
L 9.421875 0 
z
M 9.421875 75.984375 
L 18.40625 75.984375 
L 18.40625 64.59375 
L 9.421875 64.59375 
z
" id="DejaVuSans-105"/>
       <path d="M 45.40625 27.984375 
Q 45.40625 37.75 41.375 43.109375 
Q 37.359375 48.484375 30.078125 48.484375 
Q 22.859375 48.484375 18.828125 43.109375 
Q 14.796875 37.75 14.796875 27.984375 
Q 14.796875 18.265625 18.828125 12.890625 
Q 22.859375 7.515625 30.078125 7.515625 
Q 37.359375 7.515625 41.375 12.890625 
Q 45.40625 18.265625 45.40625 27.984375 
z
M 54.390625 6.78125 
Q 54.390625 -7.171875 48.1875 -13.984375 
Q 42 -20.796875 29.203125 -20.796875 
Q 24.46875 -20.796875 20.265625 -20.09375 
Q 16.0625 -19.390625 12.109375 -17.921875 
L 12.109375 -9.1875 
Q 16.0625 -11.328125 19.921875 -12.34375 
Q 23.78125 -13.375 27.78125 -13.375 
Q 36.625 -13.375 41.015625 -8.765625 
Q 45.40625 -4.15625 45.40625 5.171875 
L 45.40625 9.625 
Q 42.625 4.78125 38.28125 2.390625 
Q 33.9375 0 27.875 0 
Q 17.828125 0 11.671875 7.65625 
Q 5.515625 15.328125 5.515625 27.984375 
Q 5.515625 40.671875 11.671875 48.328125 
Q 17.828125 56 27.875 56 
Q 33.9375 56 38.28125 53.609375 
Q 42.625 51.21875 45.40625 46.390625 
L 45.40625 54.6875 
L 54.390625 54.6875 
z
" id="DejaVuSans-103"/>
       <path d="M 9.421875 75.984375 
L 18.40625 75.984375 
L 18.40625 0 
L 9.421875 0 
z
" id="DejaVuSans-108"/>
       <path d="M 18.3125 70.21875 
L 18.3125 54.6875 
L 36.8125 54.6875 
L 36.8125 47.703125 
L 18.3125 47.703125 
L 18.3125 18.015625 
Q 18.3125 11.328125 20.140625 9.421875 
Q 21.96875 7.515625 27.59375 7.515625 
L 36.8125 7.515625 
L 36.8125 0 
L 27.59375 0 
Q 17.1875 0 13.234375 3.875 
Q 9.28125 7.765625 9.28125 18.015625 
L 9.28125 47.703125 
L 2.6875 47.703125 
L 2.6875 54.6875 
L 9.28125 54.6875 
L 9.28125 70.21875 
z
" id="DejaVuSans-116"/>
      </defs>
      <g transform="translate(37.398635 298.685475)rotate(-45)scale(0.1 -0.1)">
       <use xlink:href="#DejaVuSans-104"/>
       <use x="63.378906" xlink:href="#DejaVuSans-105"/>
       <use x="91.162109" xlink:href="#DejaVuSans-103"/>
       <use x="154.638672" xlink:href="#DejaVuSans-104"/>
       <use x="218.017578" xlink:href="#DejaVuSans-108"/>
       <use x="245.800781" xlink:href="#DejaVuSans-105"/>
       <use x="273.583984" xlink:href="#DejaVuSans-103"/>
       <use x="337.060547" xlink:href="#DejaVuSans-104"/>
       <use x="400.439453" xlink:href="#DejaVuSans-116"/>
       <use x="439.648438" xlink:href="#DejaVuSans-101"/>
       <use x="501.171875" xlink:href="#DejaVuSans-114"/>
      </g>
     </g>
    </g>
    <g id="xtick_3">
     <g id="line2d_3">
      <g>
       <use style="stroke:#000000;stroke-width:0.8;" x="69.878182" xlink:href="#m25bac5cf7c" y="247.967494"/>
      </g>
     </g>
     <g id="text_3">
      <!-- sf -->
      <defs>
       <path d="M 37.109375 75.984375 
L 37.109375 68.5 
L 28.515625 68.5 
Q 23.6875 68.5 21.796875 66.546875 
Q 19.921875 64.59375 19.921875 59.515625 
L 19.921875 54.6875 
L 34.71875 54.6875 
L 34.71875 47.703125 
L 19.921875 47.703125 
L 19.921875 0 
L 10.890625 0 
L 10.890625 47.703125 
L 2.296875 47.703125 
L 2.296875 54.6875 
L 10.890625 54.6875 
L 10.890625 58.5 
Q 10.890625 67.625 15.140625 71.796875 
Q 19.390625 75.984375 28.609375 75.984375 
z
" id="DejaVuSans-102"/>
      </defs>
      <g transform="translate(68.742944 266.513221)rotate(-45)scale(0.1 -0.1)">
       <use xlink:href="#DejaVuSans-115"/>
       <use x="52.099609" xlink:href="#DejaVuSans-102"/>
      </g>
     </g>
    </g>
   </g>
   <g id="matplotlib.axis_2">
    <g id="ytick_1">
     <g id="line2d_4">
      <defs>
       <path d="M 0 0 
L -3.5 0 
" id="mf7a9574342" style="stroke:#000000;stroke-width:0.8;"/>
      </defs>
      <g>
       <use style="stroke:#000000;stroke-width:0.8;" x="33.64" xlink:href="#mf7a9574342" y="239.314426"/>
      </g>
     </g>
     <g id="text_4">
      <!-- 0.0 -->
      <defs>
       <path d="M 31.78125 66.40625 
Q 24.171875 66.40625 20.328125 58.90625 
Q 16.5 51.421875 16.5 36.375 
Q 16.5 21.390625 20.328125 13.890625 
Q 24.171875 6.390625 31.78125 6.390625 
Q 39.453125 6.390625 43.28125 13.890625 
Q 47.125 21.390625 47.125 36.375 
Q 47.125 51.421875 43.28125 58.90625 
Q 39.453125 66.40625 31.78125 66.40625 
z
M 31.78125 74.21875 
Q 44.046875 74.21875 50.515625 64.515625 
Q 56.984375 54.828125 56.984375 36.375 
Q 56.984375 17.96875 50.515625 8.265625 
Q 44.046875 -1.421875 31.78125 -1.421875 
Q 19.53125 -1.421875 13.0625 8.265625 
Q 6.59375 17.96875 6.59375 36.375 
Q 6.59375 54.828125 13.0625 64.515625 
Q 19.53125 74.21875 31.78125 74.21875 
z
" id="DejaVuSans-48"/>
       <path d="M 10.6875 12.40625 
L 21 12.40625 
L 21 0 
L 10.6875 0 
z
" id="DejaVuSans-46"/>
      </defs>
      <g transform="translate(10.736875 243.113644)scale(0.1 -0.1)">
       <use xlink:href="#DejaVuSans-48"/>
       <use x="63.623047" xlink:href="#DejaVuSans-46"/>
       <use x="95.410156" xlink:href="#DejaVuSans-48"/>
      </g>
     </g>
    </g>
    <g id="ytick_2">
     <g id="line2d_5">
      <g>
       <use style="stroke:#000000;stroke-width:0.8;" x="33.64" xlink:href="#mf7a9574342" y="204.543683"/>
      </g>
     </g>
     <g id="text_5">
      <!-- 0.2 -->
      <defs>
       <path d="M 19.1875 8.296875 
L 53.609375 8.296875 
L 53.609375 0 
L 7.328125 0 
L 7.328125 8.296875 
Q 12.9375 14.109375 22.625 23.890625 
Q 32.328125 33.6875 34.8125 36.53125 
Q 39.546875 41.84375 41.421875 45.53125 
Q 43.3125 49.21875 43.3125 52.78125 
Q 43.3125 58.59375 39.234375 62.25 
Q 35.15625 65.921875 28.609375 65.921875 
Q 23.96875 65.921875 18.8125 64.3125 
Q 13.671875 62.703125 7.8125 59.421875 
L 7.8125 69.390625 
Q 13.765625 71.78125 18.9375 73 
Q 24.125 74.21875 28.421875 74.21875 
Q 39.75 74.21875 46.484375 68.546875 
Q 53.21875 62.890625 53.21875 53.421875 
Q 53.21875 48.921875 51.53125 44.890625 
Q 49.859375 40.875 45.40625 35.40625 
Q 44.1875 33.984375 37.640625 27.21875 
Q 31.109375 20.453125 19.1875 8.296875 
z
" id="DejaVuSans-50"/>
      </defs>
      <g transform="translate(10.736875 208.342902)scale(0.1 -0.1)">
       <use xlink:href="#DejaVuSans-48"/>
       <use x="63.623047" xlink:href="#DejaVuSans-46"/>
       <use x="95.410156" xlink:href="#DejaVuSans-50"/>
      </g>
     </g>
    </g>
    <g id="ytick_3">
     <g id="line2d_6">
      <g>
       <use style="stroke:#000000;stroke-width:0.8;" x="33.64" xlink:href="#mf7a9574342" y="169.772941"/>
      </g>
     </g>
     <g id="text_6">
      <!-- 0.4 -->
      <defs>
       <path d="M 37.796875 64.3125 
L 12.890625 25.390625 
L 37.796875 25.390625 
z
M 35.203125 72.90625 
L 47.609375 72.90625 
L 47.609375 25.390625 
L 58.015625 25.390625 
L 58.015625 17.1875 
L 47.609375 17.1875 
L 47.609375 0 
L 37.796875 0 
L 37.796875 17.1875 
L 4.890625 17.1875 
L 4.890625 26.703125 
z
" id="DejaVuSans-52"/>
      </defs>
      <g transform="translate(10.736875 173.57216)scale(0.1 -0.1)">
       <use xlink:href="#DejaVuSans-48"/>
       <use x="63.623047" xlink:href="#DejaVuSans-46"/>
       <use x="95.410156" xlink:href="#DejaVuSans-52"/>
      </g>
     </g>
    </g>
    <g id="ytick_4">
     <g id="line2d_7">
      <g>
       <use style="stroke:#000000;stroke-width:0.8;" x="33.64" xlink:href="#mf7a9574342" y="135.002199"/>
      </g>
     </g>
     <g id="text_7">
      <!-- 0.6 -->
      <defs>
       <path d="M 33.015625 40.375 
Q 26.375 40.375 22.484375 35.828125 
Q 18.609375 31.296875 18.609375 23.390625 
Q 18.609375 15.53125 22.484375 10.953125 
Q 26.375 6.390625 33.015625 6.390625 
Q 39.65625 6.390625 43.53125 10.953125 
Q 47.40625 15.53125 47.40625 23.390625 
Q 47.40625 31.296875 43.53125 35.828125 
Q 39.65625 40.375 33.015625 40.375 
z
M 52.59375 71.296875 
L 52.59375 62.3125 
Q 48.875 64.0625 45.09375 64.984375 
Q 41.3125 65.921875 37.59375 65.921875 
Q 27.828125 65.921875 22.671875 59.328125 
Q 17.53125 52.734375 16.796875 39.40625 
Q 19.671875 43.65625 24.015625 45.921875 
Q 28.375 48.1875 33.59375 48.1875 
Q 44.578125 48.1875 50.953125 41.515625 
Q 57.328125 34.859375 57.328125 23.390625 
Q 57.328125 12.15625 50.6875 5.359375 
Q 44.046875 -1.421875 33.015625 -1.421875 
Q 20.359375 -1.421875 13.671875 8.265625 
Q 6.984375 17.96875 6.984375 36.375 
Q 6.984375 53.65625 15.1875 63.9375 
Q 23.390625 74.21875 37.203125 74.21875 
Q 40.921875 74.21875 44.703125 73.484375 
Q 48.484375 72.75 52.59375 71.296875 
z
" id="DejaVuSans-54"/>
      </defs>
      <g transform="translate(10.736875 138.801418)scale(0.1 -0.1)">
       <use xlink:href="#DejaVuSans-48"/>
       <use x="63.623047" xlink:href="#DejaVuSans-46"/>
       <use x="95.410156" xlink:href="#DejaVuSans-54"/>
      </g>
     </g>
    </g>
    <g id="ytick_5">
     <g id="line2d_8">
      <g>
       <use style="stroke:#000000;stroke-width:0.8;" x="33.64" xlink:href="#mf7a9574342" y="100.231457"/>
      </g>
     </g>
     <g id="text_8">
      <!-- 0.8 -->
      <defs>
       <path d="M 31.78125 34.625 
Q 24.75 34.625 20.71875 30.859375 
Q 16.703125 27.09375 16.703125 20.515625 
Q 16.703125 13.921875 20.71875 10.15625 
Q 24.75 6.390625 31.78125 6.390625 
Q 38.8125 6.390625 42.859375 10.171875 
Q 46.921875 13.96875 46.921875 20.515625 
Q 46.921875 27.09375 42.890625 30.859375 
Q 38.875 34.625 31.78125 34.625 
z
M 21.921875 38.8125 
Q 15.578125 40.375 12.03125 44.71875 
Q 8.5 49.078125 8.5 55.328125 
Q 8.5 64.0625 14.71875 69.140625 
Q 20.953125 74.21875 31.78125 74.21875 
Q 42.671875 74.21875 48.875 69.140625 
Q 55.078125 64.0625 55.078125 55.328125 
Q 55.078125 49.078125 51.53125 44.71875 
Q 48 40.375 41.703125 38.8125 
Q 48.828125 37.15625 52.796875 32.3125 
Q 56.78125 27.484375 56.78125 20.515625 
Q 56.78125 9.90625 50.3125 4.234375 
Q 43.84375 -1.421875 31.78125 -1.421875 
Q 19.734375 -1.421875 13.25 4.234375 
Q 6.78125 9.90625 6.78125 20.515625 
Q 6.78125 27.484375 10.78125 32.3125 
Q 14.796875 37.15625 21.921875 38.8125 
z
M 18.3125 54.390625 
Q 18.3125 48.734375 21.84375 45.5625 
Q 25.390625 42.390625 31.78125 42.390625 
Q 38.140625 42.390625 41.71875 45.5625 
Q 45.3125 48.734375 45.3125 54.390625 
Q 45.3125 60.0625 41.71875 63.234375 
Q 38.140625 66.40625 31.78125 66.40625 
Q 25.390625 66.40625 21.84375 63.234375 
Q 18.3125 60.0625 18.3125 54.390625 
z
" id="DejaVuSans-56"/>
      </defs>
      <g transform="translate(10.736875 104.030676)scale(0.1 -0.1)">
       <use xlink:href="#DejaVuSans-48"/>
       <use x="63.623047" xlink:href="#DejaVuSans-46"/>
       <use x="95.410156" xlink:href="#DejaVuSans-56"/>
      </g>
     </g>
    </g>
    <g id="ytick_6">
     <g id="line2d_9">
      <g>
       <use style="stroke:#000000;stroke-width:0.8;" x="33.64" xlink:href="#mf7a9574342" y="65.460715"/>
      </g>
     </g>
     <g id="text_9">
      <!-- 1.0 -->
      <defs>
       <path d="M 12.40625 8.296875 
L 28.515625 8.296875 
L 28.515625 63.921875 
L 10.984375 60.40625 
L 10.984375 69.390625 
L 28.421875 72.90625 
L 38.28125 72.90625 
L 38.28125 8.296875 
L 54.390625 8.296875 
L 54.390625 0 
L 12.40625 0 
z
" id="DejaVuSans-49"/>
      </defs>
      <g transform="translate(10.736875 69.259933)scale(0.1 -0.1)">
       <use xlink:href="#DejaVuSans-49"/>
       <use x="63.623047" xlink:href="#DejaVuSans-46"/>
       <use x="95.410156" xlink:href="#DejaVuSans-48"/>
      </g>
     </g>
    </g>
   </g>
   <g id="LineCollection_1">
    <path clip-path="url(#pf48c725fb8)" d="M 37.454545 104.249626 
L 41.269091 104.249626 
" style="fill:none;stroke:#1f77b4;stroke-width:1.5;"/>
    <path clip-path="url(#pf48c725fb8)" d="M 52.712727 177.592535 
L 56.527273 177.592535 
" style="fill:none;stroke:#1f77b4;stroke-width:1.5;"/>
    <path clip-path="url(#pf48c725fb8)" d="M 67.970909 102.862343 
L 71.785455 102.862343 
" style="fill:none;stroke:#1f77b4;stroke-width:1.5;"/>
   </g>
   <g id="LineCollection_2">
    <path clip-path="url(#pf48c725fb8)" d="M 37.454545 66.253068 
L 41.269091 66.253068 
" style="fill:none;stroke:#1f77b4;stroke-width:1.5;"/>
    <path clip-path="url(#pf48c725fb8)" d="M 52.712727 124.729025 
L 56.527273 124.729025 
" style="fill:none;stroke:#1f77b4;stroke-width:1.5;"/>
    <path clip-path="url(#pf48c725fb8)" d="M 67.970909 66.553454 
L 71.785455 66.553454 
" style="fill:none;stroke:#1f77b4;stroke-width:1.5;"/>
   </g>
   <g id="LineCollection_3">
    <path clip-path="url(#pf48c725fb8)" d="M 37.454545 239.314426 
L 41.269091 239.314426 
" style="fill:none;stroke:#1f77b4;stroke-width:1.5;"/>
    <path clip-path="url(#pf48c725fb8)" d="M 52.712727 239.314426 
L 56.527273 239.314426 
" style="fill:none;stroke:#1f77b4;stroke-width:1.5;"/>
    <path clip-path="url(#pf48c725fb8)" d="M 67.970909 239.314426 
L 71.785455 239.314426 
" style="fill:none;stroke:#1f77b4;stroke-width:1.5;"/>
   </g>
   <g id="LineCollection_4">
    <path clip-path="url(#pf48c725fb8)" d="M 39.361818 239.314426 
L 39.361818 66.253068 
" style="fill:none;stroke:#1f77b4;stroke-width:1.5;"/>
    <path clip-path="url(#pf48c725fb8)" d="M 54.62 239.314426 
L 54.62 124.729025 
" style="fill:none;stroke:#1f77b4;stroke-width:1.5;"/>
    <path clip-path="url(#pf48c725fb8)" d="M 69.878182 239.314426 
L 69.878182 66.553454 
" style="fill:none;stroke:#1f77b4;stroke-width:1.5;"/>
   </g>
   <g id="patch_3">
    <path d="M 33.64 247.967494 
L 33.64 57.6 
" style="fill:none;stroke:#000000;stroke-linecap:square;stroke-linejoin:miter;stroke-width:0.8;"/>
   </g>
   <g id="patch_4">
    <path d="M 75.6 247.967494 
L 75.6 57.6 
" style="fill:none;stroke:#000000;stroke-linecap:square;stroke-linejoin:miter;stroke-width:0.8;"/>
   </g>
   <g id="patch_5">
    <path d="M 33.64 247.967494 
L 75.6 247.967494 
" style="fill:none;stroke:#000000;stroke-linecap:square;stroke-linejoin:miter;stroke-width:0.8;"/>
   </g>
   <g id="patch_6">
    <path d="M 33.64 57.6 
L 75.6 57.6 
" style="fill:none;stroke:#000000;stroke-linecap:square;stroke-linejoin:miter;stroke-width:0.8;"/>
   </g>
   <g id="text_10">
    <!-- ovlp-F -->
    <defs>
     <path d="M 30.609375 48.390625 
Q 23.390625 48.390625 19.1875 42.75 
Q 14.984375 37.109375 14.984375 27.296875 
Q 14.984375 17.484375 19.15625 11.84375 
Q 23.34375 6.203125 30.609375 6.203125 
Q 37.796875 6.203125 41.984375 11.859375 
Q 46.1875 17.53125 46.1875 27.296875 
Q 46.1875 37.015625 41.984375 42.703125 
Q 37.796875 48.390625 30.609375 48.390625 
z
M 30.609375 56 
Q 42.328125 56 49.015625 48.375 
Q 55.71875 40.765625 55.71875 27.296875 
Q 55.71875 13.875 49.015625 6.21875 
Q 42.328125 -1.421875 30.609375 -1.421875 
Q 18.84375 -1.421875 12.171875 6.21875 
Q 5.515625 13.875 5.515625 27.296875 
Q 5.515625 40.765625 12.171875 48.375 
Q 18.84375 56 30.609375 56 
z
" id="DejaVuSans-111"/>
     <path d="M 2.984375 54.6875 
L 12.5 54.6875 
L 29.59375 8.796875 
L 46.6875 54.6875 
L 56.203125 54.6875 
L 35.6875 0 
L 23.484375 0 
z
" id="DejaVuSans-118"/>
     <path d="M 18.109375 8.203125 
L 18.109375 -20.796875 
L 9.078125 -20.796875 
L 9.078125 54.6875 
L 18.109375 54.6875 
L 18.109375 46.390625 
Q 20.953125 51.265625 25.265625 53.625 
Q 29.59375 56 35.59375 56 
Q 45.5625 56 51.78125 48.09375 
Q 58.015625 40.1875 58.015625 27.296875 
Q 58.015625 14.40625 51.78125 6.484375 
Q 45.5625 -1.421875 35.59375 -1.421875 
Q 29.59375 -1.421875 25.265625 0.953125 
Q 20.953125 3.328125 18.109375 8.203125 
z
M 48.6875 27.296875 
Q 48.6875 37.203125 44.609375 42.84375 
Q 40.53125 48.484375 33.40625 48.484375 
Q 26.265625 48.484375 22.1875 42.84375 
Q 18.109375 37.203125 18.109375 27.296875 
Q 18.109375 17.390625 22.1875 11.75 
Q 26.265625 6.109375 33.40625 6.109375 
Q 40.53125 6.109375 44.609375 11.75 
Q 48.6875 17.390625 48.6875 27.296875 
z
" id="DejaVuSans-112"/>
     <path d="M 4.890625 31.390625 
L 31.203125 31.390625 
L 31.203125 23.390625 
L 4.890625 23.390625 
z
" id="DejaVuSans-45"/>
     <path d="M 9.8125 72.90625 
L 51.703125 72.90625 
L 51.703125 64.59375 
L 19.671875 64.59375 
L 19.671875 43.109375 
L 48.578125 43.109375 
L 48.578125 34.8125 
L 19.671875 34.8125 
L 19.671875 0 
L 9.8125 0 
z
" id="DejaVuSans-70"/>
    </defs>
    <g transform="translate(36.305937 51.6)scale(0.12 -0.12)">
     <use xlink:href="#DejaVuSans-111"/>
     <use x="61.181641" xlink:href="#DejaVuSans-118"/>
     <use x="120.361328" xlink:href="#DejaVuSans-108"/>
     <use x="148.144531" xlink:href="#DejaVuSans-112"/>
     <use x="211.621094" xlink:href="#DejaVuSans-45"/>
     <use x="247.705078" xlink:href="#DejaVuSans-70"/>
    </g>
   </g>
  </g>
  <g id="axes_2">
   <g id="patch_7">
    <path d="M 33.64 512.697679 
L 75.6 512.697679 
L 75.6 322.330185 
L 33.64 322.330185 
z
" style="fill:#ffffff;"/>
   </g>
   <g id="PolyCollection_4">
    <path clip-path="url(#p6c9270efee)" d="M 39.511001 504.044611 
L 39.212635 504.044611 
L 39.209331 502.296516 
L 39.207981 500.548422 
L 39.208505 498.800327 
L 39.210752 497.052233 
L 39.214519 495.304138 
L 39.219575 493.556044 
L 39.225686 491.807949 
L 39.232625 490.059855 
L 39.240188 488.31176 
L 39.248192 486.563666 
L 39.256474 484.815571 
L 39.264882 483.067476 
L 39.273264 481.319382 
L 39.281462 479.571287 
L 39.2893 477.823193 
L 39.296588 476.075098 
L 39.303113 474.327004 
L 39.308653 472.578909 
L 39.312982 470.830815 
L 39.31588 469.08272 
L 39.317144 467.334626 
L 39.316602 465.586531 
L 39.314121 463.838437 
L 39.309617 462.090342 
L 39.303061 460.342248 
L 39.294482 458.594153 
L 39.283965 456.846059 
L 39.271645 455.097964 
L 39.2577 453.34987 
L 39.242334 451.601775 
L 39.225764 449.853681 
L 39.208202 448.105586 
L 39.18984 446.357491 
L 39.170834 444.609397 
L 39.151304 442.861302 
L 39.131326 441.113208 
L 39.110943 439.365113 
L 39.090174 437.617019 
L 39.06903 435.868924 
L 39.047523 434.12083 
L 39.025683 432.372735 
L 39.003559 430.624641 
L 38.981224 428.876546 
L 38.958758 427.128452 
L 38.936241 425.380357 
L 38.913732 423.632263 
L 38.891253 421.884168 
L 38.868767 420.136074 
L 38.846172 418.387979 
L 38.823287 416.639885 
L 38.79985 414.89179 
L 38.775515 413.143696 
L 38.749853 411.395601 
L 38.722348 409.647507 
L 38.692399 407.899412 
L 38.659317 406.151317 
L 38.622331 404.403223 
L 38.580597 402.655128 
L 38.533221 400.907034 
L 38.479285 399.158939 
L 38.417895 397.410845 
L 38.348233 395.66275 
L 38.269609 393.914656 
L 38.18152 392.166561 
L 38.083687 390.418467 
L 37.97609 388.670372 
L 37.858973 386.922278 
L 37.732837 385.174183 
L 37.598416 383.426089 
L 37.456642 381.677994 
L 37.308614 379.9299 
L 37.155566 378.181805 
L 36.99886 376.433711 
L 36.839981 374.685616 
L 36.680558 372.937522 
L 36.522392 371.189427 
L 36.367486 369.441332 
L 36.218069 367.693238 
L 36.07661 365.945143 
L 35.9458 364.197049 
L 35.828514 362.448954 
L 35.727741 360.70086 
L 35.646481 358.952765 
L 35.587622 357.204671 
L 35.553806 355.456576 
L 35.547273 353.708482 
L 35.569724 351.960387 
L 35.622186 350.212293 
L 35.704907 348.464198 
L 35.817279 346.716104 
L 35.957803 344.968009 
L 36.124107 343.219915 
L 36.313 341.47182 
L 36.520586 339.723726 
L 36.742416 337.975631 
L 36.973676 336.227537 
L 37.209397 334.479442 
L 37.444676 332.731347 
L 37.674891 330.983253 
L 41.048745 330.983253 
L 41.048745 330.983253 
L 41.27896 332.731347 
L 41.51424 334.479442 
L 41.749961 336.227537 
L 41.981221 337.975631 
L 42.203051 339.723726 
L 42.410637 341.47182 
L 42.599529 343.219915 
L 42.765833 344.968009 
L 42.906358 346.716104 
L 43.018729 348.464198 
L 43.10145 350.212293 
L 43.153913 351.960387 
L 43.176364 353.708482 
L 43.169831 355.456576 
L 43.136014 357.204671 
L 43.077156 358.952765 
L 42.995895 360.70086 
L 42.895122 362.448954 
L 42.777837 364.197049 
L 42.647027 365.945143 
L 42.505567 367.693238 
L 42.356151 369.441332 
L 42.201244 371.189427 
L 42.043078 372.937522 
L 41.883656 374.685616 
L 41.724777 376.433711 
L 41.56807 378.181805 
L 41.415023 379.9299 
L 41.266994 381.677994 
L 41.12522 383.426089 
L 40.990799 385.174183 
L 40.864663 386.922278 
L 40.747546 388.670372 
L 40.639949 390.418467 
L 40.542117 392.166561 
L 40.454027 393.914656 
L 40.375403 395.66275 
L 40.305741 397.410845 
L 40.244351 399.158939 
L 40.190415 400.907034 
L 40.143039 402.655128 
L 40.101306 404.403223 
L 40.06432 406.151317 
L 40.031237 407.899412 
L 40.001288 409.647507 
L 39.973783 411.395601 
L 39.948121 413.143696 
L 39.923787 414.89179 
L 39.90035 416.639885 
L 39.877465 418.387979 
L 39.854869 420.136074 
L 39.832384 421.884168 
L 39.809904 423.632263 
L 39.787395 425.380357 
L 39.764878 427.128452 
L 39.742412 428.876546 
L 39.720077 430.624641 
L 39.697954 432.372735 
L 39.676114 434.12083 
L 39.654607 435.868924 
L 39.633462 437.617019 
L 39.612694 439.365113 
L 39.592311 441.113208 
L 39.572333 442.861302 
L 39.552802 444.609397 
L 39.533796 446.357491 
L 39.515434 448.105586 
L 39.497872 449.853681 
L 39.481303 451.601775 
L 39.465937 453.34987 
L 39.451991 455.097964 
L 39.439671 456.846059 
L 39.429154 458.594153 
L 39.420575 460.342248 
L 39.414019 462.090342 
L 39.409516 463.838437 
L 39.407034 465.586531 
L 39.406492 467.334626 
L 39.407756 469.08272 
L 39.410654 470.830815 
L 39.414983 472.578909 
L 39.420524 474.327004 
L 39.427049 476.075098 
L 39.434336 477.823193 
L 39.442175 479.571287 
L 39.450372 481.319382 
L 39.458755 483.067476 
L 39.467162 484.815571 
L 39.475444 486.563666 
L 39.483448 488.31176 
L 39.491011 490.059855 
L 39.49795 491.807949 
L 39.504061 493.556044 
L 39.509118 495.304138 
L 39.512884 497.052233 
L 39.515131 498.800327 
L 39.515655 500.548422 
L 39.514305 502.296516 
L 39.511001 504.044611 
z
" style="fill:#1f77b4;fill-opacity:0.3;"/>
   </g>
   <g id="PolyCollection_5">
    <path clip-path="url(#p6c9270efee)" d="M 56.269553 504.044611 
L 52.970447 504.044611 
L 52.948604 502.317301 
L 52.936555 500.589992 
L 52.934193 498.862682 
L 52.941184 497.135372 
L 52.956976 495.408063 
L 52.980816 493.680753 
L 53.011767 491.953444 
L 53.048737 490.226134 
L 53.090507 488.498824 
L 53.135763 486.771515 
L 53.183126 485.044205 
L 53.231188 483.316896 
L 53.278542 481.589586 
L 53.323807 479.862276 
L 53.365661 478.134967 
L 53.402856 476.407657 
L 53.434243 474.680348 
L 53.458786 472.953038 
L 53.475572 471.225728 
L 53.483824 469.498419 
L 53.482902 467.771109 
L 53.47231 466.0438 
L 53.451696 464.31649 
L 53.420852 462.58918 
L 53.37971 460.861871 
L 53.328337 459.134561 
L 53.266936 457.407252 
L 53.195836 455.679942 
L 53.115487 453.952632 
L 53.026453 452.225323 
L 52.929407 450.498013 
L 52.825119 448.770704 
L 52.714454 447.043394 
L 52.598355 445.316084 
L 52.477842 443.588775 
L 52.353993 441.861465 
L 52.227939 440.134156 
L 52.100848 438.406846 
L 51.973915 436.679536 
L 51.848345 434.952227 
L 51.725341 433.224917 
L 51.606087 431.497608 
L 51.491731 429.770298 
L 51.383374 428.042988 
L 51.282046 426.315679 
L 51.188698 424.588369 
L 51.104183 422.86106 
L 51.029241 421.13375 
L 50.964492 419.40644 
L 50.910417 417.679131 
L 50.86736 415.951821 
L 50.835511 414.224512 
L 50.814913 412.497202 
L 50.805455 410.769892 
L 50.806874 409.042583 
L 50.818767 407.315273 
L 50.840592 405.587964 
L 50.871683 403.860654 
L 50.911262 402.133345 
L 50.958455 400.406035 
L 51.012308 398.678725 
L 51.07181 396.951416 
L 51.135911 395.224106 
L 51.203544 393.496797 
L 51.273645 391.769487 
L 51.345179 390.042177 
L 51.417159 388.314868 
L 51.488667 386.587558 
L 51.558875 384.860249 
L 51.627058 383.132939 
L 51.692615 381.405629 
L 51.755075 379.67832 
L 51.814111 377.95101 
L 51.869539 376.223701 
L 51.921324 374.496391 
L 51.969576 372.769081 
L 52.014541 371.041772 
L 52.056589 369.314462 
L 52.096203 367.587153 
L 52.133959 365.859843 
L 52.170506 364.132533 
L 52.206542 362.405224 
L 52.242791 360.677914 
L 52.279979 358.950605 
L 52.318813 357.223295 
L 52.35995 355.495985 
L 52.403987 353.768676 
L 52.451434 352.041366 
L 52.502702 350.314057 
L 52.558093 348.586747 
L 52.617788 346.859437 
L 52.681845 345.132128 
L 52.750198 343.404818 
L 52.822661 341.677509 
L 52.898934 339.950199 
L 52.978614 338.222889 
L 53.061206 336.49558 
L 53.146141 334.76827 
L 53.23279 333.040961 
L 56.00721 333.040961 
L 56.00721 333.040961 
L 56.093859 334.76827 
L 56.178794 336.49558 
L 56.261386 338.222889 
L 56.341066 339.950199 
L 56.417339 341.677509 
L 56.489802 343.404818 
L 56.558155 345.132128 
L 56.622212 346.859437 
L 56.681907 348.586747 
L 56.737298 350.314057 
L 56.788566 352.041366 
L 56.836013 353.768676 
L 56.88005 355.495985 
L 56.921187 357.223295 
L 56.960021 358.950605 
L 56.997209 360.677914 
L 57.033458 362.405224 
L 57.069494 364.132533 
L 57.106041 365.859843 
L 57.143797 367.587153 
L 57.183411 369.314462 
L 57.225459 371.041772 
L 57.270424 372.769081 
L 57.318676 374.496391 
L 57.370461 376.223701 
L 57.425889 377.95101 
L 57.484925 379.67832 
L 57.547385 381.405629 
L 57.612942 383.132939 
L 57.681125 384.860249 
L 57.751333 386.587558 
L 57.822841 388.314868 
L 57.894821 390.042177 
L 57.966355 391.769487 
L 58.036456 393.496797 
L 58.104089 395.224106 
L 58.16819 396.951416 
L 58.227692 398.678725 
L 58.281545 400.406035 
L 58.328738 402.133345 
L 58.368317 403.860654 
L 58.399408 405.587964 
L 58.421233 407.315273 
L 58.433126 409.042583 
L 58.434545 410.769892 
L 58.425087 412.497202 
L 58.404489 414.224512 
L 58.37264 415.951821 
L 58.329583 417.679131 
L 58.275508 419.40644 
L 58.210759 421.13375 
L 58.135817 422.86106 
L 58.051302 424.588369 
L 57.957954 426.315679 
L 57.856626 428.042988 
L 57.748269 429.770298 
L 57.633913 431.497608 
L 57.514659 433.224917 
L 57.391655 434.952227 
L 57.266085 436.679536 
L 57.139152 438.406846 
L 57.012061 440.134156 
L 56.886007 441.861465 
L 56.762158 443.588775 
L 56.641645 445.316084 
L 56.525546 447.043394 
L 56.414881 448.770704 
L 56.310593 450.498013 
L 56.213547 452.225323 
L 56.124513 453.952632 
L 56.044164 455.679942 
L 55.973064 457.407252 
L 55.911663 459.134561 
L 55.86029 460.861871 
L 55.819148 462.58918 
L 55.788304 464.31649 
L 55.76769 466.0438 
L 55.757098 467.771109 
L 55.756176 469.498419 
L 55.764428 471.225728 
L 55.781214 472.953038 
L 55.805757 474.680348 
L 55.837144 476.407657 
L 55.874339 478.134967 
L 55.916193 479.862276 
L 55.961458 481.589586 
L 56.008812 483.316896 
L 56.056874 485.044205 
L 56.104237 486.771515 
L 56.149493 488.498824 
L 56.191263 490.226134 
L 56.228233 491.953444 
L 56.259184 493.680753 
L 56.283024 495.408063 
L 56.298816 497.135372 
L 56.305807 498.862682 
L 56.303445 500.589992 
L 56.291396 502.317301 
L 56.269553 504.044611 
z
" style="fill:#1f77b4;fill-opacity:0.3;"/>
   </g>
   <g id="PolyCollection_6">
    <path clip-path="url(#p6c9270efee)" d="M 70.011806 504.044611 
L 69.744558 504.044611 
L 69.74571 502.29955 
L 69.749178 500.55449 
L 69.754755 498.80943 
L 69.762117 497.064369 
L 69.77085 495.319309 
L 69.780475 493.574249 
L 69.790478 491.829188 
L 69.800339 490.084128 
L 69.809557 488.339068 
L 69.81767 486.594008 
L 69.824261 484.848947 
L 69.828972 483.103887 
L 69.831498 481.358827 
L 69.831594 479.613766 
L 69.82907 477.868706 
L 69.823796 476.123646 
L 69.815711 474.378585 
L 69.804825 472.633525 
L 69.791242 470.888465 
L 69.775163 469.143404 
L 69.756903 467.398344 
L 69.736895 465.653284 
L 69.715688 463.908223 
L 69.693928 462.163163 
L 69.672342 460.418103 
L 69.651694 458.673042 
L 69.632749 456.927982 
L 69.616218 455.182922 
L 69.602711 453.437861 
L 69.592694 451.692801 
L 69.586452 449.947741 
L 69.584065 448.20268 
L 69.585396 446.45762 
L 69.590101 444.71256 
L 69.597639 442.967499 
L 69.607305 441.222439 
L 69.618259 439.477379 
L 69.629567 437.732319 
L 69.640241 435.987258 
L 69.649271 434.242198 
L 69.655668 432.497138 
L 69.658494 430.752077 
L 69.656892 429.007017 
L 69.650121 427.261957 
L 69.637577 425.516896 
L 69.618818 423.771836 
L 69.593581 422.026776 
L 69.561796 420.281715 
L 69.523579 418.536655 
L 69.479221 416.791595 
L 69.429166 415.046534 
L 69.373969 413.301474 
L 69.314248 411.556414 
L 69.250634 409.811353 
L 69.183708 408.066293 
L 69.113962 406.321233 
L 69.041757 404.576172 
L 68.967302 402.831112 
L 68.890664 401.086052 
L 68.811786 399.340991 
L 68.730532 397.595931 
L 68.646746 395.850871 
L 68.560316 394.10581 
L 68.471231 392.36075 
L 68.379629 390.61569 
L 68.285821 388.87063 
L 68.190279 387.125569 
L 68.0936 385.380509 
L 67.996436 383.635449 
L 67.899402 381.890388 
L 67.80298 380.145328 
L 67.707422 378.400268 
L 67.61268 376.655207 
L 67.518372 374.910147 
L 67.423801 373.165087 
L 67.328021 371.420026 
L 67.229966 369.674966 
L 67.128624 367.929906 
L 67.023233 366.184845 
L 66.913499 364.439785 
L 66.799792 362.694725 
L 66.683302 360.949664 
L 66.566136 359.204604 
L 66.451336 357.459544 
L 66.342802 355.714483 
L 66.24513 353.969423 
L 66.16336 352.224363 
L 66.102661 350.479302 
L 66.067974 348.734242 
L 66.063636 346.989182 
L 66.093039 345.244121 
L 66.158324 343.499061 
L 66.260171 341.754001 
L 66.397686 340.008941 
L 66.568402 338.26388 
L 66.768399 336.51882 
L 66.992528 334.77376 
L 67.234721 333.028699 
L 67.488365 331.283639 
L 72.267999 331.283639 
L 72.267999 331.283639 
L 72.521642 333.028699 
L 72.763836 334.77376 
L 72.987965 336.51882 
L 73.187962 338.26388 
L 73.358678 340.008941 
L 73.496193 341.754001 
L 73.59804 343.499061 
L 73.663325 345.244121 
L 73.692727 346.989182 
L 73.68839 348.734242 
L 73.653702 350.479302 
L 73.593004 352.224363 
L 73.511234 353.969423 
L 73.413562 355.714483 
L 73.305028 357.459544 
L 73.190228 359.204604 
L 73.073062 360.949664 
L 72.956572 362.694725 
L 72.842864 364.439785 
L 72.733131 366.184845 
L 72.62774 367.929906 
L 72.526397 369.674966 
L 72.428343 371.420026 
L 72.332563 373.165087 
L 72.237991 374.910147 
L 72.143684 376.655207 
L 72.048942 378.400268 
L 71.953384 380.145328 
L 71.856962 381.890388 
L 71.759928 383.635449 
L 71.662763 385.380509 
L 71.566084 387.125569 
L 71.470542 388.87063 
L 71.376734 390.61569 
L 71.285133 392.36075 
L 71.196048 394.10581 
L 71.109617 395.850871 
L 71.025831 397.595931 
L 70.944578 399.340991 
L 70.865699 401.086052 
L 70.789062 402.831112 
L 70.714607 404.576172 
L 70.642401 406.321233 
L 70.572655 408.066293 
L 70.50573 409.811353 
L 70.442115 411.556414 
L 70.382395 413.301474 
L 70.327198 415.046534 
L 70.277143 416.791595 
L 70.232785 418.536655 
L 70.194567 420.281715 
L 70.162782 422.026776 
L 70.137546 423.771836 
L 70.118787 425.516896 
L 70.106242 427.261957 
L 70.099471 429.007017 
L 70.09787 430.752077 
L 70.100696 432.497138 
L 70.107093 434.242198 
L 70.116123 435.987258 
L 70.126796 437.732319 
L 70.138105 439.477379 
L 70.149059 441.222439 
L 70.158724 442.967499 
L 70.166263 444.71256 
L 70.170967 446.45762 
L 70.172299 448.20268 
L 70.169911 449.947741 
L 70.163669 451.692801 
L 70.153653 453.437861 
L 70.140146 455.182922 
L 70.123615 456.927982 
L 70.104669 458.673042 
L 70.084022 460.418103 
L 70.062436 462.163163 
L 70.040676 463.908223 
L 70.019468 465.653284 
L 69.999461 467.398344 
L 69.981201 469.143404 
L 69.965122 470.888465 
L 69.951538 472.633525 
L 69.940653 474.378585 
L 69.932567 476.123646 
L 69.927294 477.868706 
L 69.92477 479.613766 
L 69.924866 481.358827 
L 69.927392 483.103887 
L 69.932102 484.848947 
L 69.938694 486.594008 
L 69.946806 488.339068 
L 69.956025 490.084128 
L 69.965886 491.829188 
L 69.975889 493.574249 
L 69.985513 495.319309 
L 69.994246 497.064369 
L 70.001609 498.80943 
L 70.007185 500.55449 
L 70.010653 502.29955 
L 70.011806 504.044611 
z
" style="fill:#1f77b4;fill-opacity:0.3;"/>
   </g>
   <g id="matplotlib.axis_3">
    <g id="xtick_4">
     <g id="line2d_10">
      <g>
       <use style="stroke:#000000;stroke-width:0.8;" x="39.361818" xlink:href="#m25bac5cf7c" y="512.697679"/>
      </g>
     </g>
     <g id="text_11">
      <!-- seqRecur -->
      <g transform="translate(24.783265 558.130037)rotate(-45)scale(0.1 -0.1)">
       <use xlink:href="#DejaVuSans-115"/>
       <use x="52.099609" xlink:href="#DejaVuSans-101"/>
       <use x="113.623047" xlink:href="#DejaVuSans-113"/>
       <use x="177.099609" xlink:href="#DejaVuSans-82"/>
       <use x="246.519531" xlink:href="#DejaVuSans-101"/>
       <use x="308.042969" xlink:href="#DejaVuSans-99"/>
       <use x="363.023438" xlink:href="#DejaVuSans-117"/>
       <use x="426.402344" xlink:href="#DejaVuSans-114"/>
      </g>
     </g>
    </g>
    <g id="xtick_5">
     <g id="line2d_11">
      <g>
       <use style="stroke:#000000;stroke-width:0.8;" x="54.62" xlink:href="#m25bac5cf7c" y="512.697679"/>
      </g>
     </g>
     <g id="text_12">
      <!-- highlighter -->
      <g transform="translate(37.398635 563.41566)rotate(-45)scale(0.1 -0.1)">
       <use xlink:href="#DejaVuSans-104"/>
       <use x="63.378906" xlink:href="#DejaVuSans-105"/>
       <use x="91.162109" xlink:href="#DejaVuSans-103"/>
       <use x="154.638672" xlink:href="#DejaVuSans-104"/>
       <use x="218.017578" xlink:href="#DejaVuSans-108"/>
       <use x="245.800781" xlink:href="#DejaVuSans-105"/>
       <use x="273.583984" xlink:href="#DejaVuSans-103"/>
       <use x="337.060547" xlink:href="#DejaVuSans-104"/>
       <use x="400.439453" xlink:href="#DejaVuSans-116"/>
       <use x="439.648438" xlink:href="#DejaVuSans-101"/>
       <use x="501.171875" xlink:href="#DejaVuSans-114"/>
      </g>
     </g>
    </g>
    <g id="xtick_6">
     <g id="line2d_12">
      <g>
       <use style="stroke:#000000;stroke-width:0.8;" x="69.878182" xlink:href="#m25bac5cf7c" y="512.697679"/>
      </g>
     </g>
     <g id="text_13">
      <!-- sf -->
      <g transform="translate(68.742944 531.243407)rotate(-45)scale(0.1 -0.1)">
       <use xlink:href="#DejaVuSans-115"/>
       <use x="52.099609" xlink:href="#DejaVuSans-102"/>
      </g>
     </g>
    </g>
   </g>
   <g id="matplotlib.axis_4">
    <g id="ytick_7">
     <g id="line2d_13">
      <g>
       <use style="stroke:#000000;stroke-width:0.8;" x="33.64" xlink:href="#mf7a9574342" y="504.044611"/>
      </g>
     </g>
     <g id="text_14">
      <!-- 0.0 -->
      <g transform="translate(10.736875 507.843829)scale(0.1 -0.1)">
       <use xlink:href="#DejaVuSans-48"/>
       <use x="63.623047" xlink:href="#DejaVuSans-46"/>
       <use x="95.410156" xlink:href="#DejaVuSans-48"/>
      </g>
     </g>
    </g>
    <g id="ytick_8">
     <g id="line2d_14">
      <g>
       <use style="stroke:#000000;stroke-width:0.8;" x="33.64" xlink:href="#mf7a9574342" y="469.273869"/>
      </g>
     </g>
     <g id="text_15">
      <!-- 0.2 -->
      <g transform="translate(10.736875 473.073087)scale(0.1 -0.1)">
       <use xlink:href="#DejaVuSans-48"/>
       <use x="63.623047" xlink:href="#DejaVuSans-46"/>
       <use x="95.410156" xlink:href="#DejaVuSans-50"/>
      </g>
     </g>
    </g>
    <g id="ytick_9">
     <g id="line2d_15">
      <g>
       <use style="stroke:#000000;stroke-width:0.8;" x="33.64" xlink:href="#mf7a9574342" y="434.503126"/>
      </g>
     </g>
     <g id="text_16">
      <!-- 0.4 -->
      <g transform="translate(10.736875 438.302345)scale(0.1 -0.1)">
       <use xlink:href="#DejaVuSans-48"/>
       <use x="63.623047" xlink:href="#DejaVuSans-46"/>
       <use x="95.410156" xlink:href="#DejaVuSans-52"/>
      </g>
     </g>
    </g>
    <g id="ytick_10">
     <g id="line2d_16">
      <g>
       <use style="stroke:#000000;stroke-width:0.8;" x="33.64" xlink:href="#mf7a9574342" y="399.732384"/>
      </g>
     </g>
     <g id="text_17">
      <!-- 0.6 -->
      <g transform="translate(10.736875 403.531603)scale(0.1 -0.1)">
       <use xlink:href="#DejaVuSans-48"/>
       <use x="63.623047" xlink:href="#DejaVuSans-46"/>
       <use x="95.410156" xlink:href="#DejaVuSans-54"/>
      </g>
     </g>
    </g>
    <g id="ytick_11">
     <g id="line2d_17">
      <g>
       <use style="stroke:#000000;stroke-width:0.8;" x="33.64" xlink:href="#mf7a9574342" y="364.961642"/>
      </g>
     </g>
     <g id="text_18">
      <!-- 0.8 -->
      <g transform="translate(10.736875 368.760861)scale(0.1 -0.1)">
       <use xlink:href="#DejaVuSans-48"/>
       <use x="63.623047" xlink:href="#DejaVuSans-46"/>
       <use x="95.410156" xlink:href="#DejaVuSans-56"/>
      </g>
     </g>
    </g>
    <g id="ytick_12">
     <g id="line2d_18">
      <g>
       <use style="stroke:#000000;stroke-width:0.8;" x="33.64" xlink:href="#mf7a9574342" y="330.1909"/>
      </g>
     </g>
     <g id="text_19">
      <!-- 1.0 -->
      <g transform="translate(10.736875 333.990119)scale(0.1 -0.1)">
       <use xlink:href="#DejaVuSans-49"/>
       <use x="63.623047" xlink:href="#DejaVuSans-46"/>
       <use x="95.410156" xlink:href="#DejaVuSans-48"/>
      </g>
     </g>
    </g>
   </g>
   <g id="LineCollection_5">
    <path clip-path="url(#p6c9270efee)" d="M 37.454545 368.159796 
L 41.269091 368.159796 
" style="fill:none;stroke:#1f77b4;stroke-width:1.5;"/>
    <path clip-path="url(#p6c9270efee)" d="M 52.712727 415.382102 
L 56.527273 415.382102 
" style="fill:none;stroke:#1f77b4;stroke-width:1.5;"/>
    <path clip-path="url(#p6c9270efee)" d="M 67.970909 366.047606 
L 71.785455 366.047606 
" style="fill:none;stroke:#1f77b4;stroke-width:1.5;"/>
   </g>
   <g id="LineCollection_6">
    <path clip-path="url(#p6c9270efee)" d="M 37.454545 330.983253 
L 41.269091 330.983253 
" style="fill:none;stroke:#1f77b4;stroke-width:1.5;"/>
    <path clip-path="url(#p6c9270efee)" d="M 52.712727 333.040961 
L 56.527273 333.040961 
" style="fill:none;stroke:#1f77b4;stroke-width:1.5;"/>
    <path clip-path="url(#p6c9270efee)" d="M 67.970909 331.283639 
L 71.785455 331.283639 
" style="fill:none;stroke:#1f77b4;stroke-width:1.5;"/>
   </g>
   <g id="LineCollection_7">
    <path clip-path="url(#p6c9270efee)" d="M 37.454545 504.044611 
L 41.269091 504.044611 
" style="fill:none;stroke:#1f77b4;stroke-width:1.5;"/>
    <path clip-path="url(#p6c9270efee)" d="M 52.712727 504.044611 
L 56.527273 504.044611 
" style="fill:none;stroke:#1f77b4;stroke-width:1.5;"/>
    <path clip-path="url(#p6c9270efee)" d="M 67.970909 504.044611 
L 71.785455 504.044611 
" style="fill:none;stroke:#1f77b4;stroke-width:1.5;"/>
   </g>
   <g id="LineCollection_8">
    <path clip-path="url(#p6c9270efee)" d="M 39.361818 504.044611 
L 39.361818 330.983253 
" style="fill:none;stroke:#1f77b4;stroke-width:1.5;"/>
    <path clip-path="url(#p6c9270efee)" d="M 54.62 504.044611 
L 54.62 333.040961 
" style="fill:none;stroke:#1f77b4;stroke-width:1.5;"/>
    <path clip-path="url(#p6c9270efee)" d="M 69.878182 504.044611 
L 69.878182 331.283639 
" style="fill:none;stroke:#1f77b4;stroke-width:1.5;"/>
   </g>
   <g id="patch_8">
    <path d="M 33.64 512.697679 
L 33.64 322.330185 
" style="fill:none;stroke:#000000;stroke-linecap:square;stroke-linejoin:miter;stroke-width:0.8;"/>
   </g>
   <g id="patch_9">
    <path d="M 75.6 512.697679 
L 75.6 322.330185 
" style="fill:none;stroke:#000000;stroke-linecap:square;stroke-linejoin:miter;stroke-width:0.8;"/>
   </g>
   <g id="patch_10">
    <path d="M 33.64 512.697679 
L 75.6 512.697679 
" style="fill:none;stroke:#000000;stroke-linecap:square;stroke-linejoin:miter;stroke-width:0.8;"/>
   </g>
   <g id="patch_11">
    <path d="M 33.64 322.330185 
L 75.6 322.330185 
" style="fill:none;stroke:#000000;stroke-linecap:square;stroke-linejoin:miter;stroke-width:0.8;"/>
   </g>
   <g id="text_20">
    <!-- sovl-F -->
    <g transform="translate(36.989375 316.330185)scale(0.12 -0.12)">
     <use xlink:href="#DejaVuSans-115"/>
     <use x="52.099609" xlink:href="#DejaVuSans-111"/>
     <use x="113.28125" xlink:href="#DejaVuSans-118"/>
     <use x="172.460938" xlink:href="#DejaVuSans-108"/>
     <use x="200.244141" xlink:href="#DejaVuSans-45"/>
     <use x="236.328125" xlink:href="#DejaVuSans-70"/>
    </g>
   </g>
  </g>
 </g>
 <defs>
  <clipPath id="pf48c725fb8">
   <rect height="190.367494" width="41.96" x="33.64" y="57.6"/>
  </clipPath>
  <clipPath id="p6c9270efee">
   <rect height="190.367494" width="41.96" x="33.64" y="322.330185"/>
  </clipPath>
 </defs>
</svg>
