<?xml version="1.0" encoding="utf-8" standalone="no"?>
<!DOCTYPE svg PUBLIC "-//W3C//DTD SVG 1.1//EN"
  "http://www.w3.org/Graphics/SVG/1.1/DTD/svg11.dtd">
<!-- Created with matplotlib (https://matplotlib.org/) -->
<svg height="576pt" version="1.1" viewBox="0 0 86.4 576" width="86.4pt" xmlns="http://www.w3.org/2000/svg" xmlns:xlink="http://www.w3.org/1999/xlink">
 <defs>
  <style type="text/css">
*{stroke-linecap:butt;stroke-linejoin:round;white-space:pre;}
  </style>
 </defs>
 <g id="figure_1">
  <g id="patch_1">
   <path d="M 0 576 
L 86.4 576 
L 86.4 0 
L 0 0 
z
" style="fill:#ffffff;"/>
  </g>
  <g id="axes_1">
   <g id="patch_2">
    <path d="M 33.64 247.967494 
L 75.6 247.967494 
L 75.6 57.6 
L 33.64 57.6 
z
" style="fill:#ffffff;"/>
   </g>
   <g id="PolyCollection_1">
    <path clip-path="url(#p6a5094a2ae)" d="M 39.469068 239.314426 
L 39.254568 239.314426 
L 39.249487 237.566331 
L 39.245253 235.818237 
L 39.241874 234.070142 
L 39.239334 232.322048 
L 39.237593 230.573953 
L 39.236595 228.825859 
L 39.236274 227.077764 
L 39.236553 225.329669 
L 39.237346 223.581575 
L 39.238558 221.83348 
L 39.240082 220.085386 
L 39.2418 218.337291 
L 39.243587 216.589197 
L 39.245317 214.841102 
L 39.246868 213.093008 
L 39.248134 211.344913 
L 39.249029 209.596819 
L 39.249497 207.848724 
L 39.24951 206.10063 
L 39.249068 204.352535 
L 39.248191 202.604441 
L 39.246905 200.856346 
L 39.245232 199.108252 
L 39.243171 197.360157 
L 39.24069 195.612063 
L 39.237717 193.863968 
L 39.234138 192.115874 
L 39.229801 190.367779 
L 39.224527 188.619684 
L 39.218122 186.87159 
L 39.210395 185.123495 
L 39.201174 183.375401 
L 39.190323 181.627306 
L 39.177754 179.879212 
L 39.163434 178.131117 
L 39.147392 176.383023 
L 39.129719 174.634928 
L 39.110563 172.886834 
L 39.090124 171.138739 
L 39.068641 169.390645 
L 39.046381 167.64255 
L 39.02362 165.894456 
L 39.00063 164.146361 
L 38.977653 162.398267 
L 38.954887 160.650172 
L 38.932459 158.902078 
L 38.910408 157.153983 
L 38.88867 155.405889 
L 38.867062 153.657794 
L 38.845273 151.9097 
L 38.822865 150.161605 
L 38.799267 148.41351 
L 38.773792 146.665416 
L 38.745645 144.917321 
L 38.713947 143.169227 
L 38.677764 141.421132 
L 38.636141 139.673038 
L 38.58815 137.924943 
L 38.532933 136.176849 
L 38.469762 134.428754 
L 38.398084 132.68066 
L 38.317568 130.932565 
L 38.22814 129.184471 
L 38.12999 127.436376 
L 38.023565 125.688282 
L 37.909535 123.940187 
L 37.788737 122.192093 
L 37.662102 120.443998 
L 37.530583 118.695904 
L 37.395086 116.947809 
L 37.256424 115.199715 
L 37.115302 113.45162 
L 36.972337 111.703525 
L 36.828123 109.955431 
L 36.683316 108.207336 
L 36.538748 106.459242 
L 36.395538 104.711147 
L 36.255191 102.963053 
L 36.119659 101.214958 
L 35.99136 99.466864 
L 35.873138 97.718769 
L 35.768175 95.970675 
L 35.679841 94.22258 
L 35.611519 92.474486 
L 35.566398 90.726391 
L 35.547273 88.978297 
L 35.55635 87.230202 
L 35.59509 85.482108 
L 35.664085 83.734013 
L 35.762998 81.985919 
L 35.890545 80.237824 
L 36.044538 78.48973 
L 36.221969 76.741635 
L 36.419141 74.993541 
L 36.63183 73.245446 
L 36.855465 71.497351 
L 37.085325 69.749257 
L 37.31673 68.001162 
L 37.545223 66.253068 
L 41.178413 66.253068 
L 41.178413 66.253068 
L 41.406907 68.001162 
L 41.638311 69.749257 
L 41.868171 71.497351 
L 42.091807 73.245446 
L 42.304496 74.993541 
L 42.501668 76.741635 
L 42.679098 78.48973 
L 42.833091 80.237824 
L 42.960638 81.985919 
L 43.059551 83.734013 
L 43.128547 85.482108 
L 43.167286 87.230202 
L 43.176364 88.978297 
L 43.157239 90.726391 
L 43.112118 92.474486 
L 43.043795 94.22258 
L 42.955461 95.970675 
L 42.850498 97.718769 
L 42.732277 99.466864 
L 42.603977 101.214958 
L 42.468445 102.963053 
L 42.328098 104.711147 
L 42.184888 106.459242 
L 42.04032 108.207336 
L 41.895513 109.955431 
L 41.751299 111.703525 
L 41.608335 113.45162 
L 41.467212 115.199715 
L 41.32855 116.947809 
L 41.193053 118.695904 
L 41.061535 120.443998 
L 40.9349 122.192093 
L 40.814102 123.940187 
L 40.700072 125.688282 
L 40.593647 127.436376 
L 40.495496 129.184471 
L 40.406068 130.932565 
L 40.325553 132.68066 
L 40.253874 134.428754 
L 40.190703 136.176849 
L 40.135487 137.924943 
L 40.087495 139.673038 
L 40.045873 141.421132 
L 40.009689 143.169227 
L 39.977991 144.917321 
L 39.949844 146.665416 
L 39.924369 148.41351 
L 39.900772 150.161605 
L 39.878363 151.9097 
L 39.856575 153.657794 
L 39.834966 155.405889 
L 39.813228 157.153983 
L 39.791177 158.902078 
L 39.768749 160.650172 
L 39.745983 162.398267 
L 39.723007 164.146361 
L 39.700016 165.894456 
L 39.677256 167.64255 
L 39.654995 169.390645 
L 39.633512 171.138739 
L 39.613073 172.886834 
L 39.593918 174.634928 
L 39.576245 176.383023 
L 39.560203 178.131117 
L 39.545883 179.879212 
L 39.533313 181.627306 
L 39.522462 183.375401 
L 39.513241 185.123495 
L 39.505514 186.87159 
L 39.499109 188.619684 
L 39.493835 190.367779 
L 39.489498 192.115874 
L 39.485919 193.863968 
L 39.482946 195.612063 
L 39.480465 197.360157 
L 39.478404 199.108252 
L 39.476731 200.856346 
L 39.475446 202.604441 
L 39.474569 204.352535 
L 39.474127 206.10063 
L 39.47414 207.848724 
L 39.474607 209.596819 
L 39.475502 211.344913 
L 39.476768 213.093008 
L 39.47832 214.841102 
L 39.480049 216.589197 
L 39.481837 218.337291 
L 39.483554 220.085386 
L 39.485078 221.83348 
L 39.48629 223.581575 
L 39.487084 225.329669 
L 39.487363 227.077764 
L 39.487042 228.825859 
L 39.486044 230.573953 
L 39.484302 232.322048 
L 39.481762 234.070142 
L 39.478384 235.818237 
L 39.474149 237.566331 
L 39.469068 239.314426 
z
" style="fill:#1f77b4;fill-opacity:0.3;"/>
   </g>
   <g id="PolyCollection_2">
    <path clip-path="url(#p6a5094a2ae)" d="M 56.09442 239.314426 
L 53.14558 239.314426 
L 53.134643 238.205311 
L 53.132679 237.096196 
L 53.139583 235.987082 
L 53.155067 234.877967 
L 53.178664 233.768853 
L 53.209747 232.659738 
L 53.247537 231.550624 
L 53.291133 230.441509 
L 53.339527 229.332394 
L 53.391634 228.22328 
L 53.446312 227.114165 
L 53.502395 226.005051 
L 53.558707 224.895936 
L 53.614092 223.786821 
L 53.667431 222.677707 
L 53.717658 221.568592 
L 53.763776 220.459478 
L 53.804865 219.350363 
L 53.840095 218.241249 
L 53.868727 217.132134 
L 53.89012 216.023019 
L 53.903727 214.913905 
L 53.909104 213.80479 
L 53.905898 212.695676 
L 53.893854 211.586561 
L 53.872808 210.477446 
L 53.842688 209.368332 
L 53.803507 208.259217 
L 53.755368 207.150103 
L 53.698454 206.040988 
L 53.633031 204.931874 
L 53.559447 203.822759 
L 53.478122 202.713644 
L 53.389554 201.60453 
L 53.294308 200.495415 
L 53.193015 199.386301 
L 53.086363 198.277186 
L 52.975096 197.168071 
L 52.859997 196.058957 
L 52.741886 194.949842 
L 52.621608 193.840728 
L 52.500023 192.731613 
L 52.377991 191.622499 
L 52.256367 190.513384 
L 52.135985 189.404269 
L 52.017651 188.295155 
L 51.902128 187.18604 
L 51.790135 186.076926 
L 51.682331 184.967811 
L 51.579314 183.858696 
L 51.481614 182.749582 
L 51.389691 181.640467 
L 51.303932 180.531353 
L 51.224648 179.422238 
L 51.152083 178.313124 
L 51.086408 177.204009 
L 51.027729 176.094894 
L 50.97609 174.98578 
L 50.931481 173.876665 
L 50.89384 172.767551 
L 50.863065 171.658436 
L 50.839015 170.549321 
L 50.821524 169.440207 
L 50.810404 168.331092 
L 50.805455 167.221978 
L 50.806468 166.112863 
L 50.813238 165.003749 
L 50.825565 163.894634 
L 50.843263 162.785519 
L 50.866161 161.676405 
L 50.894108 160.56729 
L 50.926978 159.458176 
L 50.964667 158.349061 
L 51.007094 157.239946 
L 51.0542 156.130832 
L 51.105946 155.021717 
L 51.162304 153.912603 
L 51.223259 152.803488 
L 51.288796 151.694374 
L 51.358895 150.585259 
L 51.433523 149.476144 
L 51.512628 148.36703 
L 51.59613 147.257915 
L 51.683911 146.148801 
L 51.775814 145.039686 
L 51.871632 143.930571 
L 51.97111 142.821457 
L 52.073938 141.712342 
L 52.179751 140.603228 
L 52.288135 139.494113 
L 52.398626 138.384999 
L 52.510715 137.275884 
L 52.62386 136.166769 
L 52.737487 135.057655 
L 52.851006 133.94854 
L 52.963817 132.839426 
L 53.075322 131.730311 
L 53.184937 130.621196 
L 53.292103 129.512082 
L 55.947897 129.512082 
L 55.947897 129.512082 
L 56.055063 130.621196 
L 56.164678 131.730311 
L 56.276183 132.839426 
L 56.388994 133.94854 
L 56.502513 135.057655 
L 56.61614 136.166769 
L 56.729285 137.275884 
L 56.841374 138.384999 
L 56.951865 139.494113 
L 57.060249 140.603228 
L 57.166062 141.712342 
L 57.26889 142.821457 
L 57.368368 143.930571 
L 57.464186 145.039686 
L 57.556089 146.148801 
L 57.64387 147.257915 
L 57.727372 148.36703 
L 57.806477 149.476144 
L 57.881105 150.585259 
L 57.951204 151.694374 
L 58.016741 152.803488 
L 58.077696 153.912603 
L 58.134054 155.021717 
L 58.1858 156.130832 
L 58.232906 157.239946 
L 58.275333 158.349061 
L 58.313022 159.458176 
L 58.345892 160.56729 
L 58.373839 161.676405 
L 58.396737 162.785519 
L 58.414435 163.894634 
L 58.426762 165.003749 
L 58.433532 166.112863 
L 58.434545 167.221978 
L 58.429596 168.331092 
L 58.418476 169.440207 
L 58.400985 170.549321 
L 58.376935 171.658436 
L 58.34616 172.767551 
L 58.308519 173.876665 
L 58.26391 174.98578 
L 58.212271 176.094894 
L 58.153592 177.204009 
L 58.087917 178.313124 
L 58.015352 179.422238 
L 57.936068 180.531353 
L 57.850309 181.640467 
L 57.758386 182.749582 
L 57.660686 183.858696 
L 57.557669 184.967811 
L 57.449865 186.076926 
L 57.337872 187.18604 
L 57.222349 188.295155 
L 57.104015 189.404269 
L 56.983633 190.513384 
L 56.862009 191.622499 
L 56.739977 192.731613 
L 56.618392 193.840728 
L 56.498114 194.949842 
L 56.380003 196.058957 
L 56.264904 197.168071 
L 56.153637 198.277186 
L 56.046985 199.386301 
L 55.945692 200.495415 
L 55.850446 201.60453 
L 55.761878 202.713644 
L 55.680553 203.822759 
L 55.606969 204.931874 
L 55.541546 206.040988 
L 55.484632 207.150103 
L 55.436493 208.259217 
L 55.397312 209.368332 
L 55.367192 210.477446 
L 55.346146 211.586561 
L 55.334102 212.695676 
L 55.330896 213.80479 
L 55.336273 214.913905 
L 55.34988 216.023019 
L 55.371273 217.132134 
L 55.399905 218.241249 
L 55.435135 219.350363 
L 55.476224 220.459478 
L 55.522342 221.568592 
L 55.572569 222.677707 
L 55.625908 223.786821 
L 55.681293 224.895936 
L 55.737605 226.005051 
L 55.793688 227.114165 
L 55.848366 228.22328 
L 55.900473 229.332394 
L 55.948867 230.441509 
L 55.992463 231.550624 
L 56.030253 232.659738 
L 56.061336 233.768853 
L 56.084933 234.877967 
L 56.100417 235.987082 
L 56.107321 237.096196 
L 56.105357 238.205311 
L 56.09442 239.314426 
z
" style="fill:#1f77b4;fill-opacity:0.3;"/>
   </g>
   <g id="PolyCollection_3">
    <path clip-path="url(#p6a5094a2ae)" d="M 70.053597 239.314426 
L 69.702767 239.314426 
L 69.704286 237.585639 
L 69.708765 235.856852 
L 69.715975 234.128065 
L 69.725557 232.399277 
L 69.737048 230.67049 
L 69.749924 228.941703 
L 69.763633 227.212916 
L 69.777636 225.484129 
L 69.791442 223.755342 
L 69.80463 222.026555 
L 69.816868 220.297768 
L 69.827916 218.568981 
L 69.83763 216.840194 
L 69.845946 215.111407 
L 69.852867 213.38262 
L 69.858448 211.653833 
L 69.862773 209.925046 
L 69.865941 208.196259 
L 69.868048 206.467472 
L 69.869179 204.738685 
L 69.869397 203.009898 
L 69.868737 201.281111 
L 69.867214 199.552324 
L 69.864814 197.823536 
L 69.861508 196.094749 
L 69.857252 194.365962 
L 69.851994 192.637175 
L 69.845682 190.908388 
L 69.838262 189.179601 
L 69.829679 187.450814 
L 69.819876 185.722027 
L 69.808781 183.99324 
L 69.796303 182.264453 
L 69.78231 180.535666 
L 69.766625 178.806879 
L 69.749011 177.078092 
L 69.729169 175.349305 
L 69.706735 173.620518 
L 69.6813 171.891731 
L 69.652425 170.162944 
L 69.619678 168.434157 
L 69.582668 166.70537 
L 69.541088 164.976583 
L 69.494757 163.247795 
L 69.443649 161.519008 
L 69.387915 159.790221 
L 69.327891 158.061434 
L 69.264083 156.332647 
L 69.197138 154.60386 
L 69.127802 152.875073 
L 69.056861 151.146286 
L 68.985086 149.417499 
L 68.913173 147.688712 
L 68.841691 145.959925 
L 68.771048 144.231138 
L 68.701466 142.502351 
L 68.63298 140.773564 
L 68.565453 139.044777 
L 68.4986 137.31599 
L 68.432036 135.587203 
L 68.36532 133.858416 
L 68.298005 132.129629 
L 68.22969 130.400842 
L 68.160051 128.672054 
L 68.088875 126.943267 
L 68.016063 125.21448 
L 67.94163 123.485693 
L 67.865673 121.756906 
L 67.788341 120.028119 
L 67.70978 118.299332 
L 67.630087 116.570545 
L 67.549259 114.841758 
L 67.467163 113.112971 
L 67.38352 111.384184 
L 67.297924 109.655397 
L 67.209885 107.92661 
L 67.118904 106.197823 
L 67.02458 104.469036 
L 66.92673 102.740249 
L 66.825519 101.011462 
L 66.72159 99.282675 
L 66.616162 97.553888 
L 66.511107 95.825101 
L 66.40897 94.096313 
L 66.312936 92.367526 
L 66.226735 90.638739 
L 66.154482 88.909952 
L 66.10047 87.181165 
L 66.068906 85.452378 
L 66.063636 83.723591 
L 66.087862 81.994804 
L 66.143872 80.266017 
L 66.232833 78.53723 
L 66.354631 76.808443 
L 66.507814 75.079656 
L 66.689615 73.350869 
L 66.896073 71.622082 
L 67.122246 69.893295 
L 67.362481 68.164508 
L 72.393882 68.164508 
L 72.393882 68.164508 
L 72.634118 69.893295 
L 72.860291 71.622082 
L 73.066749 73.350869 
L 73.248549 75.079656 
L 73.401733 76.808443 
L 73.523531 78.53723 
L 73.612491 80.266017 
L 73.668502 81.994804 
L 73.692727 83.723591 
L 73.687458 85.452378 
L 73.655894 87.181165 
L 73.601881 88.909952 
L 73.529629 90.638739 
L 73.443428 92.367526 
L 73.347393 94.096313 
L 73.245256 95.825101 
L 73.140201 97.553888 
L 73.034773 99.282675 
L 72.930844 101.011462 
L 72.829634 102.740249 
L 72.731784 104.469036 
L 72.63746 106.197823 
L 72.546479 107.92661 
L 72.458439 109.655397 
L 72.372843 111.384184 
L 72.289201 113.112971 
L 72.207104 114.841758 
L 72.126276 116.570545 
L 72.046583 118.299332 
L 71.968023 120.028119 
L 71.890691 121.756906 
L 71.814734 123.485693 
L 71.7403 125.21448 
L 71.667489 126.943267 
L 71.596312 128.672054 
L 71.526674 130.400842 
L 71.458358 132.129629 
L 71.391044 133.858416 
L 71.324328 135.587203 
L 71.257764 137.31599 
L 71.190911 139.044777 
L 71.123383 140.773564 
L 71.054898 142.502351 
L 70.985316 144.231138 
L 70.914673 145.959925 
L 70.843191 147.688712 
L 70.771278 149.417499 
L 70.699503 151.146286 
L 70.628562 152.875073 
L 70.559225 154.60386 
L 70.492281 156.332647 
L 70.428473 158.061434 
L 70.368449 159.790221 
L 70.312715 161.519008 
L 70.261607 163.247795 
L 70.215275 164.976583 
L 70.173696 166.70537 
L 70.136686 168.434157 
L 70.103938 170.162944 
L 70.075064 171.891731 
L 70.049629 173.620518 
L 70.027195 175.349305 
L 70.007352 177.078092 
L 69.989739 178.806879 
L 69.974054 180.535666 
L 69.960061 182.264453 
L 69.947582 183.99324 
L 69.936488 185.722027 
L 69.926685 187.450814 
L 69.918102 189.179601 
L 69.910682 190.908388 
L 69.90437 192.637175 
L 69.899112 194.365962 
L 69.894856 196.094749 
L 69.89155 197.823536 
L 69.88915 199.552324 
L 69.887626 201.281111 
L 69.886967 203.009898 
L 69.887184 204.738685 
L 69.888315 206.467472 
L 69.890423 208.196259 
L 69.893591 209.925046 
L 69.897916 211.653833 
L 69.903497 213.38262 
L 69.910418 215.111407 
L 69.918733 216.840194 
L 69.928447 218.568981 
L 69.939496 220.297768 
L 69.951733 222.026555 
L 69.964921 223.755342 
L 69.978727 225.484129 
L 69.992731 227.212916 
L 70.00644 228.941703 
L 70.019315 230.67049 
L 70.030807 232.399277 
L 70.040388 234.128065 
L 70.047598 235.856852 
L 70.052077 237.585639 
L 70.053597 239.314426 
z
" style="fill:#1f77b4;fill-opacity:0.3;"/>
   </g>
   <g id="matplotlib.axis_1">
    <g id="xtick_1">
     <g id="line2d_1">
      <defs>
       <path d="M 0 0 
L 0 3.5 
" id="mc5cfe4bf17" style="stroke:#000000;stroke-width:0.8;"/>
      </defs>
      <g>
       <use style="stroke:#000000;stroke-width:0.8;" x="39.361818" xlink:href="#mc5cfe4bf17" y="247.967494"/>
      </g>
     </g>
     <g id="text_1">
      <!-- seqRecur -->
      <defs>
       <path d="M 44.28125 53.078125 
L 44.28125 44.578125 
Q 40.484375 46.53125 36.375 47.5 
Q 32.28125 48.484375 27.875 48.484375 
Q 21.1875 48.484375 17.84375 46.4375 
Q 14.5 44.390625 14.5 40.28125 
Q 14.5 37.15625 16.890625 35.375 
Q 19.28125 33.59375 26.515625 31.984375 
L 29.59375 31.296875 
Q 39.15625 29.25 43.1875 25.515625 
Q 47.21875 21.78125 47.21875 15.09375 
Q 47.21875 7.46875 41.1875 3.015625 
Q 35.15625 -1.421875 24.609375 -1.421875 
Q 20.21875 -1.421875 15.453125 -0.5625 
Q 10.6875 0.296875 5.421875 2 
L 5.421875 11.28125 
Q 10.40625 8.6875 15.234375 7.390625 
Q 20.0625 6.109375 24.8125 6.109375 
Q 31.15625 6.109375 34.5625 8.28125 
Q 37.984375 10.453125 37.984375 14.40625 
Q 37.984375 18.0625 35.515625 20.015625 
Q 33.0625 21.96875 24.703125 23.78125 
L 21.578125 24.515625 
Q 13.234375 26.265625 9.515625 29.90625 
Q 5.8125 33.546875 5.8125 39.890625 
Q 5.8125 47.609375 11.28125 51.796875 
Q 16.75 56 26.8125 56 
Q 31.78125 56 36.171875 55.265625 
Q 40.578125 54.546875 44.28125 53.078125 
z
" id="DejaVuSans-115"/>
       <path d="M 56.203125 29.59375 
L 56.203125 25.203125 
L 14.890625 25.203125 
Q 15.484375 15.921875 20.484375 11.0625 
Q 25.484375 6.203125 34.421875 6.203125 
Q 39.59375 6.203125 44.453125 7.46875 
Q 49.3125 8.734375 54.109375 11.28125 
L 54.109375 2.78125 
Q 49.265625 0.734375 44.1875 -0.34375 
Q 39.109375 -1.421875 33.890625 -1.421875 
Q 20.796875 -1.421875 13.15625 6.1875 
Q 5.515625 13.8125 5.515625 26.8125 
Q 5.515625 40.234375 12.765625 48.109375 
Q 20.015625 56 32.328125 56 
Q 43.359375 56 49.78125 48.890625 
Q 56.203125 41.796875 56.203125 29.59375 
z
M 47.21875 32.234375 
Q 47.125 39.59375 43.09375 43.984375 
Q 39.0625 48.390625 32.421875 48.390625 
Q 24.90625 48.390625 20.390625 44.140625 
Q 15.875 39.890625 15.1875 32.171875 
z
" id="DejaVuSans-101"/>
       <path d="M 14.796875 27.296875 
Q 14.796875 17.390625 18.875 11.75 
Q 22.953125 6.109375 30.078125 6.109375 
Q 37.203125 6.109375 41.296875 11.75 
Q 45.40625 17.390625 45.40625 27.296875 
Q 45.40625 37.203125 41.296875 42.84375 
Q 37.203125 48.484375 30.078125 48.484375 
Q 22.953125 48.484375 18.875 42.84375 
Q 14.796875 37.203125 14.796875 27.296875 
z
M 45.40625 8.203125 
Q 42.578125 3.328125 38.25 0.953125 
Q 33.9375 -1.421875 27.875 -1.421875 
Q 17.96875 -1.421875 11.734375 6.484375 
Q 5.515625 14.40625 5.515625 27.296875 
Q 5.515625 40.1875 11.734375 48.09375 
Q 17.96875 56 27.875 56 
Q 33.9375 56 38.25 53.625 
Q 42.578125 51.265625 45.40625 46.390625 
L 45.40625 54.6875 
L 54.390625 54.6875 
L 54.390625 -20.796875 
L 45.40625 -20.796875 
z
" id="DejaVuSans-113"/>
       <path d="M 44.390625 34.1875 
Q 47.5625 33.109375 50.5625 29.59375 
Q 53.5625 26.078125 56.59375 19.921875 
L 66.609375 0 
L 56 0 
L 46.6875 18.703125 
Q 43.0625 26.03125 39.671875 28.421875 
Q 36.28125 30.8125 30.421875 30.8125 
L 19.671875 30.8125 
L 19.671875 0 
L 9.8125 0 
L 9.8125 72.90625 
L 32.078125 72.90625 
Q 44.578125 72.90625 50.734375 67.671875 
Q 56.890625 62.453125 56.890625 51.90625 
Q 56.890625 45.015625 53.6875 40.46875 
Q 50.484375 35.9375 44.390625 34.1875 
z
M 19.671875 64.796875 
L 19.671875 38.921875 
L 32.078125 38.921875 
Q 39.203125 38.921875 42.84375 42.21875 
Q 46.484375 45.515625 46.484375 51.90625 
Q 46.484375 58.296875 42.84375 61.546875 
Q 39.203125 64.796875 32.078125 64.796875 
z
" id="DejaVuSans-82"/>
       <path d="M 48.78125 52.59375 
L 48.78125 44.1875 
Q 44.96875 46.296875 41.140625 47.34375 
Q 37.3125 48.390625 33.40625 48.390625 
Q 24.65625 48.390625 19.8125 42.84375 
Q 14.984375 37.3125 14.984375 27.296875 
Q 14.984375 17.28125 19.8125 11.734375 
Q 24.65625 6.203125 33.40625 6.203125 
Q 37.3125 6.203125 41.140625 7.25 
Q 44.96875 8.296875 48.78125 10.40625 
L 48.78125 2.09375 
Q 45.015625 0.34375 40.984375 -0.53125 
Q 36.96875 -1.421875 32.421875 -1.421875 
Q 20.0625 -1.421875 12.78125 6.34375 
Q 5.515625 14.109375 5.515625 27.296875 
Q 5.515625 40.671875 12.859375 48.328125 
Q 20.21875 56 33.015625 56 
Q 37.15625 56 41.109375 55.140625 
Q 45.0625 54.296875 48.78125 52.59375 
z
" id="DejaVuSans-99"/>
       <path d="M 8.5 21.578125 
L 8.5 54.6875 
L 17.484375 54.6875 
L 17.484375 21.921875 
Q 17.484375 14.15625 20.5 10.265625 
Q 23.53125 6.390625 29.59375 6.390625 
Q 36.859375 6.390625 41.078125 11.03125 
Q 45.3125 15.671875 45.3125 23.6875 
L 45.3125 54.6875 
L 54.296875 54.6875 
L 54.296875 0 
L 45.3125 0 
L 45.3125 8.40625 
Q 42.046875 3.421875 37.71875 1 
Q 33.40625 -1.421875 27.6875 -1.421875 
Q 18.265625 -1.421875 13.375 4.4375 
Q 8.5 10.296875 8.5 21.578125 
z
M 31.109375 56 
z
" id="DejaVuSans-117"/>
       <path d="M 41.109375 46.296875 
Q 39.59375 47.171875 37.8125 47.578125 
Q 36.03125 48 33.890625 48 
Q 26.265625 48 22.1875 43.046875 
Q 18.109375 38.09375 18.109375 28.8125 
L 18.109375 0 
L 9.078125 0 
L 9.078125 54.6875 
L 18.109375 54.6875 
L 18.109375 46.1875 
Q 20.953125 51.171875 25.484375 53.578125 
Q 30.03125 56 36.53125 56 
Q 37.453125 56 38.578125 55.875 
Q 39.703125 55.765625 41.0625 55.515625 
z
" id="DejaVuSans-114"/>
      </defs>
      <g transform="translate(24.783265 293.399852)rotate(-45)scale(0.1 -0.1)">
       <use xlink:href="#DejaVuSans-115"/>
       <use x="52.099609" xlink:href="#DejaVuSans-101"/>
       <use x="113.623047" xlink:href="#DejaVuSans-113"/>
       <use x="177.099609" xlink:href="#DejaVuSans-82"/>
       <use x="246.519531" xlink:href="#DejaVuSans-101"/>
       <use x="308.042969" xlink:href="#DejaVuSans-99"/>
       <use x="363.023438" xlink:href="#DejaVuSans-117"/>
       <use x="426.402344" xlink:href="#DejaVuSans-114"/>
      </g>
     </g>
    </g>
    <g id="xtick_2">
     <g id="line2d_2">
      <g>
       <use style="stroke:#000000;stroke-width:0.8;" x="54.62" xlink:href="#mc5cfe4bf17" y="247.967494"/>
      </g>
     </g>
     <g id="text_2">
      <!-- highlighter -->
      <defs>
       <path d="M 54.890625 33.015625 
L 54.890625 0 
L 45.90625 0 
L 45.90625 32.71875 
Q 45.90625 40.484375 42.875 44.328125 
Q 39.84375 48.1875 33.796875 48.1875 
Q 26.515625 48.1875 22.3125 43.546875 
Q 18.109375 38.921875 18.109375 30.90625 
L 18.109375 0 
L 9.078125 0 
L 9.078125 75.984375 
L 18.109375 75.984375 
L 18.109375 46.1875 
Q 21.34375 51.125 25.703125 53.5625 
Q 30.078125 56 35.796875 56 
Q 45.21875 56 50.046875 50.171875 
Q 54.890625 44.34375 54.890625 33.015625 
z
" id="DejaVuSans-104"/>
       <path d="M 9.421875 54.6875 
L 18.40625 54.6875 
L 18.40625 0 
L 9.421875 0 
z
M 9.421875 75.984375 
L 18.40625 75.984375 
L 18.40625 64.59375 
L 9.421875 64.59375 
z
" id="DejaVuSans-105"/>
       <path d="M 45.40625 27.984375 
Q 45.40625 37.75 41.375 43.109375 
Q 37.359375 48.484375 30.078125 48.484375 
Q 22.859375 48.484375 18.828125 43.109375 
Q 14.796875 37.75 14.796875 27.984375 
Q 14.796875 18.265625 18.828125 12.890625 
Q 22.859375 7.515625 30.078125 7.515625 
Q 37.359375 7.515625 41.375 12.890625 
Q 45.40625 18.265625 45.40625 27.984375 
z
M 54.390625 6.78125 
Q 54.390625 -7.171875 48.1875 -13.984375 
Q 42 -20.796875 29.203125 -20.796875 
Q 24.46875 -20.796875 20.265625 -20.09375 
Q 16.0625 -19.390625 12.109375 -17.921875 
L 12.109375 -9.1875 
Q 16.0625 -11.328125 19.921875 -12.34375 
Q 23.78125 -13.375 27.78125 -13.375 
Q 36.625 -13.375 41.015625 -8.765625 
Q 45.40625 -4.15625 45.40625 5.171875 
L 45.40625 9.625 
Q 42.625 4.78125 38.28125 2.390625 
Q 33.9375 0 27.875 0 
Q 17.828125 0 11.671875 7.65625 
Q 5.515625 15.328125 5.515625 27.984375 
Q 5.515625 40.671875 11.671875 48.328125 
Q 17.828125 56 27.875 56 
Q 33.9375 56 38.28125 53.609375 
Q 42.625 51.21875 45.40625 46.390625 
L 45.40625 54.6875 
L 54.390625 54.6875 
z
" id="DejaVuSans-103"/>
       <path d="M 9.421875 75.984375 
L 18.40625 75.984375 
L 18.40625 0 
L 9.421875 0 
z
" id="DejaVuSans-108"/>
       <path d="M 18.3125 70.21875 
L 18.3125 54.6875 
L 36.8125 54.6875 
L 36.8125 47.703125 
L 18.3125 47.703125 
L 18.3125 18.015625 
Q 18.3125 11.328125 20.140625 9.421875 
Q 21.96875 7.515625 27.59375 7.515625 
L 36.8125 7.515625 
L 36.8125 0 
L 27.59375 0 
Q 17.1875 0 13.234375 3.875 
Q 9.28125 7.765625 9.28125 18.015625 
L 9.28125 47.703125 
L 2.6875 47.703125 
L 2.6875 54.6875 
L 9.28125 54.6875 
L 9.28125 70.21875 
z
" id="DejaVuSans-116"/>
      </defs>
      <g transform="translate(37.398635 298.685475)rotate(-45)scale(0.1 -0.1)">
       <use xlink:href="#DejaVuSans-104"/>
       <use x="63.378906" xlink:href="#DejaVuSans-105"/>
       <use x="91.162109" xlink:href="#DejaVuSans-103"/>
       <use x="154.638672" xlink:href="#DejaVuSans-104"/>
       <use x="218.017578" xlink:href="#DejaVuSans-108"/>
       <use x="245.800781" xlink:href="#DejaVuSans-105"/>
       <use x="273.583984" xlink:href="#DejaVuSans-103"/>
       <use x="337.060547" xlink:href="#DejaVuSans-104"/>
       <use x="400.439453" xlink:href="#DejaVuSans-116"/>
       <use x="439.648438" xlink:href="#DejaVuSans-101"/>
       <use x="501.171875" xlink:href="#DejaVuSans-114"/>
      </g>
     </g>
    </g>
    <g id="xtick_3">
     <g id="line2d_3">
      <g>
       <use style="stroke:#000000;stroke-width:0.8;" x="69.878182" xlink:href="#mc5cfe4bf17" y="247.967494"/>
      </g>
     </g>
     <g id="text_3">
      <!-- sf -->
      <defs>
       <path d="M 37.109375 75.984375 
L 37.109375 68.5 
L 28.515625 68.5 
Q 23.6875 68.5 21.796875 66.546875 
Q 19.921875 64.59375 19.921875 59.515625 
L 19.921875 54.6875 
L 34.71875 54.6875 
L 34.71875 47.703125 
L 19.921875 47.703125 
L 19.921875 0 
L 10.890625 0 
L 10.890625 47.703125 
L 2.296875 47.703125 
L 2.296875 54.6875 
L 10.890625 54.6875 
L 10.890625 58.5 
Q 10.890625 67.625 15.140625 71.796875 
Q 19.390625 75.984375 28.609375 75.984375 
z
" id="DejaVuSans-102"/>
      </defs>
      <g transform="translate(68.742944 266.513221)rotate(-45)scale(0.1 -0.1)">
       <use xlink:href="#DejaVuSans-115"/>
       <use x="52.099609" xlink:href="#DejaVuSans-102"/>
      </g>
     </g>
    </g>
   </g>
   <g id="matplotlib.axis_2">
    <g id="ytick_1">
     <g id="line2d_4">
      <defs>
       <path d="M 0 0 
L -3.5 0 
" id="mbe046b0a93" style="stroke:#000000;stroke-width:0.8;"/>
      </defs>
      <g>
       <use style="stroke:#000000;stroke-width:0.8;" x="33.64" xlink:href="#mbe046b0a93" y="239.314426"/>
      </g>
     </g>
     <g id="text_4">
      <!-- 0.0 -->
      <defs>
       <path d="M 31.78125 66.40625 
Q 24.171875 66.40625 20.328125 58.90625 
Q 16.5 51.421875 16.5 36.375 
Q 16.5 21.390625 20.328125 13.890625 
Q 24.171875 6.390625 31.78125 6.390625 
Q 39.453125 6.390625 43.28125 13.890625 
Q 47.125 21.390625 47.125 36.375 
Q 47.125 51.421875 43.28125 58.90625 
Q 39.453125 66.40625 31.78125 66.40625 
z
M 31.78125 74.21875 
Q 44.046875 74.21875 50.515625 64.515625 
Q 56.984375 54.828125 56.984375 36.375 
Q 56.984375 17.96875 50.515625 8.265625 
Q 44.046875 -1.421875 31.78125 -1.421875 
Q 19.53125 -1.421875 13.0625 8.265625 
Q 6.59375 17.96875 6.59375 36.375 
Q 6.59375 54.828125 13.0625 64.515625 
Q 19.53125 74.21875 31.78125 74.21875 
z
" id="DejaVuSans-48"/>
       <path d="M 10.6875 12.40625 
L 21 12.40625 
L 21 0 
L 10.6875 0 
z
" id="DejaVuSans-46"/>
      </defs>
      <g transform="translate(10.736875 243.113644)scale(0.1 -0.1)">
       <use xlink:href="#DejaVuSans-48"/>
       <use x="63.623047" xlink:href="#DejaVuSans-46"/>
       <use x="95.410156" xlink:href="#DejaVuSans-48"/>
      </g>
     </g>
    </g>
    <g id="ytick_2">
     <g id="line2d_5">
      <g>
       <use style="stroke:#000000;stroke-width:0.8;" x="33.64" xlink:href="#mbe046b0a93" y="204.543683"/>
      </g>
     </g>
     <g id="text_5">
      <!-- 0.2 -->
      <defs>
       <path d="M 19.1875 8.296875 
L 53.609375 8.296875 
L 53.609375 0 
L 7.328125 0 
L 7.328125 8.296875 
Q 12.9375 14.109375 22.625 23.890625 
Q 32.328125 33.6875 34.8125 36.53125 
Q 39.546875 41.84375 41.421875 45.53125 
Q 43.3125 49.21875 43.3125 52.78125 
Q 43.3125 58.59375 39.234375 62.25 
Q 35.15625 65.921875 28.609375 65.921875 
Q 23.96875 65.921875 18.8125 64.3125 
Q 13.671875 62.703125 7.8125 59.421875 
L 7.8125 69.390625 
Q 13.765625 71.78125 18.9375 73 
Q 24.125 74.21875 28.421875 74.21875 
Q 39.75 74.21875 46.484375 68.546875 
Q 53.21875 62.890625 53.21875 53.421875 
Q 53.21875 48.921875 51.53125 44.890625 
Q 49.859375 40.875 45.40625 35.40625 
Q 44.1875 33.984375 37.640625 27.21875 
Q 31.109375 20.453125 19.1875 8.296875 
z
" id="DejaVuSans-50"/>
      </defs>
      <g transform="translate(10.736875 208.342902)scale(0.1 -0.1)">
       <use xlink:href="#DejaVuSans-48"/>
       <use x="63.623047" xlink:href="#DejaVuSans-46"/>
       <use x="95.410156" xlink:href="#DejaVuSans-50"/>
      </g>
     </g>
    </g>
    <g id="ytick_3">
     <g id="line2d_6">
      <g>
       <use style="stroke:#000000;stroke-width:0.8;" x="33.64" xlink:href="#mbe046b0a93" y="169.772941"/>
      </g>
     </g>
     <g id="text_6">
      <!-- 0.4 -->
      <defs>
       <path d="M 37.796875 64.3125 
L 12.890625 25.390625 
L 37.796875 25.390625 
z
M 35.203125 72.90625 
L 47.609375 72.90625 
L 47.609375 25.390625 
L 58.015625 25.390625 
L 58.015625 17.1875 
L 47.609375 17.1875 
L 47.609375 0 
L 37.796875 0 
L 37.796875 17.1875 
L 4.890625 17.1875 
L 4.890625 26.703125 
z
" id="DejaVuSans-52"/>
      </defs>
      <g transform="translate(10.736875 173.57216)scale(0.1 -0.1)">
       <use xlink:href="#DejaVuSans-48"/>
       <use x="63.623047" xlink:href="#DejaVuSans-46"/>
       <use x="95.410156" xlink:href="#DejaVuSans-52"/>
      </g>
     </g>
    </g>
    <g id="ytick_4">
     <g id="line2d_7">
      <g>
       <use style="stroke:#000000;stroke-width:0.8;" x="33.64" xlink:href="#mbe046b0a93" y="135.002199"/>
      </g>
     </g>
     <g id="text_7">
      <!-- 0.6 -->
      <defs>
       <path d="M 33.015625 40.375 
Q 26.375 40.375 22.484375 35.828125 
Q 18.609375 31.296875 18.609375 23.390625 
Q 18.609375 15.53125 22.484375 10.953125 
Q 26.375 6.390625 33.015625 6.390625 
Q 39.65625 6.390625 43.53125 10.953125 
Q 47.40625 15.53125 47.40625 23.390625 
Q 47.40625 31.296875 43.53125 35.828125 
Q 39.65625 40.375 33.015625 40.375 
z
M 52.59375 71.296875 
L 52.59375 62.3125 
Q 48.875 64.0625 45.09375 64.984375 
Q 41.3125 65.921875 37.59375 65.921875 
Q 27.828125 65.921875 22.671875 59.328125 
Q 17.53125 52.734375 16.796875 39.40625 
Q 19.671875 43.65625 24.015625 45.921875 
Q 28.375 48.1875 33.59375 48.1875 
Q 44.578125 48.1875 50.953125 41.515625 
Q 57.328125 34.859375 57.328125 23.390625 
Q 57.328125 12.15625 50.6875 5.359375 
Q 44.046875 -1.421875 33.015625 -1.421875 
Q 20.359375 -1.421875 13.671875 8.265625 
Q 6.984375 17.96875 6.984375 36.375 
Q 6.984375 53.65625 15.1875 63.9375 
Q 23.390625 74.21875 37.203125 74.21875 
Q 40.921875 74.21875 44.703125 73.484375 
Q 48.484375 72.75 52.59375 71.296875 
z
" id="DejaVuSans-54"/>
      </defs>
      <g transform="translate(10.736875 138.801418)scale(0.1 -0.1)">
       <use xlink:href="#DejaVuSans-48"/>
       <use x="63.623047" xlink:href="#DejaVuSans-46"/>
       <use x="95.410156" xlink:href="#DejaVuSans-54"/>
      </g>
     </g>
    </g>
    <g id="ytick_5">
     <g id="line2d_8">
      <g>
       <use style="stroke:#000000;stroke-width:0.8;" x="33.64" xlink:href="#mbe046b0a93" y="100.231457"/>
      </g>
     </g>
     <g id="text_8">
      <!-- 0.8 -->
      <defs>
       <path d="M 31.78125 34.625 
Q 24.75 34.625 20.71875 30.859375 
Q 16.703125 27.09375 16.703125 20.515625 
Q 16.703125 13.921875 20.71875 10.15625 
Q 24.75 6.390625 31.78125 6.390625 
Q 38.8125 6.390625 42.859375 10.171875 
Q 46.921875 13.96875 46.921875 20.515625 
Q 46.921875 27.09375 42.890625 30.859375 
Q 38.875 34.625 31.78125 34.625 
z
M 21.921875 38.8125 
Q 15.578125 40.375 12.03125 44.71875 
Q 8.5 49.078125 8.5 55.328125 
Q 8.5 64.0625 14.71875 69.140625 
Q 20.953125 74.21875 31.78125 74.21875 
Q 42.671875 74.21875 48.875 69.140625 
Q 55.078125 64.0625 55.078125 55.328125 
Q 55.078125 49.078125 51.53125 44.71875 
Q 48 40.375 41.703125 38.8125 
Q 48.828125 37.15625 52.796875 32.3125 
Q 56.78125 27.484375 56.78125 20.515625 
Q 56.78125 9.90625 50.3125 4.234375 
Q 43.84375 -1.421875 31.78125 -1.421875 
Q 19.734375 -1.421875 13.25 4.234375 
Q 6.78125 9.90625 6.78125 20.515625 
Q 6.78125 27.484375 10.78125 32.3125 
Q 14.796875 37.15625 21.921875 38.8125 
z
M 18.3125 54.390625 
Q 18.3125 48.734375 21.84375 45.5625 
Q 25.390625 42.390625 31.78125 42.390625 
Q 38.140625 42.390625 41.71875 45.5625 
Q 45.3125 48.734375 45.3125 54.390625 
Q 45.3125 60.0625 41.71875 63.234375 
Q 38.140625 66.40625 31.78125 66.40625 
Q 25.390625 66.40625 21.84375 63.234375 
Q 18.3125 60.0625 18.3125 54.390625 
z
" id="DejaVuSans-56"/>
      </defs>
      <g transform="translate(10.736875 104.030676)scale(0.1 -0.1)">
       <use xlink:href="#DejaVuSans-48"/>
       <use x="63.623047" xlink:href="#DejaVuSans-46"/>
       <use x="95.410156" xlink:href="#DejaVuSans-56"/>
      </g>
     </g>
    </g>
    <g id="ytick_6">
     <g id="line2d_9">
      <g>
       <use style="stroke:#000000;stroke-width:0.8;" x="33.64" xlink:href="#mbe046b0a93" y="65.460715"/>
      </g>
     </g>
     <g id="text_9">
      <!-- 1.0 -->
      <defs>
       <path d="M 12.40625 8.296875 
L 28.515625 8.296875 
L 28.515625 63.921875 
L 10.984375 60.40625 
L 10.984375 69.390625 
L 28.421875 72.90625 
L 38.28125 72.90625 
L 38.28125 8.296875 
L 54.390625 8.296875 
L 54.390625 0 
L 12.40625 0 
z
" id="DejaVuSans-49"/>
      </defs>
      <g transform="translate(10.736875 69.259933)scale(0.1 -0.1)">
       <use xlink:href="#DejaVuSans-49"/>
       <use x="63.623047" xlink:href="#DejaVuSans-46"/>
       <use x="95.410156" xlink:href="#DejaVuSans-48"/>
      </g>
     </g>
    </g>
   </g>
   <g id="LineCollection_1">
    <path clip-path="url(#p6a5094a2ae)" d="M 37.454545 102.769083 
L 41.269091 102.769083 
" style="fill:none;stroke:#1f77b4;stroke-width:1.5;"/>
    <path clip-path="url(#p6a5094a2ae)" d="M 52.712727 178.264123 
L 56.527273 178.264123 
" style="fill:none;stroke:#1f77b4;stroke-width:1.5;"/>
    <path clip-path="url(#p6a5094a2ae)" d="M 67.970909 102.932319 
L 71.785455 102.932319 
" style="fill:none;stroke:#1f77b4;stroke-width:1.5;"/>
   </g>
   <g id="LineCollection_2">
    <path clip-path="url(#p6a5094a2ae)" d="M 37.454545 66.253068 
L 41.269091 66.253068 
" style="fill:none;stroke:#1f77b4;stroke-width:1.5;"/>
    <path clip-path="url(#p6a5094a2ae)" d="M 52.712727 129.512082 
L 56.527273 129.512082 
" style="fill:none;stroke:#1f77b4;stroke-width:1.5;"/>
    <path clip-path="url(#p6a5094a2ae)" d="M 67.970909 68.164508 
L 71.785455 68.164508 
" style="fill:none;stroke:#1f77b4;stroke-width:1.5;"/>
   </g>
   <g id="LineCollection_3">
    <path clip-path="url(#p6a5094a2ae)" d="M 37.454545 239.314426 
L 41.269091 239.314426 
" style="fill:none;stroke:#1f77b4;stroke-width:1.5;"/>
    <path clip-path="url(#p6a5094a2ae)" d="M 52.712727 239.314426 
L 56.527273 239.314426 
" style="fill:none;stroke:#1f77b4;stroke-width:1.5;"/>
    <path clip-path="url(#p6a5094a2ae)" d="M 67.970909 239.314426 
L 71.785455 239.314426 
" style="fill:none;stroke:#1f77b4;stroke-width:1.5;"/>
   </g>
   <g id="LineCollection_4">
    <path clip-path="url(#p6a5094a2ae)" d="M 39.361818 239.314426 
L 39.361818 66.253068 
" style="fill:none;stroke:#1f77b4;stroke-width:1.5;"/>
    <path clip-path="url(#p6a5094a2ae)" d="M 54.62 239.314426 
L 54.62 129.512082 
" style="fill:none;stroke:#1f77b4;stroke-width:1.5;"/>
    <path clip-path="url(#p6a5094a2ae)" d="M 69.878182 239.314426 
L 69.878182 68.164508 
" style="fill:none;stroke:#1f77b4;stroke-width:1.5;"/>
   </g>
   <g id="patch_3">
    <path d="M 33.64 247.967494 
L 33.64 57.6 
" style="fill:none;stroke:#000000;stroke-linecap:square;stroke-linejoin:miter;stroke-width:0.8;"/>
   </g>
   <g id="patch_4">
    <path d="M 75.6 247.967494 
L 75.6 57.6 
" style="fill:none;stroke:#000000;stroke-linecap:square;stroke-linejoin:miter;stroke-width:0.8;"/>
   </g>
   <g id="patch_5">
    <path d="M 33.64 247.967494 
L 75.6 247.967494 
" style="fill:none;stroke:#000000;stroke-linecap:square;stroke-linejoin:miter;stroke-width:0.8;"/>
   </g>
   <g id="patch_6">
    <path d="M 33.64 57.6 
L 75.6 57.6 
" style="fill:none;stroke:#000000;stroke-linecap:square;stroke-linejoin:miter;stroke-width:0.8;"/>
   </g>
   <g id="text_10">
    <!-- ovlp-F -->
    <defs>
     <path d="M 30.609375 48.390625 
Q 23.390625 48.390625 19.1875 42.75 
Q 14.984375 37.109375 14.984375 27.296875 
Q 14.984375 17.484375 19.15625 11.84375 
Q 23.34375 6.203125 30.609375 6.203125 
Q 37.796875 6.203125 41.984375 11.859375 
Q 46.1875 17.53125 46.1875 27.296875 
Q 46.1875 37.015625 41.984375 42.703125 
Q 37.796875 48.390625 30.609375 48.390625 
z
M 30.609375 56 
Q 42.328125 56 49.015625 48.375 
Q 55.71875 40.765625 55.71875 27.296875 
Q 55.71875 13.875 49.015625 6.21875 
Q 42.328125 -1.421875 30.609375 -1.421875 
Q 18.84375 -1.421875 12.171875 6.21875 
Q 5.515625 13.875 5.515625 27.296875 
Q 5.515625 40.765625 12.171875 48.375 
Q 18.84375 56 30.609375 56 
z
" id="DejaVuSans-111"/>
     <path d="M 2.984375 54.6875 
L 12.5 54.6875 
L 29.59375 8.796875 
L 46.6875 54.6875 
L 56.203125 54.6875 
L 35.6875 0 
L 23.484375 0 
z
" id="DejaVuSans-118"/>
     <path d="M 18.109375 8.203125 
L 18.109375 -20.796875 
L 9.078125 -20.796875 
L 9.078125 54.6875 
L 18.109375 54.6875 
L 18.109375 46.390625 
Q 20.953125 51.265625 25.265625 53.625 
Q 29.59375 56 35.59375 56 
Q 45.5625 56 51.78125 48.09375 
Q 58.015625 40.1875 58.015625 27.296875 
Q 58.015625 14.40625 51.78125 6.484375 
Q 45.5625 -1.421875 35.59375 -1.421875 
Q 29.59375 -1.421875 25.265625 0.953125 
Q 20.953125 3.328125 18.109375 8.203125 
z
M 48.6875 27.296875 
Q 48.6875 37.203125 44.609375 42.84375 
Q 40.53125 48.484375 33.40625 48.484375 
Q 26.265625 48.484375 22.1875 42.84375 
Q 18.109375 37.203125 18.109375 27.296875 
Q 18.109375 17.390625 22.1875 11.75 
Q 26.265625 6.109375 33.40625 6.109375 
Q 40.53125 6.109375 44.609375 11.75 
Q 48.6875 17.390625 48.6875 27.296875 
z
" id="DejaVuSans-112"/>
     <path d="M 4.890625 31.390625 
L 31.203125 31.390625 
L 31.203125 23.390625 
L 4.890625 23.390625 
z
" id="DejaVuSans-45"/>
     <path d="M 9.8125 72.90625 
L 51.703125 72.90625 
L 51.703125 64.59375 
L 19.671875 64.59375 
L 19.671875 43.109375 
L 48.578125 43.109375 
L 48.578125 34.8125 
L 19.671875 34.8125 
L 19.671875 0 
L 9.8125 0 
z
" id="DejaVuSans-70"/>
    </defs>
    <g transform="translate(36.305937 51.6)scale(0.12 -0.12)">
     <use xlink:href="#DejaVuSans-111"/>
     <use x="61.181641" xlink:href="#DejaVuSans-118"/>
     <use x="120.361328" xlink:href="#DejaVuSans-108"/>
     <use x="148.144531" xlink:href="#DejaVuSans-112"/>
     <use x="211.621094" xlink:href="#DejaVuSans-45"/>
     <use x="247.705078" xlink:href="#DejaVuSans-70"/>
    </g>
   </g>
  </g>
  <g id="axes_2">
   <g id="patch_7">
    <path d="M 33.64 512.697679 
L 75.6 512.697679 
L 75.6 322.330185 
L 33.64 322.330185 
z
" style="fill:#ffffff;"/>
   </g>
   <g id="PolyCollection_4">
    <path clip-path="url(#p905e6585ed)" d="M 39.466424 504.044611 
L 39.257212 504.044611 
L 39.252405 502.296516 
L 39.248521 500.548422 
L 39.245594 498.800327 
L 39.243642 497.052233 
L 39.242668 495.304138 
L 39.24267 493.556044 
L 39.243641 491.807949 
L 39.24557 490.059855 
L 39.248437 488.31176 
L 39.252203 486.563666 
L 39.256802 484.815571 
L 39.262132 483.067476 
L 39.268047 481.319382 
L 39.274351 479.571287 
L 39.280803 477.823193 
L 39.287118 476.075098 
L 39.292981 474.327004 
L 39.298057 472.578909 
L 39.30201 470.830815 
L 39.304518 469.08272 
L 39.305289 467.334626 
L 39.30408 465.586531 
L 39.300709 463.838437 
L 39.295063 462.090342 
L 39.287111 460.342248 
L 39.276901 458.594153 
L 39.264561 456.846059 
L 39.25029 455.097964 
L 39.234348 453.34987 
L 39.217036 451.601775 
L 39.198676 449.853681 
L 39.179587 448.105586 
L 39.160065 446.357491 
L 39.140361 444.609397 
L 39.120669 442.861302 
L 39.101116 441.113208 
L 39.081763 439.365113 
L 39.062613 437.617019 
L 39.043625 435.868924 
L 39.024731 434.12083 
L 39.005855 432.372735 
L 38.986929 430.624641 
L 38.967906 428.876546 
L 38.948765 427.128452 
L 38.929512 425.380357 
L 38.91017 423.632263 
L 38.890765 421.884168 
L 38.871308 420.136074 
L 38.851773 418.387979 
L 38.832076 416.639885 
L 38.812049 414.89179 
L 38.791424 413.143696 
L 38.769815 411.395601 
L 38.746706 409.647507 
L 38.721454 407.899412 
L 38.693294 406.151317 
L 38.661362 404.403223 
L 38.624724 402.655128 
L 38.582428 400.907034 
L 38.533554 399.158939 
L 38.477274 397.410845 
L 38.412911 395.66275 
L 38.339981 393.914656 
L 38.258224 392.166561 
L 38.167609 390.418467 
L 38.068318 388.670372 
L 37.960702 386.922278 
L 37.845231 385.174183 
L 37.722436 383.426089 
L 37.59286 381.677994 
L 37.457032 379.9299 
L 37.315469 378.181805 
L 37.168723 376.433711 
L 37.017445 374.685616 
L 36.862487 372.937522 
L 36.705004 371.189427 
L 36.546559 369.441332 
L 36.38919 367.693238 
L 36.235443 365.945143 
L 36.088354 364.197049 
L 35.951371 362.448954 
L 35.828225 360.70086 
L 35.722762 358.952765 
L 35.638741 357.204671 
L 35.579623 355.456576 
L 35.548372 353.708482 
L 35.547273 351.960387 
L 35.577786 350.212293 
L 35.640448 348.464198 
L 35.734823 346.716104 
L 35.859502 344.968009 
L 36.012149 343.219915 
L 36.189597 341.47182 
L 36.387978 339.723726 
L 36.60288 337.975631 
L 36.829534 336.227537 
L 37.063008 334.479442 
L 37.298405 332.731347 
L 37.531054 330.983253 
L 41.192582 330.983253 
L 41.192582 330.983253 
L 41.425231 332.731347 
L 41.660628 334.479442 
L 41.894102 336.227537 
L 42.120757 337.975631 
L 42.335659 339.723726 
L 42.534039 341.47182 
L 42.711487 343.219915 
L 42.864134 344.968009 
L 42.988813 346.716104 
L 43.083188 348.464198 
L 43.145851 350.212293 
L 43.176364 351.960387 
L 43.175264 353.708482 
L 43.144014 355.456576 
L 43.084896 357.204671 
L 43.000874 358.952765 
L 42.895411 360.70086 
L 42.772265 362.448954 
L 42.635282 364.197049 
L 42.488193 365.945143 
L 42.334446 367.693238 
L 42.177077 369.441332 
L 42.018632 371.189427 
L 41.86115 372.937522 
L 41.706191 374.685616 
L 41.554913 376.433711 
L 41.408167 378.181805 
L 41.266605 379.9299 
L 41.130776 381.677994 
L 41.0012 383.426089 
L 40.878405 385.174183 
L 40.762934 386.922278 
L 40.655318 388.670372 
L 40.556027 390.418467 
L 40.465412 392.166561 
L 40.383655 393.914656 
L 40.310725 395.66275 
L 40.246362 397.410845 
L 40.190083 399.158939 
L 40.141208 400.907034 
L 40.098912 402.655128 
L 40.062275 404.403223 
L 40.030342 406.151317 
L 40.002183 407.899412 
L 39.976931 409.647507 
L 39.953822 411.395601 
L 39.932212 413.143696 
L 39.911587 414.89179 
L 39.89156 416.639885 
L 39.871863 418.387979 
L 39.852328 420.136074 
L 39.832871 421.884168 
L 39.813466 423.632263 
L 39.794124 425.380357 
L 39.774871 427.128452 
L 39.755731 428.876546 
L 39.736707 430.624641 
L 39.717781 432.372735 
L 39.698905 434.12083 
L 39.680011 435.868924 
L 39.661023 437.617019 
L 39.641873 439.365113 
L 39.62252 441.113208 
L 39.602967 442.861302 
L 39.583275 444.609397 
L 39.563572 446.357491 
L 39.54405 448.105586 
L 39.524961 449.853681 
L 39.5066 451.601775 
L 39.489288 453.34987 
L 39.473346 455.097964 
L 39.459076 456.846059 
L 39.446735 458.594153 
L 39.436525 460.342248 
L 39.428573 462.090342 
L 39.422927 463.838437 
L 39.419556 465.586531 
L 39.418347 467.334626 
L 39.419118 469.08272 
L 39.421626 470.830815 
L 39.425579 472.578909 
L 39.430655 474.327004 
L 39.436518 476.075098 
L 39.442834 477.823193 
L 39.449285 479.571287 
L 39.455589 481.319382 
L 39.461504 483.067476 
L 39.466834 484.815571 
L 39.471434 486.563666 
L 39.4752 488.31176 
L 39.478067 490.059855 
L 39.479996 491.807949 
L 39.480967 493.556044 
L 39.480968 495.304138 
L 39.479994 497.052233 
L 39.478042 498.800327 
L 39.475116 500.548422 
L 39.471231 502.296516 
L 39.466424 504.044611 
z
" style="fill:#1f77b4;fill-opacity:0.3;"/>
   </g>
   <g id="PolyCollection_5">
    <path clip-path="url(#p905e6585ed)" d="M 56.188184 504.044611 
L 53.051816 504.044611 
L 53.036157 502.317301 
L 53.029282 500.589992 
L 53.030954 498.862682 
L 53.040732 497.135372 
L 53.057982 495.408063 
L 53.081892 493.680753 
L 53.111492 491.953444 
L 53.145684 490.226134 
L 53.183266 488.498824 
L 53.222966 486.771515 
L 53.26347 485.044205 
L 53.303455 483.316896 
L 53.341619 481.589586 
L 53.376706 479.862276 
L 53.407532 478.134967 
L 53.433008 476.407657 
L 53.452154 474.680348 
L 53.464113 472.953038 
L 53.468166 471.225728 
L 53.463733 469.498419 
L 53.450379 467.771109 
L 53.427812 466.0438 
L 53.395886 464.31649 
L 53.354587 462.58918 
L 53.304038 460.861871 
L 53.244479 459.134561 
L 53.176269 457.407252 
L 53.099867 455.679942 
L 53.015827 453.952632 
L 52.924786 452.225323 
L 52.827452 450.498013 
L 52.724592 448.770704 
L 52.617027 447.043394 
L 52.505614 445.316084 
L 52.391244 443.588775 
L 52.274828 441.861465 
L 52.157292 440.134156 
L 52.039566 438.406846 
L 51.92258 436.679536 
L 51.807254 434.952227 
L 51.694496 433.224917 
L 51.585194 431.497608 
L 51.480206 429.770298 
L 51.380363 428.042988 
L 51.286454 426.315679 
L 51.199223 424.588369 
L 51.119364 422.86106 
L 51.04751 421.13375 
L 50.984226 419.40644 
L 50.930001 417.679131 
L 50.885239 415.951821 
L 50.85025 414.224512 
L 50.825243 412.497202 
L 50.810317 410.769892 
L 50.805455 409.042583 
L 50.810517 407.315273 
L 50.825242 405.587964 
L 50.849245 403.860654 
L 50.882016 402.133345 
L 50.922932 400.406035 
L 50.971263 398.678725 
L 51.026184 396.951416 
L 51.086791 395.224106 
L 51.152121 393.496797 
L 51.221174 391.769487 
L 51.292933 390.042177 
L 51.366393 388.314868 
L 51.440586 386.587558 
L 51.514604 384.860249 
L 51.587623 383.132939 
L 51.658927 381.405629 
L 51.727924 379.67832 
L 51.794159 377.95101 
L 51.857329 376.223701 
L 51.917282 374.496391 
L 51.97402 372.769081 
L 52.027691 371.041772 
L 52.07858 369.314462 
L 52.127094 367.587153 
L 52.173737 365.859843 
L 52.219095 364.132533 
L 52.263806 362.405224 
L 52.308537 360.677914 
L 52.353953 358.950605 
L 52.400697 357.223295 
L 52.449363 355.495985 
L 52.500473 353.768676 
L 52.554465 352.041366 
L 52.611674 350.314057 
L 52.672322 348.586747 
L 52.736515 346.859437 
L 52.804241 345.132128 
L 52.875372 343.404818 
L 52.949671 341.677509 
L 53.0268 339.950199 
L 53.106338 338.222889 
L 53.187789 336.49558 
L 53.270602 334.76827 
L 53.35419 333.040961 
L 55.88581 333.040961 
L 55.88581 333.040961 
L 55.969398 334.76827 
L 56.052211 336.49558 
L 56.133662 338.222889 
L 56.2132 339.950199 
L 56.290329 341.677509 
L 56.364628 343.404818 
L 56.435759 345.132128 
L 56.503485 346.859437 
L 56.567678 348.586747 
L 56.628326 350.314057 
L 56.685535 352.041366 
L 56.739527 353.768676 
L 56.790637 355.495985 
L 56.839303 357.223295 
L 56.886047 358.950605 
L 56.931463 360.677914 
L 56.976194 362.405224 
L 57.020905 364.132533 
L 57.066263 365.859843 
L 57.112906 367.587153 
L 57.16142 369.314462 
L 57.212309 371.041772 
L 57.26598 372.769081 
L 57.322718 374.496391 
L 57.382671 376.223701 
L 57.445841 377.95101 
L 57.512076 379.67832 
L 57.581073 381.405629 
L 57.652377 383.132939 
L 57.725396 384.860249 
L 57.799414 386.587558 
L 57.873607 388.314868 
L 57.947067 390.042177 
L 58.018826 391.769487 
L 58.087879 393.496797 
L 58.153209 395.224106 
L 58.213816 396.951416 
L 58.268737 398.678725 
L 58.317068 400.406035 
L 58.357984 402.133345 
L 58.390755 403.860654 
L 58.414758 405.587964 
L 58.429483 407.315273 
L 58.434545 409.042583 
L 58.429683 410.769892 
L 58.414757 412.497202 
L 58.38975 414.224512 
L 58.354761 415.951821 
L 58.309999 417.679131 
L 58.255774 419.40644 
L 58.19249 421.13375 
L 58.120636 422.86106 
L 58.040777 424.588369 
L 57.953546 426.315679 
L 57.859637 428.042988 
L 57.759794 429.770298 
L 57.654806 431.497608 
L 57.545504 433.224917 
L 57.432746 434.952227 
L 57.31742 436.679536 
L 57.200434 438.406846 
L 57.082708 440.134156 
L 56.965172 441.861465 
L 56.848756 443.588775 
L 56.734386 445.316084 
L 56.622973 447.043394 
L 56.515408 448.770704 
L 56.412548 450.498013 
L 56.315214 452.225323 
L 56.224173 453.952632 
L 56.140133 455.679942 
L 56.063731 457.407252 
L 55.995521 459.134561 
L 55.935962 460.861871 
L 55.885413 462.58918 
L 55.844114 464.31649 
L 55.812188 466.0438 
L 55.789621 467.771109 
L 55.776267 469.498419 
L 55.771834 471.225728 
L 55.775887 472.953038 
L 55.787846 474.680348 
L 55.806992 476.407657 
L 55.832468 478.134967 
L 55.863294 479.862276 
L 55.898381 481.589586 
L 55.936545 483.316896 
L 55.97653 485.044205 
L 56.017034 486.771515 
L 56.056734 488.498824 
L 56.094316 490.226134 
L 56.128508 491.953444 
L 56.158108 493.680753 
L 56.182018 495.408063 
L 56.199268 497.135372 
L 56.209046 498.862682 
L 56.210718 500.589992 
L 56.203843 502.317301 
L 56.188184 504.044611 
z
" style="fill:#1f77b4;fill-opacity:0.3;"/>
   </g>
   <g id="PolyCollection_6">
    <path clip-path="url(#p905e6585ed)" d="M 70.032155 504.044611 
L 69.724208 504.044611 
L 69.725175 502.315824 
L 69.728292 500.587037 
L 69.733374 498.85825 
L 69.74014 497.129463 
L 69.748225 495.400675 
L 69.757195 493.671888 
L 69.766576 491.943101 
L 69.775868 490.214314 
L 69.784572 488.485527 
L 69.792206 486.75674 
L 69.798322 485.027953 
L 69.802521 483.299166 
L 69.804461 481.570379 
L 69.803871 479.841592 
L 69.800557 478.112805 
L 69.79441 476.384018 
L 69.785413 474.655231 
L 69.773653 472.926444 
L 69.75932 471.197657 
L 69.742718 469.46887 
L 69.72426 467.740083 
L 69.704464 466.011296 
L 69.683941 464.282509 
L 69.663377 462.553722 
L 69.643502 460.824935 
L 69.625059 459.096147 
L 69.608764 457.36736 
L 69.595266 455.638573 
L 69.585103 453.909786 
L 69.578669 452.180999 
L 69.576183 450.452212 
L 69.577667 448.723425 
L 69.582942 446.994638 
L 69.591629 445.265851 
L 69.603164 443.537064 
L 69.616827 441.808277 
L 69.631773 440.07949 
L 69.647073 438.350703 
L 69.661754 436.621916 
L 69.67484 434.893129 
L 69.685389 433.164342 
L 69.692523 431.435555 
L 69.695457 429.706768 
L 69.693518 427.977981 
L 69.686155 426.249194 
L 69.672949 424.520406 
L 69.653617 422.791619 
L 69.628004 421.062832 
L 69.596085 419.334045 
L 69.557952 417.605258 
L 69.513801 415.876471 
L 69.46392 414.147684 
L 69.408674 412.418897 
L 69.348481 410.69011 
L 69.283799 408.961323 
L 69.215104 407.232536 
L 69.14287 405.503749 
L 69.06756 403.774962 
L 68.989606 402.046175 
L 68.909408 400.317388 
L 68.827326 398.588601 
L 68.743683 396.859814 
L 68.658762 395.131027 
L 68.572807 393.40224 
L 68.486027 391.673453 
L 68.398585 389.944665 
L 68.310593 388.215878 
L 68.222096 386.487091 
L 68.133051 384.758304 
L 68.043315 383.029517 
L 67.952623 381.30073 
L 67.860584 379.571943 
L 67.76669 377.843156 
L 67.670334 376.114369 
L 67.570861 374.385582 
L 67.467634 372.656795 
L 67.360121 370.928008 
L 67.248 369.199221 
L 67.131269 367.470434 
L 67.01036 365.741647 
L 66.886233 364.01286 
L 66.760452 362.284073 
L 66.635214 360.555286 
L 66.513345 358.826499 
L 66.398235 357.097712 
L 66.293721 355.368924 
L 66.203921 353.640137 
L 66.133026 351.91135 
L 66.085061 350.182563 
L 66.063636 348.453776 
L 66.071705 346.724989 
L 66.111342 344.996202 
L 66.183576 343.267415 
L 66.288279 341.538628 
L 66.424122 339.809841 
L 66.588617 338.081054 
L 66.778224 336.352267 
L 66.988532 334.62348 
L 67.214486 332.894693 
L 72.541878 332.894693 
L 72.541878 332.894693 
L 72.767831 334.62348 
L 72.978139 336.352267 
L 73.167747 338.081054 
L 73.332242 339.809841 
L 73.468085 341.538628 
L 73.572787 343.267415 
L 73.645022 344.996202 
L 73.684659 346.724989 
L 73.692727 348.453776 
L 73.671303 350.182563 
L 73.623338 351.91135 
L 73.552442 353.640137 
L 73.462642 355.368924 
L 73.358128 357.097712 
L 73.243018 358.826499 
L 73.12115 360.555286 
L 72.995912 362.284073 
L 72.87013 364.01286 
L 72.746004 365.741647 
L 72.625094 367.470434 
L 72.508364 369.199221 
L 72.396242 370.928008 
L 72.288729 372.656795 
L 72.185503 374.385582 
L 72.08603 376.114369 
L 71.989674 377.843156 
L 71.89578 379.571943 
L 71.803741 381.30073 
L 71.713049 383.029517 
L 71.623313 384.758304 
L 71.534268 386.487091 
L 71.445771 388.215878 
L 71.357779 389.944665 
L 71.270337 391.673453 
L 71.183557 393.40224 
L 71.097602 395.131027 
L 71.01268 396.859814 
L 70.929037 398.588601 
L 70.846956 400.317388 
L 70.766758 402.046175 
L 70.688804 403.774962 
L 70.613493 405.503749 
L 70.54126 407.232536 
L 70.472564 408.961323 
L 70.407883 410.69011 
L 70.34769 412.418897 
L 70.292444 414.147684 
L 70.242563 415.876471 
L 70.198412 417.605258 
L 70.160278 419.334045 
L 70.12836 421.062832 
L 70.102747 422.791619 
L 70.083414 424.520406 
L 70.070209 426.249194 
L 70.062845 427.977981 
L 70.060906 429.706768 
L 70.063841 431.435555 
L 70.070975 433.164342 
L 70.081523 434.893129 
L 70.094609 436.621916 
L 70.109291 438.350703 
L 70.124591 440.07949 
L 70.139537 441.808277 
L 70.153199 443.537064 
L 70.164735 445.265851 
L 70.173421 446.994638 
L 70.178696 448.723425 
L 70.180181 450.452212 
L 70.177694 452.180999 
L 70.17126 453.909786 
L 70.161097 455.638573 
L 70.147599 457.36736 
L 70.131305 459.096147 
L 70.112862 460.824935 
L 70.092987 462.553722 
L 70.072423 464.282509 
L 70.0519 466.011296 
L 70.032104 467.740083 
L 70.013646 469.46887 
L 69.997044 471.197657 
L 69.982711 472.926444 
L 69.97095 474.655231 
L 69.961954 476.384018 
L 69.955807 478.112805 
L 69.952492 479.841592 
L 69.951903 481.570379 
L 69.953843 483.299166 
L 69.958041 485.027953 
L 69.964158 486.75674 
L 69.971792 488.485527 
L 69.980496 490.214314 
L 69.989788 491.943101 
L 69.999169 493.671888 
L 70.008139 495.400675 
L 70.016223 497.129463 
L 70.02299 498.85825 
L 70.028072 500.587037 
L 70.031188 502.315824 
L 70.032155 504.044611 
z
" style="fill:#1f77b4;fill-opacity:0.3;"/>
   </g>
   <g id="matplotlib.axis_3">
    <g id="xtick_4">
     <g id="line2d_10">
      <g>
       <use style="stroke:#000000;stroke-width:0.8;" x="39.361818" xlink:href="#mc5cfe4bf17" y="512.697679"/>
      </g>
     </g>
     <g id="text_11">
      <!-- seqRecur -->
      <g transform="translate(24.783265 558.130037)rotate(-45)scale(0.1 -0.1)">
       <use xlink:href="#DejaVuSans-115"/>
       <use x="52.099609" xlink:href="#DejaVuSans-101"/>
       <use x="113.623047" xlink:href="#DejaVuSans-113"/>
       <use x="177.099609" xlink:href="#DejaVuSans-82"/>
       <use x="246.519531" xlink:href="#DejaVuSans-101"/>
       <use x="308.042969" xlink:href="#DejaVuSans-99"/>
       <use x="363.023438" xlink:href="#DejaVuSans-117"/>
       <use x="426.402344" xlink:href="#DejaVuSans-114"/>
      </g>
     </g>
    </g>
    <g id="xtick_5">
     <g id="line2d_11">
      <g>
       <use style="stroke:#000000;stroke-width:0.8;" x="54.62" xlink:href="#mc5cfe4bf17" y="512.697679"/>
      </g>
     </g>
     <g id="text_12">
      <!-- highlighter -->
      <g transform="translate(37.398635 563.41566)rotate(-45)scale(0.1 -0.1)">
       <use xlink:href="#DejaVuSans-104"/>
       <use x="63.378906" xlink:href="#DejaVuSans-105"/>
       <use x="91.162109" xlink:href="#DejaVuSans-103"/>
       <use x="154.638672" xlink:href="#DejaVuSans-104"/>
       <use x="218.017578" xlink:href="#DejaVuSans-108"/>
       <use x="245.800781" xlink:href="#DejaVuSans-105"/>
       <use x="273.583984" xlink:href="#DejaVuSans-103"/>
       <use x="337.060547" xlink:href="#DejaVuSans-104"/>
       <use x="400.439453" xlink:href="#DejaVuSans-116"/>
       <use x="439.648438" xlink:href="#DejaVuSans-101"/>
       <use x="501.171875" xlink:href="#DejaVuSans-114"/>
      </g>
     </g>
    </g>
    <g id="xtick_6">
     <g id="line2d_12">
      <g>
       <use style="stroke:#000000;stroke-width:0.8;" x="69.878182" xlink:href="#mc5cfe4bf17" y="512.697679"/>
      </g>
     </g>
     <g id="text_13">
      <!-- sf -->
      <g transform="translate(68.742944 531.243407)rotate(-45)scale(0.1 -0.1)">
       <use xlink:href="#DejaVuSans-115"/>
       <use x="52.099609" xlink:href="#DejaVuSans-102"/>
      </g>
     </g>
    </g>
   </g>
   <g id="matplotlib.axis_4">
    <g id="ytick_7">
     <g id="line2d_13">
      <g>
       <use style="stroke:#000000;stroke-width:0.8;" x="33.64" xlink:href="#mbe046b0a93" y="504.044611"/>
      </g>
     </g>
     <g id="text_14">
      <!-- 0.0 -->
      <g transform="translate(10.736875 507.843829)scale(0.1 -0.1)">
       <use xlink:href="#DejaVuSans-48"/>
       <use x="63.623047" xlink:href="#DejaVuSans-46"/>
       <use x="95.410156" xlink:href="#DejaVuSans-48"/>
      </g>
     </g>
    </g>
    <g id="ytick_8">
     <g id="line2d_14">
      <g>
       <use style="stroke:#000000;stroke-width:0.8;" x="33.64" xlink:href="#mbe046b0a93" y="469.273869"/>
      </g>
     </g>
     <g id="text_15">
      <!-- 0.2 -->
      <g transform="translate(10.736875 473.073087)scale(0.1 -0.1)">
       <use xlink:href="#DejaVuSans-48"/>
       <use x="63.623047" xlink:href="#DejaVuSans-46"/>
       <use x="95.410156" xlink:href="#DejaVuSans-50"/>
      </g>
     </g>
    </g>
    <g id="ytick_9">
     <g id="line2d_15">
      <g>
       <use style="stroke:#000000;stroke-width:0.8;" x="33.64" xlink:href="#mbe046b0a93" y="434.503126"/>
      </g>
     </g>
     <g id="text_16">
      <!-- 0.4 -->
      <g transform="translate(10.736875 438.302345)scale(0.1 -0.1)">
       <use xlink:href="#DejaVuSans-48"/>
       <use x="63.623047" xlink:href="#DejaVuSans-46"/>
       <use x="95.410156" xlink:href="#DejaVuSans-52"/>
      </g>
     </g>
    </g>
    <g id="ytick_10">
     <g id="line2d_16">
      <g>
       <use style="stroke:#000000;stroke-width:0.8;" x="33.64" xlink:href="#mbe046b0a93" y="399.732384"/>
      </g>
     </g>
     <g id="text_17">
      <!-- 0.6 -->
      <g transform="translate(10.736875 403.531603)scale(0.1 -0.1)">
       <use xlink:href="#DejaVuSans-48"/>
       <use x="63.623047" xlink:href="#DejaVuSans-46"/>
       <use x="95.410156" xlink:href="#DejaVuSans-54"/>
      </g>
     </g>
    </g>
    <g id="ytick_11">
     <g id="line2d_17">
      <g>
       <use style="stroke:#000000;stroke-width:0.8;" x="33.64" xlink:href="#mbe046b0a93" y="364.961642"/>
      </g>
     </g>
     <g id="text_18">
      <!-- 0.8 -->
      <g transform="translate(10.736875 368.760861)scale(0.1 -0.1)">
       <use xlink:href="#DejaVuSans-48"/>
       <use x="63.623047" xlink:href="#DejaVuSans-46"/>
       <use x="95.410156" xlink:href="#DejaVuSans-56"/>
      </g>
     </g>
    </g>
    <g id="ytick_12">
     <g id="line2d_18">
      <g>
       <use style="stroke:#000000;stroke-width:0.8;" x="33.64" xlink:href="#mbe046b0a93" y="330.1909"/>
      </g>
     </g>
     <g id="text_19">
      <!-- 1.0 -->
      <g transform="translate(10.736875 333.990119)scale(0.1 -0.1)">
       <use xlink:href="#DejaVuSans-49"/>
       <use x="63.623047" xlink:href="#DejaVuSans-46"/>
       <use x="95.410156" xlink:href="#DejaVuSans-48"/>
      </g>
     </g>
    </g>
   </g>
   <g id="LineCollection_5">
    <path clip-path="url(#p905e6585ed)" d="M 37.454545 366.766747 
L 41.269091 366.766747 
" style="fill:none;stroke:#1f77b4;stroke-width:1.5;"/>
    <path clip-path="url(#p905e6585ed)" d="M 52.712727 416.16579 
L 56.527273 416.16579 
" style="fill:none;stroke:#1f77b4;stroke-width:1.5;"/>
    <path clip-path="url(#p905e6585ed)" d="M 67.970909 365.956541 
L 71.785455 365.956541 
" style="fill:none;stroke:#1f77b4;stroke-width:1.5;"/>
   </g>
   <g id="LineCollection_6">
    <path clip-path="url(#p905e6585ed)" d="M 37.454545 330.983253 
L 41.269091 330.983253 
" style="fill:none;stroke:#1f77b4;stroke-width:1.5;"/>
    <path clip-path="url(#p905e6585ed)" d="M 52.712727 333.040961 
L 56.527273 333.040961 
" style="fill:none;stroke:#1f77b4;stroke-width:1.5;"/>
    <path clip-path="url(#p905e6585ed)" d="M 67.970909 332.894693 
L 71.785455 332.894693 
" style="fill:none;stroke:#1f77b4;stroke-width:1.5;"/>
   </g>
   <g id="LineCollection_7">
    <path clip-path="url(#p905e6585ed)" d="M 37.454545 504.044611 
L 41.269091 504.044611 
" style="fill:none;stroke:#1f77b4;stroke-width:1.5;"/>
    <path clip-path="url(#p905e6585ed)" d="M 52.712727 504.044611 
L 56.527273 504.044611 
" style="fill:none;stroke:#1f77b4;stroke-width:1.5;"/>
    <path clip-path="url(#p905e6585ed)" d="M 67.970909 504.044611 
L 71.785455 504.044611 
" style="fill:none;stroke:#1f77b4;stroke-width:1.5;"/>
   </g>
   <g id="LineCollection_8">
    <path clip-path="url(#p905e6585ed)" d="M 39.361818 504.044611 
L 39.361818 330.983253 
" style="fill:none;stroke:#1f77b4;stroke-width:1.5;"/>
    <path clip-path="url(#p905e6585ed)" d="M 54.62 504.044611 
L 54.62 333.040961 
" style="fill:none;stroke:#1f77b4;stroke-width:1.5;"/>
    <path clip-path="url(#p905e6585ed)" d="M 69.878182 504.044611 
L 69.878182 332.894693 
" style="fill:none;stroke:#1f77b4;stroke-width:1.5;"/>
   </g>
   <g id="patch_8">
    <path d="M 33.64 512.697679 
L 33.64 322.330185 
" style="fill:none;stroke:#000000;stroke-linecap:square;stroke-linejoin:miter;stroke-width:0.8;"/>
   </g>
   <g id="patch_9">
    <path d="M 75.6 512.697679 
L 75.6 322.330185 
" style="fill:none;stroke:#000000;stroke-linecap:square;stroke-linejoin:miter;stroke-width:0.8;"/>
   </g>
   <g id="patch_10">
    <path d="M 33.64 512.697679 
L 75.6 512.697679 
" style="fill:none;stroke:#000000;stroke-linecap:square;stroke-linejoin:miter;stroke-width:0.8;"/>
   </g>
   <g id="patch_11">
    <path d="M 33.64 322.330185 
L 75.6 322.330185 
" style="fill:none;stroke:#000000;stroke-linecap:square;stroke-linejoin:miter;stroke-width:0.8;"/>
   </g>
   <g id="text_20">
    <!-- sovl-F -->
    <g transform="translate(36.989375 316.330185)scale(0.12 -0.12)">
     <use xlink:href="#DejaVuSans-115"/>
     <use x="52.099609" xlink:href="#DejaVuSans-111"/>
     <use x="113.28125" xlink:href="#DejaVuSans-118"/>
     <use x="172.460938" xlink:href="#DejaVuSans-108"/>
     <use x="200.244141" xlink:href="#DejaVuSans-45"/>
     <use x="236.328125" xlink:href="#DejaVuSans-70"/>
    </g>
   </g>
  </g>
 </g>
 <defs>
  <clipPath id="p6a5094a2ae">
   <rect height="190.367494" width="41.96" x="33.64" y="57.6"/>
  </clipPath>
  <clipPath id="p905e6585ed">
   <rect height="190.367494" width="41.96" x="33.64" y="322.330185"/>
  </clipPath>
 </defs>
</svg>
