<?xml version="1.0" encoding="utf-8" standalone="no"?>
<!DOCTYPE svg PUBLIC "-//W3C//DTD SVG 1.1//EN"
  "http://www.w3.org/Graphics/SVG/1.1/DTD/svg11.dtd">
<!-- Created with matplotlib (https://matplotlib.org/) -->
<svg height="576pt" version="1.1" viewBox="0 0 57.6 576" width="57.6pt" xmlns="http://www.w3.org/2000/svg" xmlns:xlink="http://www.w3.org/1999/xlink">
 <defs>
  <style type="text/css">
*{stroke-linecap:butt;stroke-linejoin:round;white-space:pre;}
  </style>
 </defs>
 <g id="figure_1">
  <g id="patch_1">
   <path d="M 0 576 
L 57.6 576 
L 57.6 0 
L 0 0 
z
" style="fill:#ffffff;"/>
  </g>
  <g id="axes_1">
   <g id="patch_2">
    <path d="M 7.2 264.436364 
L 51.84 264.436364 
L 51.84 57.6 
L 7.2 57.6 
z
" style="fill:#ffffff;"/>
   </g>
   <g id="PolyCollection_1">
    <path clip-path="url(#p6c6f7dafdf)" d="M 16.160651 157.506223 
L 15.824804 157.506223 
L 15.823033 156.592036 
L 15.822519 155.677848 
L 15.822847 154.763661 
L 15.823477 153.849473 
L 15.823758 152.935285 
L 15.822962 152.021098 
L 15.820315 151.10691 
L 15.815039 150.192723 
L 15.806393 149.278535 
L 15.79372 148.364348 
L 15.776485 147.45016 
L 15.754316 146.535972 
L 15.727034 145.621785 
L 15.694673 144.707597 
L 15.657493 143.79341 
L 15.615976 142.879222 
L 15.570808 141.965035 
L 15.522852 141.050847 
L 15.473099 140.136659 
L 15.422621 139.222472 
L 15.372501 138.308284 
L 15.323776 137.394097 
L 15.277364 136.479909 
L 15.234015 135.565721 
L 15.194259 134.651534 
L 15.158377 133.737346 
L 15.126389 132.823159 
L 15.098055 131.908971 
L 15.072903 130.994784 
L 15.050264 130.080596 
L 15.029328 129.166408 
L 15.009204 128.252221 
L 14.98898 127.338033 
L 14.967788 126.423846 
L 14.944854 125.509658 
L 14.919546 124.59547 
L 14.8914 123.681283 
L 14.860135 122.767095 
L 14.825657 121.852908 
L 14.788038 120.93872 
L 14.747493 120.024533 
L 14.704338 119.110345 
L 14.65895 118.196157 
L 14.61171 117.28197 
L 14.562961 116.367782 
L 14.512956 115.453595 
L 14.461816 114.539407 
L 14.409498 113.62522 
L 14.355773 112.711032 
L 14.300212 111.796844 
L 14.24219 110.882657 
L 14.180896 109.968469 
L 14.115362 109.054282 
L 14.044492 108.140094 
L 13.967105 107.225906 
L 13.881986 106.311719 
L 13.787926 105.397531 
L 13.683774 104.483344 
L 13.568484 103.569156 
L 13.441154 102.654969 
L 13.301062 101.740781 
L 13.147705 100.826593 
L 12.980821 99.912406 
L 12.800419 98.998218 
L 12.606803 98.084031 
L 12.400592 97.169843 
L 12.182743 96.255655 
L 11.954569 95.341468 
L 11.717753 94.42728 
L 11.474362 93.513093 
L 11.226851 92.598905 
L 10.978056 91.684718 
L 10.731182 90.77053 
L 10.489771 89.856342 
L 10.257659 88.942155 
L 10.038914 88.027967 
L 9.837757 87.11378 
L 9.658468 86.199592 
L 9.505278 85.285405 
L 9.382238 84.371217 
L 9.293094 83.457029 
L 9.241141 82.542842 
L 9.229091 81.628654 
L 9.25894 80.714467 
L 9.331857 79.800279 
L 9.44809 78.886091 
L 9.606905 77.971904 
L 9.806565 77.057716 
L 10.044346 76.143529 
L 10.316594 75.229341 
L 10.618832 74.315154 
L 10.945892 73.400966 
L 11.292099 72.486778 
L 11.651456 71.572591 
L 12.017857 70.658403 
L 12.385298 69.744216 
L 12.748072 68.830028 
L 13.100947 67.91584 
L 13.439317 67.001653 
L 18.546137 67.001653 
L 18.546137 67.001653 
L 18.884508 67.91584 
L 19.237383 68.830028 
L 19.600156 69.744216 
L 19.967597 70.658403 
L 20.333999 71.572591 
L 20.693356 72.486778 
L 21.039562 73.400966 
L 21.366623 74.315154 
L 21.66886 75.229341 
L 21.941109 76.143529 
L 22.17889 77.057716 
L 22.37855 77.971904 
L 22.537365 78.886091 
L 22.653597 79.800279 
L 22.726514 80.714467 
L 22.756364 81.628654 
L 22.744314 82.542842 
L 22.692361 83.457029 
L 22.603216 84.371217 
L 22.480177 85.285405 
L 22.326986 86.199592 
L 22.147698 87.11378 
L 21.946541 88.027967 
L 21.727795 88.942155 
L 21.495683 89.856342 
L 21.254273 90.77053 
L 21.007399 91.684718 
L 20.758604 92.598905 
L 20.511092 93.513093 
L 20.267702 94.42728 
L 20.030886 95.341468 
L 19.802711 96.255655 
L 19.584863 97.169843 
L 19.378652 98.084031 
L 19.185036 98.998218 
L 19.004634 99.912406 
L 18.83775 100.826593 
L 18.684392 101.740781 
L 18.544301 102.654969 
L 18.41697 103.569156 
L 18.301681 104.483344 
L 18.197529 105.397531 
L 18.103468 106.311719 
L 18.018349 107.225906 
L 17.940963 108.140094 
L 17.870093 109.054282 
L 17.804558 109.968469 
L 17.743265 110.882657 
L 17.685243 111.796844 
L 17.629682 112.711032 
L 17.575957 113.62522 
L 17.523639 114.539407 
L 17.472499 115.453595 
L 17.422493 116.367782 
L 17.373744 117.28197 
L 17.326505 118.196157 
L 17.281116 119.110345 
L 17.237962 120.024533 
L 17.197417 120.93872 
L 17.159798 121.852908 
L 17.125319 122.767095 
L 17.094055 123.681283 
L 17.065908 124.59547 
L 17.0406 125.509658 
L 17.017667 126.423846 
L 16.996475 127.338033 
L 16.976251 128.252221 
L 16.956127 129.166408 
L 16.935191 130.080596 
L 16.912552 130.994784 
L 16.887399 131.908971 
L 16.859065 132.823159 
L 16.827077 133.737346 
L 16.791196 134.651534 
L 16.75144 135.565721 
L 16.708091 136.479909 
L 16.661679 137.394097 
L 16.612953 138.308284 
L 16.562834 139.222472 
L 16.512355 140.136659 
L 16.462603 141.050847 
L 16.414646 141.965035 
L 16.369478 142.879222 
L 16.327961 143.79341 
L 16.290781 144.707597 
L 16.258421 145.621785 
L 16.231139 146.535972 
L 16.20897 147.45016 
L 16.191735 148.364348 
L 16.179062 149.278535 
L 16.170416 150.192723 
L 16.16514 151.10691 
L 16.162493 152.021098 
L 16.161696 152.935285 
L 16.161978 153.849473 
L 16.162607 154.763661 
L 16.162936 155.677848 
L 16.162422 156.592036 
L 16.160651 157.506223 
z
" style="fill:#1f77b4;fill-opacity:0.3;"/>
   </g>
   <g id="PolyCollection_2">
    <path clip-path="url(#p6c6f7dafdf)" d="M 43.222779 255.034711 
L 42.871766 255.034711 
L 42.874593 253.494596 
L 42.882803 251.954481 
L 42.895628 250.414367 
L 42.911921 248.874252 
L 42.930323 247.334138 
L 42.949451 245.794023 
L 42.968063 244.253908 
L 42.985176 242.713794 
L 43.000134 241.173679 
L 43.012603 239.633564 
L 43.022527 238.09345 
L 43.030051 236.553335 
L 43.035431 235.01322 
L 43.038941 233.473106 
L 43.040799 231.932991 
L 43.0411 230.392877 
L 43.039766 228.852762 
L 43.036507 227.312647 
L 43.0308 225.772533 
L 43.021884 224.232418 
L 43.008776 222.692303 
L 42.990324 221.152189 
L 42.965288 219.612074 
L 42.932464 218.071959 
L 42.890823 216.531845 
L 42.839652 214.99173 
L 42.778663 213.451615 
L 42.708033 211.911501 
L 42.628357 210.371386 
L 42.540476 208.831272 
L 42.445223 207.291157 
L 42.343088 205.751042 
L 42.23388 204.210928 
L 42.116442 202.670813 
L 41.988487 201.130698 
L 41.846601 199.590584 
L 41.686434 198.050469 
L 41.503072 196.510354 
L 41.29155 194.97024 
L 41.047446 193.430125 
L 40.767508 191.890011 
L 40.450235 190.349896 
L 40.096357 188.809781 
L 39.709184 187.269667 
L 39.294772 185.729552 
L 38.861892 184.189437 
L 38.421782 182.649323 
L 37.987686 181.109208 
L 37.574189 179.569093 
L 37.196378 178.028979 
L 36.868889 176.488864 
L 36.604892 174.94875 
L 36.415106 173.408635 
L 36.306907 171.86852 
L 36.283636 170.328406 
L 36.34417 168.788291 
L 36.482826 167.248176 
L 36.689664 165.708062 
L 36.95119 164.167947 
L 37.25144 162.627832 
L 37.573376 161.087718 
L 37.900419 159.547603 
L 38.217974 158.007488 
L 38.514703 156.467374 
L 38.783389 154.927259 
L 39.021259 153.387145 
L 39.229731 151.84703 
L 39.413645 150.306915 
L 39.580133 148.766801 
L 39.737319 147.226686 
L 39.893061 145.686571 
L 40.053916 144.146457 
L 40.224433 142.606342 
L 40.406848 141.066227 
L 40.60113 139.526113 
L 40.805319 137.985998 
L 41.016052 136.445884 
L 41.229148 134.905769 
L 41.440167 133.365654 
L 41.644866 131.82554 
L 41.839506 130.285425 
L 42.021027 128.74531 
L 42.187095 127.205196 
L 42.336066 125.665081 
L 42.466917 124.124966 
L 42.579164 122.584852 
L 42.672797 121.044737 
L 42.74825 119.504623 
L 42.806378 117.964508 
L 42.848458 116.424393 
L 42.876176 114.884279 
L 42.891608 113.344164 
L 42.897162 111.804049 
L 42.895484 110.263935 
L 42.889326 108.72382 
L 42.881374 107.183705 
L 42.874061 105.643591 
L 42.869384 104.103476 
L 42.868752 102.563361 
L 43.225794 102.563361 
L 43.225794 102.563361 
L 43.225162 104.103476 
L 43.220485 105.643591 
L 43.213172 107.183705 
L 43.20522 108.72382 
L 43.199061 110.263935 
L 43.197384 111.804049 
L 43.202937 113.344164 
L 43.21837 114.884279 
L 43.246088 116.424393 
L 43.288167 117.964508 
L 43.346295 119.504623 
L 43.421748 121.044737 
L 43.515382 122.584852 
L 43.627628 124.124966 
L 43.758479 125.665081 
L 43.907451 127.205196 
L 44.073518 128.74531 
L 44.25504 130.285425 
L 44.44968 131.82554 
L 44.654378 133.365654 
L 44.865398 134.905769 
L 45.078494 136.445884 
L 45.289227 137.985998 
L 45.493416 139.526113 
L 45.687697 141.066227 
L 45.870112 142.606342 
L 46.04063 144.146457 
L 46.201484 145.686571 
L 46.357227 147.226686 
L 46.514413 148.766801 
L 46.6809 150.306915 
L 46.864814 151.84703 
L 47.073286 153.387145 
L 47.311157 154.927259 
L 47.579843 156.467374 
L 47.876571 158.007488 
L 48.194126 159.547603 
L 48.52117 161.087718 
L 48.843105 162.627832 
L 49.143356 164.167947 
L 49.404881 165.708062 
L 49.611719 167.248176 
L 49.750376 168.788291 
L 49.810909 170.328406 
L 49.787639 171.86852 
L 49.67944 173.408635 
L 49.489653 174.94875 
L 49.225657 176.488864 
L 48.898168 178.028979 
L 48.520357 179.569093 
L 48.106859 181.109208 
L 47.672764 182.649323 
L 47.232654 184.189437 
L 46.799773 185.729552 
L 46.385361 187.269667 
L 45.998188 188.809781 
L 45.64431 190.349896 
L 45.327037 191.890011 
L 45.0471 193.430125 
L 44.802996 194.97024 
L 44.591473 196.510354 
L 44.408112 198.050469 
L 44.247945 199.590584 
L 44.106059 201.130698 
L 43.978103 202.670813 
L 43.860665 204.210928 
L 43.751457 205.751042 
L 43.649322 207.291157 
L 43.55407 208.831272 
L 43.466189 210.371386 
L 43.386512 211.911501 
L 43.315883 213.451615 
L 43.254893 214.99173 
L 43.203722 216.531845 
L 43.162082 218.071959 
L 43.129258 219.612074 
L 43.104222 221.152189 
L 43.085769 222.692303 
L 43.072661 224.232418 
L 43.063745 225.772533 
L 43.058038 227.312647 
L 43.054779 228.852762 
L 43.053445 230.392877 
L 43.053746 231.932991 
L 43.055605 233.473106 
L 43.059115 235.01322 
L 43.064494 236.553335 
L 43.072019 238.09345 
L 43.081943 239.633564 
L 43.094411 241.173679 
L 43.109369 242.713794 
L 43.126483 244.253908 
L 43.145094 245.794023 
L 43.164222 247.334138 
L 43.182624 248.874252 
L 43.198917 250.414367 
L 43.211742 251.954481 
L 43.219953 253.494596 
L 43.222779 255.034711 
z
" style="fill:#1f77b4;fill-opacity:0.3;"/>
   </g>
   <g id="matplotlib.axis_1">
    <g id="xtick_1">
     <g id="line2d_1">
      <defs>
       <path d="M 0 0 
L 0 3.5 
" id="md372fa1e7f" style="stroke:#000000;stroke-width:0.8;"/>
      </defs>
      <g>
       <use style="stroke:#000000;stroke-width:0.8;" x="15.992727" xlink:href="#md372fa1e7f" y="264.436364"/>
      </g>
     </g>
     <g id="text_1">
      <!-- seqRecur -->
      <defs>
       <path d="M 44.28125 53.078125 
L 44.28125 44.578125 
Q 40.484375 46.53125 36.375 47.5 
Q 32.28125 48.484375 27.875 48.484375 
Q 21.1875 48.484375 17.84375 46.4375 
Q 14.5 44.390625 14.5 40.28125 
Q 14.5 37.15625 16.890625 35.375 
Q 19.28125 33.59375 26.515625 31.984375 
L 29.59375 31.296875 
Q 39.15625 29.25 43.1875 25.515625 
Q 47.21875 21.78125 47.21875 15.09375 
Q 47.21875 7.46875 41.1875 3.015625 
Q 35.15625 -1.421875 24.609375 -1.421875 
Q 20.21875 -1.421875 15.453125 -0.5625 
Q 10.6875 0.296875 5.421875 2 
L 5.421875 11.28125 
Q 10.40625 8.6875 15.234375 7.390625 
Q 20.0625 6.109375 24.8125 6.109375 
Q 31.15625 6.109375 34.5625 8.28125 
Q 37.984375 10.453125 37.984375 14.40625 
Q 37.984375 18.0625 35.515625 20.015625 
Q 33.0625 21.96875 24.703125 23.78125 
L 21.578125 24.515625 
Q 13.234375 26.265625 9.515625 29.90625 
Q 5.8125 33.546875 5.8125 39.890625 
Q 5.8125 47.609375 11.28125 51.796875 
Q 16.75 56 26.8125 56 
Q 31.78125 56 36.171875 55.265625 
Q 40.578125 54.546875 44.28125 53.078125 
z
" id="DejaVuSans-115"/>
       <path d="M 56.203125 29.59375 
L 56.203125 25.203125 
L 14.890625 25.203125 
Q 15.484375 15.921875 20.484375 11.0625 
Q 25.484375 6.203125 34.421875 6.203125 
Q 39.59375 6.203125 44.453125 7.46875 
Q 49.3125 8.734375 54.109375 11.28125 
L 54.109375 2.78125 
Q 49.265625 0.734375 44.1875 -0.34375 
Q 39.109375 -1.421875 33.890625 -1.421875 
Q 20.796875 -1.421875 13.15625 6.1875 
Q 5.515625 13.8125 5.515625 26.8125 
Q 5.515625 40.234375 12.765625 48.109375 
Q 20.015625 56 32.328125 56 
Q 43.359375 56 49.78125 48.890625 
Q 56.203125 41.796875 56.203125 29.59375 
z
M 47.21875 32.234375 
Q 47.125 39.59375 43.09375 43.984375 
Q 39.0625 48.390625 32.421875 48.390625 
Q 24.90625 48.390625 20.390625 44.140625 
Q 15.875 39.890625 15.1875 32.171875 
z
" id="DejaVuSans-101"/>
       <path d="M 14.796875 27.296875 
Q 14.796875 17.390625 18.875 11.75 
Q 22.953125 6.109375 30.078125 6.109375 
Q 37.203125 6.109375 41.296875 11.75 
Q 45.40625 17.390625 45.40625 27.296875 
Q 45.40625 37.203125 41.296875 42.84375 
Q 37.203125 48.484375 30.078125 48.484375 
Q 22.953125 48.484375 18.875 42.84375 
Q 14.796875 37.203125 14.796875 27.296875 
z
M 45.40625 8.203125 
Q 42.578125 3.328125 38.25 0.953125 
Q 33.9375 -1.421875 27.875 -1.421875 
Q 17.96875 -1.421875 11.734375 6.484375 
Q 5.515625 14.40625 5.515625 27.296875 
Q 5.515625 40.1875 11.734375 48.09375 
Q 17.96875 56 27.875 56 
Q 33.9375 56 38.25 53.625 
Q 42.578125 51.265625 45.40625 46.390625 
L 45.40625 54.6875 
L 54.390625 54.6875 
L 54.390625 -20.796875 
L 45.40625 -20.796875 
z
" id="DejaVuSans-113"/>
       <path d="M 44.390625 34.1875 
Q 47.5625 33.109375 50.5625 29.59375 
Q 53.5625 26.078125 56.59375 19.921875 
L 66.609375 0 
L 56 0 
L 46.6875 18.703125 
Q 43.0625 26.03125 39.671875 28.421875 
Q 36.28125 30.8125 30.421875 30.8125 
L 19.671875 30.8125 
L 19.671875 0 
L 9.8125 0 
L 9.8125 72.90625 
L 32.078125 72.90625 
Q 44.578125 72.90625 50.734375 67.671875 
Q 56.890625 62.453125 56.890625 51.90625 
Q 56.890625 45.015625 53.6875 40.46875 
Q 50.484375 35.9375 44.390625 34.1875 
z
M 19.671875 64.796875 
L 19.671875 38.921875 
L 32.078125 38.921875 
Q 39.203125 38.921875 42.84375 42.21875 
Q 46.484375 45.515625 46.484375 51.90625 
Q 46.484375 58.296875 42.84375 61.546875 
Q 39.203125 64.796875 32.078125 64.796875 
z
" id="DejaVuSans-82"/>
       <path d="M 48.78125 52.59375 
L 48.78125 44.1875 
Q 44.96875 46.296875 41.140625 47.34375 
Q 37.3125 48.390625 33.40625 48.390625 
Q 24.65625 48.390625 19.8125 42.84375 
Q 14.984375 37.3125 14.984375 27.296875 
Q 14.984375 17.28125 19.8125 11.734375 
Q 24.65625 6.203125 33.40625 6.203125 
Q 37.3125 6.203125 41.140625 7.25 
Q 44.96875 8.296875 48.78125 10.40625 
L 48.78125 2.09375 
Q 45.015625 0.34375 40.984375 -0.53125 
Q 36.96875 -1.421875 32.421875 -1.421875 
Q 20.0625 -1.421875 12.78125 6.34375 
Q 5.515625 14.109375 5.515625 27.296875 
Q 5.515625 40.671875 12.859375 48.328125 
Q 20.21875 56 33.015625 56 
Q 37.15625 56 41.109375 55.140625 
Q 45.0625 54.296875 48.78125 52.59375 
z
" id="DejaVuSans-99"/>
       <path d="M 8.5 21.578125 
L 8.5 54.6875 
L 17.484375 54.6875 
L 17.484375 21.921875 
Q 17.484375 14.15625 20.5 10.265625 
Q 23.53125 6.390625 29.59375 6.390625 
Q 36.859375 6.390625 41.078125 11.03125 
Q 45.3125 15.671875 45.3125 23.6875 
L 45.3125 54.6875 
L 54.296875 54.6875 
L 54.296875 0 
L 45.3125 0 
L 45.3125 8.40625 
Q 42.046875 3.421875 37.71875 1 
Q 33.40625 -1.421875 27.6875 -1.421875 
Q 18.265625 -1.421875 13.375 4.4375 
Q 8.5 10.296875 8.5 21.578125 
z
M 31.109375 56 
z
" id="DejaVuSans-117"/>
       <path d="M 41.109375 46.296875 
Q 39.59375 47.171875 37.8125 47.578125 
Q 36.03125 48 33.890625 48 
Q 26.265625 48 22.1875 43.046875 
Q 18.109375 38.09375 18.109375 28.8125 
L 18.109375 0 
L 9.078125 0 
L 9.078125 54.6875 
L 18.109375 54.6875 
L 18.109375 46.1875 
Q 20.953125 51.171875 25.484375 53.578125 
Q 30.03125 56 36.53125 56 
Q 37.453125 56 38.578125 55.875 
Q 39.703125 55.765625 41.0625 55.515625 
z
" id="DejaVuSans-114"/>
      </defs>
      <g transform="translate(1.414174 309.868722)rotate(-45)scale(0.1 -0.1)">
       <use xlink:href="#DejaVuSans-115"/>
       <use x="52.099609" xlink:href="#DejaVuSans-101"/>
       <use x="113.623047" xlink:href="#DejaVuSans-113"/>
       <use x="177.099609" xlink:href="#DejaVuSans-82"/>
       <use x="246.519531" xlink:href="#DejaVuSans-101"/>
       <use x="308.042969" xlink:href="#DejaVuSans-99"/>
       <use x="363.023438" xlink:href="#DejaVuSans-117"/>
       <use x="426.402344" xlink:href="#DejaVuSans-114"/>
      </g>
     </g>
    </g>
    <g id="xtick_2">
     <g id="line2d_2">
      <g>
       <use style="stroke:#000000;stroke-width:0.8;" x="43.047273" xlink:href="#md372fa1e7f" y="264.436364"/>
      </g>
     </g>
     <g id="text_2">
      <!-- seqRecurS -->
      <defs>
       <path d="M 53.515625 70.515625 
L 53.515625 60.890625 
Q 47.90625 63.578125 42.921875 64.890625 
Q 37.9375 66.21875 33.296875 66.21875 
Q 25.25 66.21875 20.875 63.09375 
Q 16.5 59.96875 16.5 54.203125 
Q 16.5 49.359375 19.40625 46.890625 
Q 22.3125 44.4375 30.421875 42.921875 
L 36.375 41.703125 
Q 47.40625 39.59375 52.65625 34.296875 
Q 57.90625 29 57.90625 20.125 
Q 57.90625 9.515625 50.796875 4.046875 
Q 43.703125 -1.421875 29.984375 -1.421875 
Q 24.8125 -1.421875 18.96875 -0.25 
Q 13.140625 0.921875 6.890625 3.21875 
L 6.890625 13.375 
Q 12.890625 10.015625 18.65625 8.296875 
Q 24.421875 6.59375 29.984375 6.59375 
Q 38.421875 6.59375 43.015625 9.90625 
Q 47.609375 13.234375 47.609375 19.390625 
Q 47.609375 24.75 44.3125 27.78125 
Q 41.015625 30.8125 33.5 32.328125 
L 27.484375 33.5 
Q 16.453125 35.6875 11.515625 40.375 
Q 6.59375 45.0625 6.59375 53.421875 
Q 6.59375 63.09375 13.40625 68.65625 
Q 20.21875 74.21875 32.171875 74.21875 
Q 37.3125 74.21875 42.625 73.28125 
Q 47.953125 72.359375 53.515625 70.515625 
z
" id="DejaVuSans-83"/>
      </defs>
      <g transform="translate(26.224208 314.357745)rotate(-45)scale(0.1 -0.1)">
       <use xlink:href="#DejaVuSans-115"/>
       <use x="52.099609" xlink:href="#DejaVuSans-101"/>
       <use x="113.623047" xlink:href="#DejaVuSans-113"/>
       <use x="177.099609" xlink:href="#DejaVuSans-82"/>
       <use x="246.519531" xlink:href="#DejaVuSans-101"/>
       <use x="308.042969" xlink:href="#DejaVuSans-99"/>
       <use x="363.023438" xlink:href="#DejaVuSans-117"/>
       <use x="426.402344" xlink:href="#DejaVuSans-114"/>
       <use x="467.515625" xlink:href="#DejaVuSans-83"/>
      </g>
     </g>
    </g>
   </g>
   <g id="matplotlib.axis_2">
    <g id="ytick_1">
     <g id="line2d_3">
      <defs>
       <path d="M 0 0 
L -3.5 0 
" id="me737f5a9e4" style="stroke:#000000;stroke-width:0.8;"/>
      </defs>
      <g>
       <use style="stroke:#000000;stroke-width:0.8;" x="7.2" xlink:href="#me737f5a9e4" y="255.034711"/>
      </g>
     </g>
     <g id="text_3">
      <!-- 0.0 -->
      <defs>
       <path d="M 31.78125 66.40625 
Q 24.171875 66.40625 20.328125 58.90625 
Q 16.5 51.421875 16.5 36.375 
Q 16.5 21.390625 20.328125 13.890625 
Q 24.171875 6.390625 31.78125 6.390625 
Q 39.453125 6.390625 43.28125 13.890625 
Q 47.125 21.390625 47.125 36.375 
Q 47.125 51.421875 43.28125 58.90625 
Q 39.453125 66.40625 31.78125 66.40625 
z
M 31.78125 74.21875 
Q 44.046875 74.21875 50.515625 64.515625 
Q 56.984375 54.828125 56.984375 36.375 
Q 56.984375 17.96875 50.515625 8.265625 
Q 44.046875 -1.421875 31.78125 -1.421875 
Q 19.53125 -1.421875 13.0625 8.265625 
Q 6.59375 17.96875 6.59375 36.375 
Q 6.59375 54.828125 13.0625 64.515625 
Q 19.53125 74.21875 31.78125 74.21875 
z
" id="DejaVuSans-48"/>
       <path d="M 10.6875 12.40625 
L 21 12.40625 
L 21 0 
L 10.6875 0 
z
" id="DejaVuSans-46"/>
      </defs>
      <g transform="translate(-15.703125 258.833929)scale(0.1 -0.1)">
       <use xlink:href="#DejaVuSans-48"/>
       <use x="63.623047" xlink:href="#DejaVuSans-46"/>
       <use x="95.410156" xlink:href="#DejaVuSans-48"/>
      </g>
     </g>
    </g>
    <g id="ytick_2">
     <g id="line2d_4">
      <g>
       <use style="stroke:#000000;stroke-width:0.8;" x="7.2" xlink:href="#me737f5a9e4" y="216.354755"/>
      </g>
     </g>
     <g id="text_4">
      <!-- 0.2 -->
      <defs>
       <path d="M 19.1875 8.296875 
L 53.609375 8.296875 
L 53.609375 0 
L 7.328125 0 
L 7.328125 8.296875 
Q 12.9375 14.109375 22.625 23.890625 
Q 32.328125 33.6875 34.8125 36.53125 
Q 39.546875 41.84375 41.421875 45.53125 
Q 43.3125 49.21875 43.3125 52.78125 
Q 43.3125 58.59375 39.234375 62.25 
Q 35.15625 65.921875 28.609375 65.921875 
Q 23.96875 65.921875 18.8125 64.3125 
Q 13.671875 62.703125 7.8125 59.421875 
L 7.8125 69.390625 
Q 13.765625 71.78125 18.9375 73 
Q 24.125 74.21875 28.421875 74.21875 
Q 39.75 74.21875 46.484375 68.546875 
Q 53.21875 62.890625 53.21875 53.421875 
Q 53.21875 48.921875 51.53125 44.890625 
Q 49.859375 40.875 45.40625 35.40625 
Q 44.1875 33.984375 37.640625 27.21875 
Q 31.109375 20.453125 19.1875 8.296875 
z
" id="DejaVuSans-50"/>
      </defs>
      <g transform="translate(-15.703125 220.153974)scale(0.1 -0.1)">
       <use xlink:href="#DejaVuSans-48"/>
       <use x="63.623047" xlink:href="#DejaVuSans-46"/>
       <use x="95.410156" xlink:href="#DejaVuSans-50"/>
      </g>
     </g>
    </g>
    <g id="ytick_3">
     <g id="line2d_5">
      <g>
       <use style="stroke:#000000;stroke-width:0.8;" x="7.2" xlink:href="#me737f5a9e4" y="177.6748"/>
      </g>
     </g>
     <g id="text_5">
      <!-- 0.4 -->
      <defs>
       <path d="M 37.796875 64.3125 
L 12.890625 25.390625 
L 37.796875 25.390625 
z
M 35.203125 72.90625 
L 47.609375 72.90625 
L 47.609375 25.390625 
L 58.015625 25.390625 
L 58.015625 17.1875 
L 47.609375 17.1875 
L 47.609375 0 
L 37.796875 0 
L 37.796875 17.1875 
L 4.890625 17.1875 
L 4.890625 26.703125 
z
" id="DejaVuSans-52"/>
      </defs>
      <g transform="translate(-15.703125 181.474018)scale(0.1 -0.1)">
       <use xlink:href="#DejaVuSans-48"/>
       <use x="63.623047" xlink:href="#DejaVuSans-46"/>
       <use x="95.410156" xlink:href="#DejaVuSans-52"/>
      </g>
     </g>
    </g>
    <g id="ytick_4">
     <g id="line2d_6">
      <g>
       <use style="stroke:#000000;stroke-width:0.8;" x="7.2" xlink:href="#me737f5a9e4" y="138.994844"/>
      </g>
     </g>
     <g id="text_6">
      <!-- 0.6 -->
      <defs>
       <path d="M 33.015625 40.375 
Q 26.375 40.375 22.484375 35.828125 
Q 18.609375 31.296875 18.609375 23.390625 
Q 18.609375 15.53125 22.484375 10.953125 
Q 26.375 6.390625 33.015625 6.390625 
Q 39.65625 6.390625 43.53125 10.953125 
Q 47.40625 15.53125 47.40625 23.390625 
Q 47.40625 31.296875 43.53125 35.828125 
Q 39.65625 40.375 33.015625 40.375 
z
M 52.59375 71.296875 
L 52.59375 62.3125 
Q 48.875 64.0625 45.09375 64.984375 
Q 41.3125 65.921875 37.59375 65.921875 
Q 27.828125 65.921875 22.671875 59.328125 
Q 17.53125 52.734375 16.796875 39.40625 
Q 19.671875 43.65625 24.015625 45.921875 
Q 28.375 48.1875 33.59375 48.1875 
Q 44.578125 48.1875 50.953125 41.515625 
Q 57.328125 34.859375 57.328125 23.390625 
Q 57.328125 12.15625 50.6875 5.359375 
Q 44.046875 -1.421875 33.015625 -1.421875 
Q 20.359375 -1.421875 13.671875 8.265625 
Q 6.984375 17.96875 6.984375 36.375 
Q 6.984375 53.65625 15.1875 63.9375 
Q 23.390625 74.21875 37.203125 74.21875 
Q 40.921875 74.21875 44.703125 73.484375 
Q 48.484375 72.75 52.59375 71.296875 
z
" id="DejaVuSans-54"/>
      </defs>
      <g transform="translate(-15.703125 142.794063)scale(0.1 -0.1)">
       <use xlink:href="#DejaVuSans-48"/>
       <use x="63.623047" xlink:href="#DejaVuSans-46"/>
       <use x="95.410156" xlink:href="#DejaVuSans-54"/>
      </g>
     </g>
    </g>
    <g id="ytick_5">
     <g id="line2d_7">
      <g>
       <use style="stroke:#000000;stroke-width:0.8;" x="7.2" xlink:href="#me737f5a9e4" y="100.314888"/>
      </g>
     </g>
     <g id="text_7">
      <!-- 0.8 -->
      <defs>
       <path d="M 31.78125 34.625 
Q 24.75 34.625 20.71875 30.859375 
Q 16.703125 27.09375 16.703125 20.515625 
Q 16.703125 13.921875 20.71875 10.15625 
Q 24.75 6.390625 31.78125 6.390625 
Q 38.8125 6.390625 42.859375 10.171875 
Q 46.921875 13.96875 46.921875 20.515625 
Q 46.921875 27.09375 42.890625 30.859375 
Q 38.875 34.625 31.78125 34.625 
z
M 21.921875 38.8125 
Q 15.578125 40.375 12.03125 44.71875 
Q 8.5 49.078125 8.5 55.328125 
Q 8.5 64.0625 14.71875 69.140625 
Q 20.953125 74.21875 31.78125 74.21875 
Q 42.671875 74.21875 48.875 69.140625 
Q 55.078125 64.0625 55.078125 55.328125 
Q 55.078125 49.078125 51.53125 44.71875 
Q 48 40.375 41.703125 38.8125 
Q 48.828125 37.15625 52.796875 32.3125 
Q 56.78125 27.484375 56.78125 20.515625 
Q 56.78125 9.90625 50.3125 4.234375 
Q 43.84375 -1.421875 31.78125 -1.421875 
Q 19.734375 -1.421875 13.25 4.234375 
Q 6.78125 9.90625 6.78125 20.515625 
Q 6.78125 27.484375 10.78125 32.3125 
Q 14.796875 37.15625 21.921875 38.8125 
z
M 18.3125 54.390625 
Q 18.3125 48.734375 21.84375 45.5625 
Q 25.390625 42.390625 31.78125 42.390625 
Q 38.140625 42.390625 41.71875 45.5625 
Q 45.3125 48.734375 45.3125 54.390625 
Q 45.3125 60.0625 41.71875 63.234375 
Q 38.140625 66.40625 31.78125 66.40625 
Q 25.390625 66.40625 21.84375 63.234375 
Q 18.3125 60.0625 18.3125 54.390625 
z
" id="DejaVuSans-56"/>
      </defs>
      <g transform="translate(-15.703125 104.114107)scale(0.1 -0.1)">
       <use xlink:href="#DejaVuSans-48"/>
       <use x="63.623047" xlink:href="#DejaVuSans-46"/>
       <use x="95.410156" xlink:href="#DejaVuSans-56"/>
      </g>
     </g>
    </g>
    <g id="ytick_6">
     <g id="line2d_8">
      <g>
       <use style="stroke:#000000;stroke-width:0.8;" x="7.2" xlink:href="#me737f5a9e4" y="61.634933"/>
      </g>
     </g>
     <g id="text_8">
      <!-- 1.0 -->
      <defs>
       <path d="M 12.40625 8.296875 
L 28.515625 8.296875 
L 28.515625 63.921875 
L 10.984375 60.40625 
L 10.984375 69.390625 
L 28.421875 72.90625 
L 38.28125 72.90625 
L 38.28125 8.296875 
L 54.390625 8.296875 
L 54.390625 0 
L 12.40625 0 
z
" id="DejaVuSans-49"/>
      </defs>
      <g transform="translate(-15.703125 65.434151)scale(0.1 -0.1)">
       <use xlink:href="#DejaVuSans-49"/>
       <use x="63.623047" xlink:href="#DejaVuSans-46"/>
       <use x="95.410156" xlink:href="#DejaVuSans-48"/>
      </g>
     </g>
    </g>
   </g>
   <g id="LineCollection_1">
    <path clip-path="url(#p6c6f7dafdf)" d="M 12.610909 91.175899 
L 19.374545 91.175899 
" style="fill:none;stroke:#1f77b4;stroke-width:1.5;"/>
    <path clip-path="url(#p6c6f7dafdf)" d="M 39.665455 166.89496 
L 46.429091 166.89496 
" style="fill:none;stroke:#1f77b4;stroke-width:1.5;"/>
   </g>
   <g id="LineCollection_2">
    <path clip-path="url(#p6c6f7dafdf)" d="M 12.610909 67.001653 
L 19.374545 67.001653 
" style="fill:none;stroke:#1f77b4;stroke-width:1.5;"/>
    <path clip-path="url(#p6c6f7dafdf)" d="M 39.665455 102.563361 
L 46.429091 102.563361 
" style="fill:none;stroke:#1f77b4;stroke-width:1.5;"/>
   </g>
   <g id="LineCollection_3">
    <path clip-path="url(#p6c6f7dafdf)" d="M 12.610909 157.506223 
L 19.374545 157.506223 
" style="fill:none;stroke:#1f77b4;stroke-width:1.5;"/>
    <path clip-path="url(#p6c6f7dafdf)" d="M 39.665455 255.034711 
L 46.429091 255.034711 
" style="fill:none;stroke:#1f77b4;stroke-width:1.5;"/>
   </g>
   <g id="LineCollection_4">
    <path clip-path="url(#p6c6f7dafdf)" d="M 15.992727 157.506223 
L 15.992727 67.001653 
" style="fill:none;stroke:#1f77b4;stroke-width:1.5;"/>
    <path clip-path="url(#p6c6f7dafdf)" d="M 43.047273 255.034711 
L 43.047273 102.563361 
" style="fill:none;stroke:#1f77b4;stroke-width:1.5;"/>
   </g>
   <g id="patch_3">
    <path d="M 7.2 264.436364 
L 7.2 57.6 
" style="fill:none;stroke:#000000;stroke-linecap:square;stroke-linejoin:miter;stroke-width:0.8;"/>
   </g>
   <g id="patch_4">
    <path d="M 51.84 264.436364 
L 51.84 57.6 
" style="fill:none;stroke:#000000;stroke-linecap:square;stroke-linejoin:miter;stroke-width:0.8;"/>
   </g>
   <g id="patch_5">
    <path d="M 7.2 264.436364 
L 51.84 264.436364 
" style="fill:none;stroke:#000000;stroke-linecap:square;stroke-linejoin:miter;stroke-width:0.8;"/>
   </g>
   <g id="patch_6">
    <path d="M 7.2 57.6 
L 51.84 57.6 
" style="fill:none;stroke:#000000;stroke-linecap:square;stroke-linejoin:miter;stroke-width:0.8;"/>
   </g>
   <g id="text_9">
    <!-- ovlp-F -->
    <defs>
     <path d="M 30.609375 48.390625 
Q 23.390625 48.390625 19.1875 42.75 
Q 14.984375 37.109375 14.984375 27.296875 
Q 14.984375 17.484375 19.15625 11.84375 
Q 23.34375 6.203125 30.609375 6.203125 
Q 37.796875 6.203125 41.984375 11.859375 
Q 46.1875 17.53125 46.1875 27.296875 
Q 46.1875 37.015625 41.984375 42.703125 
Q 37.796875 48.390625 30.609375 48.390625 
z
M 30.609375 56 
Q 42.328125 56 49.015625 48.375 
Q 55.71875 40.765625 55.71875 27.296875 
Q 55.71875 13.875 49.015625 6.21875 
Q 42.328125 -1.421875 30.609375 -1.421875 
Q 18.84375 -1.421875 12.171875 6.21875 
Q 5.515625 13.875 5.515625 27.296875 
Q 5.515625 40.765625 12.171875 48.375 
Q 18.84375 56 30.609375 56 
z
" id="DejaVuSans-111"/>
     <path d="M 2.984375 54.6875 
L 12.5 54.6875 
L 29.59375 8.796875 
L 46.6875 54.6875 
L 56.203125 54.6875 
L 35.6875 0 
L 23.484375 0 
z
" id="DejaVuSans-118"/>
     <path d="M 9.421875 75.984375 
L 18.40625 75.984375 
L 18.40625 0 
L 9.421875 0 
z
" id="DejaVuSans-108"/>
     <path d="M 18.109375 8.203125 
L 18.109375 -20.796875 
L 9.078125 -20.796875 
L 9.078125 54.6875 
L 18.109375 54.6875 
L 18.109375 46.390625 
Q 20.953125 51.265625 25.265625 53.625 
Q 29.59375 56 35.59375 56 
Q 45.5625 56 51.78125 48.09375 
Q 58.015625 40.1875 58.015625 27.296875 
Q 58.015625 14.40625 51.78125 6.484375 
Q 45.5625 -1.421875 35.59375 -1.421875 
Q 29.59375 -1.421875 25.265625 0.953125 
Q 20.953125 3.328125 18.109375 8.203125 
z
M 48.6875 27.296875 
Q 48.6875 37.203125 44.609375 42.84375 
Q 40.53125 48.484375 33.40625 48.484375 
Q 26.265625 48.484375 22.1875 42.84375 
Q 18.109375 37.203125 18.109375 27.296875 
Q 18.109375 17.390625 22.1875 11.75 
Q 26.265625 6.109375 33.40625 6.109375 
Q 40.53125 6.109375 44.609375 11.75 
Q 48.6875 17.390625 48.6875 27.296875 
z
" id="DejaVuSans-112"/>
     <path d="M 4.890625 31.390625 
L 31.203125 31.390625 
L 31.203125 23.390625 
L 4.890625 23.390625 
z
" id="DejaVuSans-45"/>
     <path d="M 9.8125 72.90625 
L 51.703125 72.90625 
L 51.703125 64.59375 
L 19.671875 64.59375 
L 19.671875 43.109375 
L 48.578125 43.109375 
L 48.578125 34.8125 
L 19.671875 34.8125 
L 19.671875 0 
L 9.8125 0 
z
" id="DejaVuSans-70"/>
    </defs>
    <g transform="translate(11.205938 51.6)scale(0.12 -0.12)">
     <use xlink:href="#DejaVuSans-111"/>
     <use x="61.181641" xlink:href="#DejaVuSans-118"/>
     <use x="120.361328" xlink:href="#DejaVuSans-108"/>
     <use x="148.144531" xlink:href="#DejaVuSans-112"/>
     <use x="211.621094" xlink:href="#DejaVuSans-45"/>
     <use x="247.705078" xlink:href="#DejaVuSans-70"/>
    </g>
   </g>
  </g>
  <g id="axes_2">
   <g id="patch_7">
    <path d="M 7.2 512.64 
L 51.84 512.64 
L 51.84 305.803636 
L 7.2 305.803636 
z
" style="fill:#ffffff;"/>
   </g>
   <g id="PolyCollection_3">
    <path clip-path="url(#p1bdd52708a)" d="M 16.966534 389.592252 
L 15.01892 389.592252 
L 14.954929 388.865024 
L 14.893545 388.137796 
L 14.83553 387.410569 
L 14.781574 386.683341 
L 14.732278 385.956113 
L 14.688127 385.228885 
L 14.649473 384.501657 
L 14.616527 383.774429 
L 14.589349 383.047201 
L 14.567846 382.319973 
L 14.551777 381.592745 
L 14.540764 380.865517 
L 14.534306 380.138289 
L 14.5318 379.411061 
L 14.53256 378.683833 
L 14.535849 377.956605 
L 14.540898 377.229377 
L 14.546941 376.50215 
L 14.553233 375.774922 
L 14.559082 375.047694 
L 14.563862 374.320466 
L 14.567036 373.593238 
L 14.568165 372.86601 
L 14.566918 372.138782 
L 14.563074 371.411554 
L 14.556514 370.684326 
L 14.547221 369.957098 
L 14.535262 369.22987 
L 14.520771 368.502642 
L 14.503933 367.775414 
L 14.484955 367.048186 
L 14.464052 366.320958 
L 14.441412 365.59373 
L 14.417183 364.866503 
L 14.391448 364.139275 
L 14.36421 363.412047 
L 14.335378 362.684819 
L 14.304758 361.957591 
L 14.272054 361.230363 
L 14.236865 360.503135 
L 14.198695 359.775907 
L 14.156965 359.048679 
L 14.111027 358.321451 
L 14.060185 357.594223 
L 14.003714 356.866995 
L 13.940884 356.139767 
L 13.870982 355.412539 
L 13.793333 354.685311 
L 13.707325 353.958083 
L 13.612423 353.230856 
L 13.508189 352.503628 
L 13.394296 351.7764 
L 13.270542 351.049172 
L 13.136856 350.321944 
L 12.993308 349.594716 
L 12.840116 348.867488 
L 12.677648 348.14026 
L 12.506424 347.413032 
L 12.32712 346.685804 
L 12.140566 345.958576 
L 11.947747 345.231348 
L 11.749797 344.50412 
L 11.547997 343.776892 
L 11.343771 343.049664 
L 11.138674 342.322437 
L 10.934387 341.595209 
L 10.732698 340.867981 
L 10.535494 340.140753 
L 10.344738 339.413525 
L 10.162449 338.686297 
L 9.990679 337.959069 
L 9.831486 337.231841 
L 9.686905 336.504613 
L 9.558915 335.777385 
L 9.44941 335.050157 
L 9.36016 334.322929 
L 9.29278 333.595701 
L 9.248691 332.868473 
L 9.229091 332.141245 
L 9.23492 331.414017 
L 9.266833 330.68679 
L 9.325172 329.959562 
L 9.40995 329.232334 
L 9.520835 328.505106 
L 9.657143 327.777878 
L 9.817838 327.05065 
L 10.001542 326.323422 
L 10.206553 325.596194 
L 10.430868 324.868966 
L 10.672218 324.141738 
L 10.928112 323.41451 
L 11.19588 322.687282 
L 11.47273 321.960054 
L 11.755801 321.232826 
L 12.042224 320.505598 
L 12.329178 319.77837 
L 12.613947 319.051143 
L 12.89397 318.323915 
L 13.166889 317.596687 
L 18.818565 317.596687 
L 18.818565 317.596687 
L 19.091485 318.323915 
L 19.371508 319.051143 
L 19.656276 319.77837 
L 19.94323 320.505598 
L 20.229653 321.232826 
L 20.512724 321.960054 
L 20.789574 322.687282 
L 21.057342 323.41451 
L 21.313236 324.141738 
L 21.554587 324.868966 
L 21.778902 325.596194 
L 21.983913 326.323422 
L 22.167617 327.05065 
L 22.328312 327.777878 
L 22.46462 328.505106 
L 22.575505 329.232334 
L 22.660283 329.959562 
L 22.718622 330.68679 
L 22.750534 331.414017 
L 22.756364 332.141245 
L 22.736764 332.868473 
L 22.692675 333.595701 
L 22.625294 334.322929 
L 22.536045 335.050157 
L 22.426539 335.777385 
L 22.29855 336.504613 
L 22.153968 337.231841 
L 21.994775 337.959069 
L 21.823005 338.686297 
L 21.640716 339.413525 
L 21.44996 340.140753 
L 21.252756 340.867981 
L 21.051068 341.595209 
L 20.84678 342.322437 
L 20.641684 343.049664 
L 20.437457 343.776892 
L 20.235658 344.50412 
L 20.037708 345.231348 
L 19.844888 345.958576 
L 19.658335 346.685804 
L 19.479031 347.413032 
L 19.307807 348.14026 
L 19.145338 348.867488 
L 18.992146 349.594716 
L 18.848599 350.321944 
L 18.714912 351.049172 
L 18.591158 351.7764 
L 18.477266 352.503628 
L 18.373032 353.230856 
L 18.278129 353.958083 
L 18.192121 354.685311 
L 18.114473 355.412539 
L 18.04457 356.139767 
L 17.98174 356.866995 
L 17.925269 357.594223 
L 17.874427 358.321451 
L 17.828489 359.048679 
L 17.786759 359.775907 
L 17.748589 360.503135 
L 17.7134 361.230363 
L 17.680696 361.957591 
L 17.650077 362.684819 
L 17.621245 363.412047 
L 17.594007 364.139275 
L 17.568272 364.866503 
L 17.544043 365.59373 
L 17.521403 366.320958 
L 17.500499 367.048186 
L 17.481522 367.775414 
L 17.464683 368.502642 
L 17.450193 369.22987 
L 17.438233 369.957098 
L 17.428941 370.684326 
L 17.422381 371.411554 
L 17.418536 372.138782 
L 17.41729 372.86601 
L 17.418419 373.593238 
L 17.421593 374.320466 
L 17.426373 375.047694 
L 17.432221 375.774922 
L 17.438514 376.50215 
L 17.444556 377.229377 
L 17.449606 377.956605 
L 17.452894 378.683833 
L 17.453655 379.411061 
L 17.451148 380.138289 
L 17.444691 380.865517 
L 17.433678 381.592745 
L 17.417609 382.319973 
L 17.396105 383.047201 
L 17.368927 383.774429 
L 17.335982 384.501657 
L 17.297328 385.228885 
L 17.253176 385.956113 
L 17.20388 386.683341 
L 17.149925 387.410569 
L 17.091909 388.137796 
L 17.030525 388.865024 
L 16.966534 389.592252 
z
" style="fill:#1f77b4;fill-opacity:0.3;"/>
   </g>
   <g id="PolyCollection_4">
    <path clip-path="url(#p1bdd52708a)" d="M 43.220822 503.238347 
L 42.873723 503.238347 
L 42.875676 501.339023 
L 42.881406 499.439699 
L 42.890532 497.540376 
L 42.90247 495.641052 
L 42.91649 493.741728 
L 42.931788 491.842404 
L 42.947564 489.94308 
L 42.963083 488.043757 
L 42.977724 486.144433 
L 42.99101 484.245109 
L 43.002613 482.345785 
L 43.012338 480.446461 
L 43.0201 478.547137 
L 43.025881 476.647814 
L 43.029689 474.74849 
L 43.03152 472.849166 
L 43.031325 470.949842 
L 43.028984 469.050518 
L 43.024305 467.151195 
L 43.017028 465.251871 
L 43.006851 463.352547 
L 42.993473 461.453223 
L 42.976653 459.553899 
L 42.956273 457.654576 
L 42.93241 455.755252 
L 42.905393 453.855928 
L 42.875846 451.956604 
L 42.844704 450.05728 
L 42.81318 448.157956 
L 42.782705 446.258633 
L 42.754815 444.359309 
L 42.731017 442.459985 
L 42.712634 440.560661 
L 42.700657 438.661337 
L 42.695615 436.762014 
L 42.697499 434.86269 
L 42.705724 432.963366 
L 42.719166 431.064042 
L 42.736237 429.164718 
L 42.755012 427.265394 
L 42.773366 425.366071 
L 42.78912 423.466747 
L 42.800154 421.567423 
L 42.804497 419.668099 
L 42.80036 417.768775 
L 42.786137 415.869452 
L 42.760368 413.970128 
L 42.72169 412.070804 
L 42.668791 410.17148 
L 42.600387 408.272156 
L 42.515252 406.372832 
L 42.412284 404.473509 
L 42.290631 402.574185 
L 42.149847 400.674861 
L 41.990063 398.775537 
L 41.812142 396.876213 
L 41.617779 394.97689 
L 41.40953 393.077566 
L 41.190735 391.178242 
L 40.965347 389.278918 
L 40.737656 387.379594 
L 40.511956 385.48027 
L 40.292172 383.580947 
L 40.0815 381.681623 
L 39.882096 379.782299 
L 39.694869 377.882975 
L 39.519381 375.983651 
L 39.35389 374.084328 
L 39.195532 372.185004 
L 39.040618 370.28568 
L 38.885037 368.386356 
L 38.724717 366.487032 
L 38.556098 364.587708 
L 38.376586 362.688385 
L 38.184915 360.789061 
L 37.981407 358.889737 
L 37.768066 356.990413 
L 37.548526 355.091089 
L 37.32783 353.191766 
L 37.11209 351.292442 
L 36.908055 349.393118 
L 36.722648 347.493794 
L 36.562546 345.59447 
L 36.433823 343.695147 
L 36.341722 341.795823 
L 36.290542 339.896499 
L 36.283636 337.997175 
L 36.323471 336.097851 
L 36.411698 334.198527 
L 36.549198 332.299204 
L 36.73604 330.39988 
L 36.971361 328.500556 
L 37.25318 326.601232 
L 37.578183 324.701908 
L 37.941555 322.802585 
L 38.336907 320.903261 
L 38.756359 319.003937 
L 39.190806 317.104613 
L 39.630351 315.205289 
L 46.464194 315.205289 
L 46.464194 315.205289 
L 46.903739 317.104613 
L 47.338187 319.003937 
L 47.757639 320.903261 
L 48.15299 322.802585 
L 48.516362 324.701908 
L 48.841366 326.601232 
L 49.123184 328.500556 
L 49.358505 330.39988 
L 49.545347 332.299204 
L 49.682847 334.198527 
L 49.771075 336.097851 
L 49.810909 337.997175 
L 49.804004 339.896499 
L 49.752824 341.795823 
L 49.660722 343.695147 
L 49.531999 345.59447 
L 49.371897 347.493794 
L 49.186491 349.393118 
L 48.982455 351.292442 
L 48.766715 353.191766 
L 48.54602 355.091089 
L 48.326479 356.990413 
L 48.113138 358.889737 
L 47.90963 360.789061 
L 47.71796 362.688385 
L 47.538447 364.587708 
L 47.369829 366.487032 
L 47.209508 368.386356 
L 47.053928 370.28568 
L 46.899014 372.185004 
L 46.740655 374.084328 
L 46.575165 375.983651 
L 46.399676 377.882975 
L 46.212449 379.782299 
L 46.013046 381.681623 
L 45.802373 383.580947 
L 45.582589 385.48027 
L 45.35689 387.379594 
L 45.129199 389.278918 
L 44.90381 391.178242 
L 44.685015 393.077566 
L 44.476766 394.97689 
L 44.282404 396.876213 
L 44.104482 398.775537 
L 43.944699 400.674861 
L 43.803914 402.574185 
L 43.682261 404.473509 
L 43.579293 406.372832 
L 43.494158 408.272156 
L 43.425755 410.17148 
L 43.372855 412.070804 
L 43.334177 413.970128 
L 43.308408 415.869452 
L 43.294185 417.768775 
L 43.290048 419.668099 
L 43.294391 421.567423 
L 43.305426 423.466747 
L 43.321179 425.366071 
L 43.339534 427.265394 
L 43.358308 429.164718 
L 43.375379 431.064042 
L 43.388821 432.963366 
L 43.397047 434.86269 
L 43.39893 436.762014 
L 43.393889 438.661337 
L 43.381911 440.560661 
L 43.363528 442.459985 
L 43.33973 444.359309 
L 43.31184 446.258633 
L 43.281365 448.157956 
L 43.249842 450.05728 
L 43.218699 451.956604 
L 43.189153 453.855928 
L 43.162135 455.755252 
L 43.138272 457.654576 
L 43.117892 459.553899 
L 43.101072 461.453223 
L 43.087695 463.352547 
L 43.077517 465.251871 
L 43.07024 467.151195 
L 43.065561 469.050518 
L 43.063221 470.949842 
L 43.063025 472.849166 
L 43.064856 474.74849 
L 43.068664 476.647814 
L 43.074445 478.547137 
L 43.082207 480.446461 
L 43.091933 482.345785 
L 43.103535 484.245109 
L 43.116822 486.144433 
L 43.131463 488.043757 
L 43.146981 489.94308 
L 43.162757 491.842404 
L 43.178055 493.741728 
L 43.192075 495.641052 
L 43.204013 497.540376 
L 43.21314 499.439699 
L 43.218869 501.339023 
L 43.220822 503.238347 
z
" style="fill:#1f77b4;fill-opacity:0.3;"/>
   </g>
   <g id="matplotlib.axis_3">
    <g id="xtick_3">
     <g id="line2d_9">
      <g>
       <use style="stroke:#000000;stroke-width:0.8;" x="15.992727" xlink:href="#md372fa1e7f" y="512.64"/>
      </g>
     </g>
     <g id="text_10">
      <!-- seqRecur -->
      <g transform="translate(1.414174 558.072358)rotate(-45)scale(0.1 -0.1)">
       <use xlink:href="#DejaVuSans-115"/>
       <use x="52.099609" xlink:href="#DejaVuSans-101"/>
       <use x="113.623047" xlink:href="#DejaVuSans-113"/>
       <use x="177.099609" xlink:href="#DejaVuSans-82"/>
       <use x="246.519531" xlink:href="#DejaVuSans-101"/>
       <use x="308.042969" xlink:href="#DejaVuSans-99"/>
       <use x="363.023438" xlink:href="#DejaVuSans-117"/>
       <use x="426.402344" xlink:href="#DejaVuSans-114"/>
      </g>
     </g>
    </g>
    <g id="xtick_4">
     <g id="line2d_10">
      <g>
       <use style="stroke:#000000;stroke-width:0.8;" x="43.047273" xlink:href="#md372fa1e7f" y="512.64"/>
      </g>
     </g>
     <g id="text_11">
      <!-- seqRecurS -->
      <g transform="translate(26.224208 562.561382)rotate(-45)scale(0.1 -0.1)">
       <use xlink:href="#DejaVuSans-115"/>
       <use x="52.099609" xlink:href="#DejaVuSans-101"/>
       <use x="113.623047" xlink:href="#DejaVuSans-113"/>
       <use x="177.099609" xlink:href="#DejaVuSans-82"/>
       <use x="246.519531" xlink:href="#DejaVuSans-101"/>
       <use x="308.042969" xlink:href="#DejaVuSans-99"/>
       <use x="363.023438" xlink:href="#DejaVuSans-117"/>
       <use x="426.402344" xlink:href="#DejaVuSans-114"/>
       <use x="467.515625" xlink:href="#DejaVuSans-83"/>
      </g>
     </g>
    </g>
   </g>
   <g id="matplotlib.axis_4">
    <g id="ytick_7">
     <g id="line2d_11">
      <g>
       <use style="stroke:#000000;stroke-width:0.8;" x="7.2" xlink:href="#me737f5a9e4" y="503.238347"/>
      </g>
     </g>
     <g id="text_12">
      <!-- 0.0 -->
      <g transform="translate(-15.703125 507.037566)scale(0.1 -0.1)">
       <use xlink:href="#DejaVuSans-48"/>
       <use x="63.623047" xlink:href="#DejaVuSans-46"/>
       <use x="95.410156" xlink:href="#DejaVuSans-48"/>
      </g>
     </g>
    </g>
    <g id="ytick_8">
     <g id="line2d_12">
      <g>
       <use style="stroke:#000000;stroke-width:0.8;" x="7.2" xlink:href="#me737f5a9e4" y="465.050322"/>
      </g>
     </g>
     <g id="text_13">
      <!-- 0.2 -->
      <g transform="translate(-15.703125 468.84954)scale(0.1 -0.1)">
       <use xlink:href="#DejaVuSans-48"/>
       <use x="63.623047" xlink:href="#DejaVuSans-46"/>
       <use x="95.410156" xlink:href="#DejaVuSans-50"/>
      </g>
     </g>
    </g>
    <g id="ytick_9">
     <g id="line2d_13">
      <g>
       <use style="stroke:#000000;stroke-width:0.8;" x="7.2" xlink:href="#me737f5a9e4" y="426.862296"/>
      </g>
     </g>
     <g id="text_14">
      <!-- 0.4 -->
      <g transform="translate(-15.703125 430.661515)scale(0.1 -0.1)">
       <use xlink:href="#DejaVuSans-48"/>
       <use x="63.623047" xlink:href="#DejaVuSans-46"/>
       <use x="95.410156" xlink:href="#DejaVuSans-52"/>
      </g>
     </g>
    </g>
    <g id="ytick_10">
     <g id="line2d_14">
      <g>
       <use style="stroke:#000000;stroke-width:0.8;" x="7.2" xlink:href="#me737f5a9e4" y="388.674271"/>
      </g>
     </g>
     <g id="text_15">
      <!-- 0.6 -->
      <g transform="translate(-15.703125 392.47349)scale(0.1 -0.1)">
       <use xlink:href="#DejaVuSans-48"/>
       <use x="63.623047" xlink:href="#DejaVuSans-46"/>
       <use x="95.410156" xlink:href="#DejaVuSans-54"/>
      </g>
     </g>
    </g>
    <g id="ytick_11">
     <g id="line2d_15">
      <g>
       <use style="stroke:#000000;stroke-width:0.8;" x="7.2" xlink:href="#me737f5a9e4" y="350.486246"/>
      </g>
     </g>
     <g id="text_16">
      <!-- 0.8 -->
      <g transform="translate(-15.703125 354.285464)scale(0.1 -0.1)">
       <use xlink:href="#DejaVuSans-48"/>
       <use x="63.623047" xlink:href="#DejaVuSans-46"/>
       <use x="95.410156" xlink:href="#DejaVuSans-56"/>
      </g>
     </g>
    </g>
    <g id="ytick_12">
     <g id="line2d_16">
      <g>
       <use style="stroke:#000000;stroke-width:0.8;" x="7.2" xlink:href="#me737f5a9e4" y="312.29822"/>
      </g>
     </g>
     <g id="text_17">
      <!-- 1.0 -->
      <g transform="translate(-15.703125 316.097439)scale(0.1 -0.1)">
       <use xlink:href="#DejaVuSans-49"/>
       <use x="63.623047" xlink:href="#DejaVuSans-46"/>
       <use x="95.410156" xlink:href="#DejaVuSans-48"/>
      </g>
     </g>
    </g>
   </g>
   <g id="LineCollection_5">
    <path clip-path="url(#p1bdd52708a)" d="M 12.610909 342.326631 
L 19.374545 342.326631 
" style="fill:none;stroke:#1f77b4;stroke-width:1.5;"/>
    <path clip-path="url(#p1bdd52708a)" d="M 39.665455 352.208929 
L 46.429091 352.208929 
" style="fill:none;stroke:#1f77b4;stroke-width:1.5;"/>
   </g>
   <g id="LineCollection_6">
    <path clip-path="url(#p1bdd52708a)" d="M 12.610909 317.596687 
L 19.374545 317.596687 
" style="fill:none;stroke:#1f77b4;stroke-width:1.5;"/>
    <path clip-path="url(#p1bdd52708a)" d="M 39.665455 315.205289 
L 46.429091 315.205289 
" style="fill:none;stroke:#1f77b4;stroke-width:1.5;"/>
   </g>
   <g id="LineCollection_7">
    <path clip-path="url(#p1bdd52708a)" d="M 12.610909 389.592252 
L 19.374545 389.592252 
" style="fill:none;stroke:#1f77b4;stroke-width:1.5;"/>
    <path clip-path="url(#p1bdd52708a)" d="M 39.665455 503.238347 
L 46.429091 503.238347 
" style="fill:none;stroke:#1f77b4;stroke-width:1.5;"/>
   </g>
   <g id="LineCollection_8">
    <path clip-path="url(#p1bdd52708a)" d="M 15.992727 389.592252 
L 15.992727 317.596687 
" style="fill:none;stroke:#1f77b4;stroke-width:1.5;"/>
    <path clip-path="url(#p1bdd52708a)" d="M 43.047273 503.238347 
L 43.047273 315.205289 
" style="fill:none;stroke:#1f77b4;stroke-width:1.5;"/>
   </g>
   <g id="patch_8">
    <path d="M 7.2 512.64 
L 7.2 305.803636 
" style="fill:none;stroke:#000000;stroke-linecap:square;stroke-linejoin:miter;stroke-width:0.8;"/>
   </g>
   <g id="patch_9">
    <path d="M 51.84 512.64 
L 51.84 305.803636 
" style="fill:none;stroke:#000000;stroke-linecap:square;stroke-linejoin:miter;stroke-width:0.8;"/>
   </g>
   <g id="patch_10">
    <path d="M 7.2 512.64 
L 51.84 512.64 
" style="fill:none;stroke:#000000;stroke-linecap:square;stroke-linejoin:miter;stroke-width:0.8;"/>
   </g>
   <g id="patch_11">
    <path d="M 7.2 305.803636 
L 51.84 305.803636 
" style="fill:none;stroke:#000000;stroke-linecap:square;stroke-linejoin:miter;stroke-width:0.8;"/>
   </g>
   <g id="text_18">
    <!-- sovl-F -->
    <g transform="translate(11.889375 299.803636)scale(0.12 -0.12)">
     <use xlink:href="#DejaVuSans-115"/>
     <use x="52.099609" xlink:href="#DejaVuSans-111"/>
     <use x="113.28125" xlink:href="#DejaVuSans-118"/>
     <use x="172.460938" xlink:href="#DejaVuSans-108"/>
     <use x="200.244141" xlink:href="#DejaVuSans-45"/>
     <use x="236.328125" xlink:href="#DejaVuSans-70"/>
    </g>
   </g>
  </g>
 </g>
 <defs>
  <clipPath id="p6c6f7dafdf">
   <rect height="206.836364" width="44.64" x="7.2" y="57.6"/>
  </clipPath>
  <clipPath id="p1bdd52708a">
   <rect height="206.836364" width="44.64" x="7.2" y="305.803636"/>
  </clipPath>
 </defs>
</svg>
