<?xml version="1.0" encoding="utf-8" standalone="no"?>
<!DOCTYPE svg PUBLIC "-//W3C//DTD SVG 1.1//EN"
  "http://www.w3.org/Graphics/SVG/1.1/DTD/svg11.dtd">
<!-- Created with matplotlib (https://matplotlib.org/) -->
<svg height="576pt" version="1.1" viewBox="0 0 57.6 576" width="57.6pt" xmlns="http://www.w3.org/2000/svg" xmlns:xlink="http://www.w3.org/1999/xlink">
 <defs>
  <style type="text/css">
*{stroke-linecap:butt;stroke-linejoin:round;white-space:pre;}
  </style>
 </defs>
 <g id="figure_1">
  <g id="patch_1">
   <path d="M 0 576 
L 57.6 576 
L 57.6 0 
L 0 0 
z
" style="fill:#ffffff;"/>
  </g>
  <g id="axes_1">
   <g id="patch_2">
    <path d="M 7.2 264.436364 
L 51.84 264.436364 
L 51.84 57.6 
L 7.2 57.6 
z
" style="fill:#ffffff;"/>
   </g>
   <g id="PolyCollection_1">
    <path clip-path="url(#p70856c20bc)" d="M 16.105526 255.034711 
L 15.879929 255.034711 
L 15.881532 253.135387 
L 15.886212 251.236063 
L 15.893574 249.336739 
L 15.903021 247.437415 
L 15.91383 245.538092 
L 15.925237 243.638768 
L 15.936513 241.739444 
L 15.947028 239.84012 
L 15.956288 237.940796 
L 15.963939 236.041473 
L 15.969756 234.142149 
L 15.97361 232.242825 
L 15.975441 230.343501 
L 15.975221 228.444177 
L 15.972944 226.544853 
L 15.968619 224.64553 
L 15.962293 222.746206 
L 15.954067 220.846882 
L 15.944133 218.947558 
L 15.932788 217.048234 
L 15.920445 215.148911 
L 15.907614 213.249587 
L 15.894863 211.350263 
L 15.88276 209.450939 
L 15.871808 207.551615 
L 15.862382 205.652292 
L 15.854689 203.752968 
L 15.848759 201.853644 
L 15.84447 199.95432 
L 15.8416 198.054996 
L 15.8399 196.155672 
L 15.839162 194.256349 
L 15.839263 192.357025 
L 15.840182 190.457701 
L 15.841972 188.558377 
L 15.844704 186.659053 
L 15.848387 184.75973 
L 15.852899 182.860406 
L 15.857937 180.961082 
L 15.863001 179.061758 
L 15.867429 177.162434 
L 15.870465 175.26311 
L 15.871343 173.363787 
L 15.869387 171.464463 
L 15.864085 169.565139 
L 15.855131 167.665815 
L 15.842421 165.766491 
L 15.82602 163.867168 
L 15.806084 161.967844 
L 15.782774 160.06852 
L 15.756183 158.169196 
L 15.726275 156.269872 
L 15.692876 154.370548 
L 15.655697 152.471225 
L 15.614402 150.571901 
L 15.56869 148.672577 
L 15.518379 146.773253 
L 15.463464 144.873929 
L 15.404134 142.974606 
L 15.34073 141.075282 
L 15.273656 139.175958 
L 15.203257 137.276634 
L 15.129679 135.37731 
L 15.052745 133.477986 
L 14.971868 131.578663 
L 14.886013 129.679339 
L 14.793713 127.780015 
L 14.693124 125.880691 
L 14.582103 123.981367 
L 14.458307 122.082044 
L 14.319274 120.18272 
L 14.162517 118.283396 
L 13.985606 116.384072 
L 13.78627 114.484748 
L 13.562532 112.585424 
L 13.312877 110.686101 
L 13.036473 108.786777 
L 12.733429 106.887453 
L 12.405081 104.988129 
L 12.054286 103.088805 
L 11.685683 101.189482 
L 11.305892 99.290158 
L 10.923604 97.390834 
L 10.549534 95.49151 
L 10.196176 93.592186 
L 9.877364 91.692863 
L 9.607613 89.793539 
L 9.40126 87.894215 
L 9.271457 85.994891 
L 9.229091 84.095567 
L 9.28173 82.196243 
L 9.432722 80.29692 
L 9.680568 78.397596 
L 10.01868 76.498272 
L 10.435595 74.598948 
L 10.915659 72.699624 
L 11.440126 70.800301 
L 11.988581 68.900977 
L 12.540504 67.001653 
L 19.44495 67.001653 
L 19.44495 67.001653 
L 19.996873 68.900977 
L 20.545329 70.800301 
L 21.069796 72.699624 
L 21.549859 74.598948 
L 21.966775 76.498272 
L 22.304887 78.397596 
L 22.552733 80.29692 
L 22.703724 82.196243 
L 22.756364 84.095567 
L 22.713998 85.994891 
L 22.584195 87.894215 
L 22.377841 89.793539 
L 22.10809 91.692863 
L 21.789279 93.592186 
L 21.435921 95.49151 
L 21.06185 97.390834 
L 20.679563 99.290158 
L 20.299771 101.189482 
L 19.931168 103.088805 
L 19.580373 104.988129 
L 19.252026 106.887453 
L 18.948981 108.786777 
L 18.672577 110.686101 
L 18.422922 112.585424 
L 18.199184 114.484748 
L 17.999849 116.384072 
L 17.822937 118.283396 
L 17.66618 120.18272 
L 17.527148 122.082044 
L 17.403351 123.981367 
L 17.292331 125.880691 
L 17.191741 127.780015 
L 17.099442 129.679339 
L 17.013587 131.578663 
L 16.93271 133.477986 
L 16.855775 135.37731 
L 16.782197 137.276634 
L 16.711799 139.175958 
L 16.644725 141.075282 
L 16.58132 142.974606 
L 16.52199 144.873929 
L 16.467076 146.773253 
L 16.416765 148.672577 
L 16.371053 150.571901 
L 16.329758 152.471225 
L 16.292579 154.370548 
L 16.259179 156.269872 
L 16.229271 158.169196 
L 16.20268 160.06852 
L 16.179371 161.967844 
L 16.159434 163.867168 
L 16.143033 165.766491 
L 16.130324 167.665815 
L 16.121369 169.565139 
L 16.116067 171.464463 
L 16.114112 173.363787 
L 16.11499 175.26311 
L 16.118025 177.162434 
L 16.122454 179.061758 
L 16.127518 180.961082 
L 16.132555 182.860406 
L 16.137067 184.75973 
L 16.14075 186.659053 
L 16.143482 188.558377 
L 16.145273 190.457701 
L 16.146192 192.357025 
L 16.146293 194.256349 
L 16.145554 196.155672 
L 16.143855 198.054996 
L 16.140985 199.95432 
L 16.136695 201.853644 
L 16.130765 203.752968 
L 16.123072 205.652292 
L 16.113646 207.551615 
L 16.102694 209.450939 
L 16.090592 211.350263 
L 16.077841 213.249587 
L 16.065009 215.148911 
L 16.052666 217.048234 
L 16.041322 218.947558 
L 16.031387 220.846882 
L 16.023162 222.746206 
L 16.016835 224.64553 
L 16.012511 226.544853 
L 16.010233 228.444177 
L 16.010013 230.343501 
L 16.011844 232.242825 
L 16.015699 234.142149 
L 16.021515 236.041473 
L 16.029166 237.940796 
L 16.038426 239.84012 
L 16.048942 241.739444 
L 16.060217 243.638768 
L 16.071624 245.538092 
L 16.082434 247.437415 
L 16.091881 249.336739 
L 16.099243 251.236063 
L 16.103922 253.135387 
L 16.105526 255.034711 
z
" style="fill:#1f77b4;fill-opacity:0.3;"/>
   </g>
   <g id="PolyCollection_2">
    <path clip-path="url(#p70856c20bc)" d="M 43.377324 255.034711 
L 42.717221 255.034711 
L 42.70742 253.487992 
L 42.702531 251.941273 
L 42.702228 250.394555 
L 42.705924 248.847836 
L 42.712852 247.301117 
L 42.722159 245.754399 
L 42.732992 244.20768 
L 42.744573 242.660962 
L 42.756252 241.114243 
L 42.767542 239.567524 
L 42.778121 238.020806 
L 42.787817 236.474087 
L 42.796579 234.927368 
L 42.804426 233.38065 
L 42.811386 231.833931 
L 42.817432 230.287212 
L 42.822417 228.740494 
L 42.826009 227.193775 
L 42.827657 225.647056 
L 42.826566 224.100338 
L 42.821713 222.553619 
L 42.81189 221.0069 
L 42.795775 219.460182 
L 42.772025 217.913463 
L 42.739367 216.366744 
L 42.696681 214.820026 
L 42.643054 213.273307 
L 42.577781 211.726589 
L 42.500335 210.17987 
L 42.410268 208.633151 
L 42.307097 207.086433 
L 42.190159 205.539714 
L 42.058484 203.992995 
L 41.910707 202.446277 
L 41.745049 200.899558 
L 41.559383 199.352839 
L 41.351397 197.806121 
L 41.118855 196.259402 
L 40.859922 194.712683 
L 40.57354 193.165965 
L 40.259793 191.619246 
L 39.920233 190.072527 
L 39.558104 188.525809 
L 39.178448 186.97909 
L 38.788046 185.432371 
L 38.39521 183.885653 
L 38.009425 182.338934 
L 37.640871 180.792216 
L 37.299858 179.245497 
L 36.996235 177.698778 
L 36.738799 176.15206 
L 36.534773 174.605341 
L 36.389375 173.058622 
L 36.305513 171.511904 
L 36.283636 169.965185 
L 36.321743 168.418466 
L 36.415547 166.871748 
L 36.5588 165.325029 
L 36.743744 163.77831 
L 36.961656 162.231592 
L 37.203456 160.684873 
L 37.46031 159.138154 
L 37.72419 157.591436 
L 37.988326 156.044717 
L 38.24752 154.497998 
L 38.498287 152.95128 
L 38.738824 151.404561 
L 38.968818 149.857843 
L 39.189139 148.311124 
L 39.401454 146.764405 
L 39.607829 145.217687 
L 39.810358 143.670968 
L 40.010858 142.124249 
L 40.210662 140.577531 
L 40.410495 139.030812 
L 40.610436 137.484093 
L 40.809945 135.937375 
L 41.007928 134.390656 
L 41.202828 132.843937 
L 41.392726 131.297219 
L 41.575447 129.7505 
L 41.748676 128.203781 
L 41.910084 126.657063 
L 42.057465 125.110344 
L 42.188882 123.563625 
L 42.302827 122.016907 
L 42.398355 120.470188 
L 42.475213 118.92347 
L 42.533907 117.376751 
L 42.575728 115.830032 
L 42.602708 114.283314 
L 42.6175 112.736595 
L 42.62321 111.189876 
L 42.623173 109.643158 
L 42.620702 108.096439 
L 42.618842 106.54972 
L 42.620152 105.003002 
L 42.626528 103.456283 
L 42.639107 101.909564 
L 43.455439 101.909564 
L 43.455439 101.909564 
L 43.468018 103.456283 
L 43.474393 105.003002 
L 43.475703 106.54972 
L 43.473844 108.096439 
L 43.471373 109.643158 
L 43.471335 111.189876 
L 43.477046 112.736595 
L 43.491838 114.283314 
L 43.518817 115.830032 
L 43.560639 117.376751 
L 43.619333 118.92347 
L 43.69619 120.470188 
L 43.791719 122.016907 
L 43.905663 123.563625 
L 44.037081 125.110344 
L 44.184461 126.657063 
L 44.345869 128.203781 
L 44.519099 129.7505 
L 44.701819 131.297219 
L 44.891717 132.843937 
L 45.086617 134.390656 
L 45.2846 135.937375 
L 45.484109 137.484093 
L 45.68405 139.030812 
L 45.883883 140.577531 
L 46.083688 142.124249 
L 46.284188 143.670968 
L 46.486716 145.217687 
L 46.693091 146.764405 
L 46.905407 148.311124 
L 47.125727 149.857843 
L 47.355722 151.404561 
L 47.596258 152.95128 
L 47.847026 154.497998 
L 48.10622 156.044717 
L 48.370356 157.591436 
L 48.634235 159.138154 
L 48.89109 160.684873 
L 49.13289 162.231592 
L 49.350802 163.77831 
L 49.535745 165.325029 
L 49.678999 166.871748 
L 49.772802 168.418466 
L 49.810909 169.965185 
L 49.789033 171.511904 
L 49.705171 173.058622 
L 49.559772 174.605341 
L 49.355746 176.15206 
L 49.09831 177.698778 
L 48.794687 179.245497 
L 48.453674 180.792216 
L 48.08512 182.338934 
L 47.699336 183.885653 
L 47.3065 185.432371 
L 46.916097 186.97909 
L 46.536441 188.525809 
L 46.174313 190.072527 
L 45.834752 191.619246 
L 45.521005 193.165965 
L 45.234623 194.712683 
L 44.97569 196.259402 
L 44.743148 197.806121 
L 44.535163 199.352839 
L 44.349497 200.899558 
L 44.183839 202.446277 
L 44.036062 203.992995 
L 43.904386 205.539714 
L 43.787448 207.086433 
L 43.684277 208.633151 
L 43.594211 210.17987 
L 43.516764 211.726589 
L 43.451492 213.273307 
L 43.397864 214.820026 
L 43.355179 216.366744 
L 43.322521 217.913463 
L 43.29877 219.460182 
L 43.282656 221.0069 
L 43.272832 222.553619 
L 43.267979 224.100338 
L 43.266888 225.647056 
L 43.268536 227.193775 
L 43.272129 228.740494 
L 43.277113 230.287212 
L 43.28316 231.833931 
L 43.290119 233.38065 
L 43.297966 234.927368 
L 43.306728 236.474087 
L 43.316425 238.020806 
L 43.327003 239.567524 
L 43.338293 241.114243 
L 43.349973 242.660962 
L 43.361553 244.20768 
L 43.372386 245.754399 
L 43.381693 247.301117 
L 43.388621 248.847836 
L 43.392317 250.394555 
L 43.392014 251.941273 
L 43.387125 253.487992 
L 43.377324 255.034711 
z
" style="fill:#1f77b4;fill-opacity:0.3;"/>
   </g>
   <g id="matplotlib.axis_1">
    <g id="xtick_1">
     <g id="line2d_1">
      <defs>
       <path d="M 0 0 
L 0 3.5 
" id="m5cada8c7e3" style="stroke:#000000;stroke-width:0.8;"/>
      </defs>
      <g>
       <use style="stroke:#000000;stroke-width:0.8;" x="15.992727" xlink:href="#m5cada8c7e3" y="264.436364"/>
      </g>
     </g>
     <g id="text_1">
      <!-- seqRecur -->
      <defs>
       <path d="M 44.28125 53.078125 
L 44.28125 44.578125 
Q 40.484375 46.53125 36.375 47.5 
Q 32.28125 48.484375 27.875 48.484375 
Q 21.1875 48.484375 17.84375 46.4375 
Q 14.5 44.390625 14.5 40.28125 
Q 14.5 37.15625 16.890625 35.375 
Q 19.28125 33.59375 26.515625 31.984375 
L 29.59375 31.296875 
Q 39.15625 29.25 43.1875 25.515625 
Q 47.21875 21.78125 47.21875 15.09375 
Q 47.21875 7.46875 41.1875 3.015625 
Q 35.15625 -1.421875 24.609375 -1.421875 
Q 20.21875 -1.421875 15.453125 -0.5625 
Q 10.6875 0.296875 5.421875 2 
L 5.421875 11.28125 
Q 10.40625 8.6875 15.234375 7.390625 
Q 20.0625 6.109375 24.8125 6.109375 
Q 31.15625 6.109375 34.5625 8.28125 
Q 37.984375 10.453125 37.984375 14.40625 
Q 37.984375 18.0625 35.515625 20.015625 
Q 33.0625 21.96875 24.703125 23.78125 
L 21.578125 24.515625 
Q 13.234375 26.265625 9.515625 29.90625 
Q 5.8125 33.546875 5.8125 39.890625 
Q 5.8125 47.609375 11.28125 51.796875 
Q 16.75 56 26.8125 56 
Q 31.78125 56 36.171875 55.265625 
Q 40.578125 54.546875 44.28125 53.078125 
z
" id="DejaVuSans-115"/>
       <path d="M 56.203125 29.59375 
L 56.203125 25.203125 
L 14.890625 25.203125 
Q 15.484375 15.921875 20.484375 11.0625 
Q 25.484375 6.203125 34.421875 6.203125 
Q 39.59375 6.203125 44.453125 7.46875 
Q 49.3125 8.734375 54.109375 11.28125 
L 54.109375 2.78125 
Q 49.265625 0.734375 44.1875 -0.34375 
Q 39.109375 -1.421875 33.890625 -1.421875 
Q 20.796875 -1.421875 13.15625 6.1875 
Q 5.515625 13.8125 5.515625 26.8125 
Q 5.515625 40.234375 12.765625 48.109375 
Q 20.015625 56 32.328125 56 
Q 43.359375 56 49.78125 48.890625 
Q 56.203125 41.796875 56.203125 29.59375 
z
M 47.21875 32.234375 
Q 47.125 39.59375 43.09375 43.984375 
Q 39.0625 48.390625 32.421875 48.390625 
Q 24.90625 48.390625 20.390625 44.140625 
Q 15.875 39.890625 15.1875 32.171875 
z
" id="DejaVuSans-101"/>
       <path d="M 14.796875 27.296875 
Q 14.796875 17.390625 18.875 11.75 
Q 22.953125 6.109375 30.078125 6.109375 
Q 37.203125 6.109375 41.296875 11.75 
Q 45.40625 17.390625 45.40625 27.296875 
Q 45.40625 37.203125 41.296875 42.84375 
Q 37.203125 48.484375 30.078125 48.484375 
Q 22.953125 48.484375 18.875 42.84375 
Q 14.796875 37.203125 14.796875 27.296875 
z
M 45.40625 8.203125 
Q 42.578125 3.328125 38.25 0.953125 
Q 33.9375 -1.421875 27.875 -1.421875 
Q 17.96875 -1.421875 11.734375 6.484375 
Q 5.515625 14.40625 5.515625 27.296875 
Q 5.515625 40.1875 11.734375 48.09375 
Q 17.96875 56 27.875 56 
Q 33.9375 56 38.25 53.625 
Q 42.578125 51.265625 45.40625 46.390625 
L 45.40625 54.6875 
L 54.390625 54.6875 
L 54.390625 -20.796875 
L 45.40625 -20.796875 
z
" id="DejaVuSans-113"/>
       <path d="M 44.390625 34.1875 
Q 47.5625 33.109375 50.5625 29.59375 
Q 53.5625 26.078125 56.59375 19.921875 
L 66.609375 0 
L 56 0 
L 46.6875 18.703125 
Q 43.0625 26.03125 39.671875 28.421875 
Q 36.28125 30.8125 30.421875 30.8125 
L 19.671875 30.8125 
L 19.671875 0 
L 9.8125 0 
L 9.8125 72.90625 
L 32.078125 72.90625 
Q 44.578125 72.90625 50.734375 67.671875 
Q 56.890625 62.453125 56.890625 51.90625 
Q 56.890625 45.015625 53.6875 40.46875 
Q 50.484375 35.9375 44.390625 34.1875 
z
M 19.671875 64.796875 
L 19.671875 38.921875 
L 32.078125 38.921875 
Q 39.203125 38.921875 42.84375 42.21875 
Q 46.484375 45.515625 46.484375 51.90625 
Q 46.484375 58.296875 42.84375 61.546875 
Q 39.203125 64.796875 32.078125 64.796875 
z
" id="DejaVuSans-82"/>
       <path d="M 48.78125 52.59375 
L 48.78125 44.1875 
Q 44.96875 46.296875 41.140625 47.34375 
Q 37.3125 48.390625 33.40625 48.390625 
Q 24.65625 48.390625 19.8125 42.84375 
Q 14.984375 37.3125 14.984375 27.296875 
Q 14.984375 17.28125 19.8125 11.734375 
Q 24.65625 6.203125 33.40625 6.203125 
Q 37.3125 6.203125 41.140625 7.25 
Q 44.96875 8.296875 48.78125 10.40625 
L 48.78125 2.09375 
Q 45.015625 0.34375 40.984375 -0.53125 
Q 36.96875 -1.421875 32.421875 -1.421875 
Q 20.0625 -1.421875 12.78125 6.34375 
Q 5.515625 14.109375 5.515625 27.296875 
Q 5.515625 40.671875 12.859375 48.328125 
Q 20.21875 56 33.015625 56 
Q 37.15625 56 41.109375 55.140625 
Q 45.0625 54.296875 48.78125 52.59375 
z
" id="DejaVuSans-99"/>
       <path d="M 8.5 21.578125 
L 8.5 54.6875 
L 17.484375 54.6875 
L 17.484375 21.921875 
Q 17.484375 14.15625 20.5 10.265625 
Q 23.53125 6.390625 29.59375 6.390625 
Q 36.859375 6.390625 41.078125 11.03125 
Q 45.3125 15.671875 45.3125 23.6875 
L 45.3125 54.6875 
L 54.296875 54.6875 
L 54.296875 0 
L 45.3125 0 
L 45.3125 8.40625 
Q 42.046875 3.421875 37.71875 1 
Q 33.40625 -1.421875 27.6875 -1.421875 
Q 18.265625 -1.421875 13.375 4.4375 
Q 8.5 10.296875 8.5 21.578125 
z
M 31.109375 56 
z
" id="DejaVuSans-117"/>
       <path d="M 41.109375 46.296875 
Q 39.59375 47.171875 37.8125 47.578125 
Q 36.03125 48 33.890625 48 
Q 26.265625 48 22.1875 43.046875 
Q 18.109375 38.09375 18.109375 28.8125 
L 18.109375 0 
L 9.078125 0 
L 9.078125 54.6875 
L 18.109375 54.6875 
L 18.109375 46.1875 
Q 20.953125 51.171875 25.484375 53.578125 
Q 30.03125 56 36.53125 56 
Q 37.453125 56 38.578125 55.875 
Q 39.703125 55.765625 41.0625 55.515625 
z
" id="DejaVuSans-114"/>
      </defs>
      <g transform="translate(1.414174 309.868722)rotate(-45)scale(0.1 -0.1)">
       <use xlink:href="#DejaVuSans-115"/>
       <use x="52.099609" xlink:href="#DejaVuSans-101"/>
       <use x="113.623047" xlink:href="#DejaVuSans-113"/>
       <use x="177.099609" xlink:href="#DejaVuSans-82"/>
       <use x="246.519531" xlink:href="#DejaVuSans-101"/>
       <use x="308.042969" xlink:href="#DejaVuSans-99"/>
       <use x="363.023438" xlink:href="#DejaVuSans-117"/>
       <use x="426.402344" xlink:href="#DejaVuSans-114"/>
      </g>
     </g>
    </g>
    <g id="xtick_2">
     <g id="line2d_2">
      <g>
       <use style="stroke:#000000;stroke-width:0.8;" x="43.047273" xlink:href="#m5cada8c7e3" y="264.436364"/>
      </g>
     </g>
     <g id="text_2">
      <!-- seqRecurS -->
      <defs>
       <path d="M 53.515625 70.515625 
L 53.515625 60.890625 
Q 47.90625 63.578125 42.921875 64.890625 
Q 37.9375 66.21875 33.296875 66.21875 
Q 25.25 66.21875 20.875 63.09375 
Q 16.5 59.96875 16.5 54.203125 
Q 16.5 49.359375 19.40625 46.890625 
Q 22.3125 44.4375 30.421875 42.921875 
L 36.375 41.703125 
Q 47.40625 39.59375 52.65625 34.296875 
Q 57.90625 29 57.90625 20.125 
Q 57.90625 9.515625 50.796875 4.046875 
Q 43.703125 -1.421875 29.984375 -1.421875 
Q 24.8125 -1.421875 18.96875 -0.25 
Q 13.140625 0.921875 6.890625 3.21875 
L 6.890625 13.375 
Q 12.890625 10.015625 18.65625 8.296875 
Q 24.421875 6.59375 29.984375 6.59375 
Q 38.421875 6.59375 43.015625 9.90625 
Q 47.609375 13.234375 47.609375 19.390625 
Q 47.609375 24.75 44.3125 27.78125 
Q 41.015625 30.8125 33.5 32.328125 
L 27.484375 33.5 
Q 16.453125 35.6875 11.515625 40.375 
Q 6.59375 45.0625 6.59375 53.421875 
Q 6.59375 63.09375 13.40625 68.65625 
Q 20.21875 74.21875 32.171875 74.21875 
Q 37.3125 74.21875 42.625 73.28125 
Q 47.953125 72.359375 53.515625 70.515625 
z
" id="DejaVuSans-83"/>
      </defs>
      <g transform="translate(26.224208 314.357745)rotate(-45)scale(0.1 -0.1)">
       <use xlink:href="#DejaVuSans-115"/>
       <use x="52.099609" xlink:href="#DejaVuSans-101"/>
       <use x="113.623047" xlink:href="#DejaVuSans-113"/>
       <use x="177.099609" xlink:href="#DejaVuSans-82"/>
       <use x="246.519531" xlink:href="#DejaVuSans-101"/>
       <use x="308.042969" xlink:href="#DejaVuSans-99"/>
       <use x="363.023438" xlink:href="#DejaVuSans-117"/>
       <use x="426.402344" xlink:href="#DejaVuSans-114"/>
       <use x="467.515625" xlink:href="#DejaVuSans-83"/>
      </g>
     </g>
    </g>
   </g>
   <g id="matplotlib.axis_2">
    <g id="ytick_1">
     <g id="line2d_3">
      <defs>
       <path d="M 0 0 
L -3.5 0 
" id="m73d425d5a3" style="stroke:#000000;stroke-width:0.8;"/>
      </defs>
      <g>
       <use style="stroke:#000000;stroke-width:0.8;" x="7.2" xlink:href="#m73d425d5a3" y="255.034711"/>
      </g>
     </g>
     <g id="text_3">
      <!-- 0.0 -->
      <defs>
       <path d="M 31.78125 66.40625 
Q 24.171875 66.40625 20.328125 58.90625 
Q 16.5 51.421875 16.5 36.375 
Q 16.5 21.390625 20.328125 13.890625 
Q 24.171875 6.390625 31.78125 6.390625 
Q 39.453125 6.390625 43.28125 13.890625 
Q 47.125 21.390625 47.125 36.375 
Q 47.125 51.421875 43.28125 58.90625 
Q 39.453125 66.40625 31.78125 66.40625 
z
M 31.78125 74.21875 
Q 44.046875 74.21875 50.515625 64.515625 
Q 56.984375 54.828125 56.984375 36.375 
Q 56.984375 17.96875 50.515625 8.265625 
Q 44.046875 -1.421875 31.78125 -1.421875 
Q 19.53125 -1.421875 13.0625 8.265625 
Q 6.59375 17.96875 6.59375 36.375 
Q 6.59375 54.828125 13.0625 64.515625 
Q 19.53125 74.21875 31.78125 74.21875 
z
" id="DejaVuSans-48"/>
       <path d="M 10.6875 12.40625 
L 21 12.40625 
L 21 0 
L 10.6875 0 
z
" id="DejaVuSans-46"/>
      </defs>
      <g transform="translate(-15.703125 258.833929)scale(0.1 -0.1)">
       <use xlink:href="#DejaVuSans-48"/>
       <use x="63.623047" xlink:href="#DejaVuSans-46"/>
       <use x="95.410156" xlink:href="#DejaVuSans-48"/>
      </g>
     </g>
    </g>
    <g id="ytick_2">
     <g id="line2d_4">
      <g>
       <use style="stroke:#000000;stroke-width:0.8;" x="7.2" xlink:href="#m73d425d5a3" y="216.354755"/>
      </g>
     </g>
     <g id="text_4">
      <!-- 0.2 -->
      <defs>
       <path d="M 19.1875 8.296875 
L 53.609375 8.296875 
L 53.609375 0 
L 7.328125 0 
L 7.328125 8.296875 
Q 12.9375 14.109375 22.625 23.890625 
Q 32.328125 33.6875 34.8125 36.53125 
Q 39.546875 41.84375 41.421875 45.53125 
Q 43.3125 49.21875 43.3125 52.78125 
Q 43.3125 58.59375 39.234375 62.25 
Q 35.15625 65.921875 28.609375 65.921875 
Q 23.96875 65.921875 18.8125 64.3125 
Q 13.671875 62.703125 7.8125 59.421875 
L 7.8125 69.390625 
Q 13.765625 71.78125 18.9375 73 
Q 24.125 74.21875 28.421875 74.21875 
Q 39.75 74.21875 46.484375 68.546875 
Q 53.21875 62.890625 53.21875 53.421875 
Q 53.21875 48.921875 51.53125 44.890625 
Q 49.859375 40.875 45.40625 35.40625 
Q 44.1875 33.984375 37.640625 27.21875 
Q 31.109375 20.453125 19.1875 8.296875 
z
" id="DejaVuSans-50"/>
      </defs>
      <g transform="translate(-15.703125 220.153974)scale(0.1 -0.1)">
       <use xlink:href="#DejaVuSans-48"/>
       <use x="63.623047" xlink:href="#DejaVuSans-46"/>
       <use x="95.410156" xlink:href="#DejaVuSans-50"/>
      </g>
     </g>
    </g>
    <g id="ytick_3">
     <g id="line2d_5">
      <g>
       <use style="stroke:#000000;stroke-width:0.8;" x="7.2" xlink:href="#m73d425d5a3" y="177.6748"/>
      </g>
     </g>
     <g id="text_5">
      <!-- 0.4 -->
      <defs>
       <path d="M 37.796875 64.3125 
L 12.890625 25.390625 
L 37.796875 25.390625 
z
M 35.203125 72.90625 
L 47.609375 72.90625 
L 47.609375 25.390625 
L 58.015625 25.390625 
L 58.015625 17.1875 
L 47.609375 17.1875 
L 47.609375 0 
L 37.796875 0 
L 37.796875 17.1875 
L 4.890625 17.1875 
L 4.890625 26.703125 
z
" id="DejaVuSans-52"/>
      </defs>
      <g transform="translate(-15.703125 181.474018)scale(0.1 -0.1)">
       <use xlink:href="#DejaVuSans-48"/>
       <use x="63.623047" xlink:href="#DejaVuSans-46"/>
       <use x="95.410156" xlink:href="#DejaVuSans-52"/>
      </g>
     </g>
    </g>
    <g id="ytick_4">
     <g id="line2d_6">
      <g>
       <use style="stroke:#000000;stroke-width:0.8;" x="7.2" xlink:href="#m73d425d5a3" y="138.994844"/>
      </g>
     </g>
     <g id="text_6">
      <!-- 0.6 -->
      <defs>
       <path d="M 33.015625 40.375 
Q 26.375 40.375 22.484375 35.828125 
Q 18.609375 31.296875 18.609375 23.390625 
Q 18.609375 15.53125 22.484375 10.953125 
Q 26.375 6.390625 33.015625 6.390625 
Q 39.65625 6.390625 43.53125 10.953125 
Q 47.40625 15.53125 47.40625 23.390625 
Q 47.40625 31.296875 43.53125 35.828125 
Q 39.65625 40.375 33.015625 40.375 
z
M 52.59375 71.296875 
L 52.59375 62.3125 
Q 48.875 64.0625 45.09375 64.984375 
Q 41.3125 65.921875 37.59375 65.921875 
Q 27.828125 65.921875 22.671875 59.328125 
Q 17.53125 52.734375 16.796875 39.40625 
Q 19.671875 43.65625 24.015625 45.921875 
Q 28.375 48.1875 33.59375 48.1875 
Q 44.578125 48.1875 50.953125 41.515625 
Q 57.328125 34.859375 57.328125 23.390625 
Q 57.328125 12.15625 50.6875 5.359375 
Q 44.046875 -1.421875 33.015625 -1.421875 
Q 20.359375 -1.421875 13.671875 8.265625 
Q 6.984375 17.96875 6.984375 36.375 
Q 6.984375 53.65625 15.1875 63.9375 
Q 23.390625 74.21875 37.203125 74.21875 
Q 40.921875 74.21875 44.703125 73.484375 
Q 48.484375 72.75 52.59375 71.296875 
z
" id="DejaVuSans-54"/>
      </defs>
      <g transform="translate(-15.703125 142.794063)scale(0.1 -0.1)">
       <use xlink:href="#DejaVuSans-48"/>
       <use x="63.623047" xlink:href="#DejaVuSans-46"/>
       <use x="95.410156" xlink:href="#DejaVuSans-54"/>
      </g>
     </g>
    </g>
    <g id="ytick_5">
     <g id="line2d_7">
      <g>
       <use style="stroke:#000000;stroke-width:0.8;" x="7.2" xlink:href="#m73d425d5a3" y="100.314888"/>
      </g>
     </g>
     <g id="text_7">
      <!-- 0.8 -->
      <defs>
       <path d="M 31.78125 34.625 
Q 24.75 34.625 20.71875 30.859375 
Q 16.703125 27.09375 16.703125 20.515625 
Q 16.703125 13.921875 20.71875 10.15625 
Q 24.75 6.390625 31.78125 6.390625 
Q 38.8125 6.390625 42.859375 10.171875 
Q 46.921875 13.96875 46.921875 20.515625 
Q 46.921875 27.09375 42.890625 30.859375 
Q 38.875 34.625 31.78125 34.625 
z
M 21.921875 38.8125 
Q 15.578125 40.375 12.03125 44.71875 
Q 8.5 49.078125 8.5 55.328125 
Q 8.5 64.0625 14.71875 69.140625 
Q 20.953125 74.21875 31.78125 74.21875 
Q 42.671875 74.21875 48.875 69.140625 
Q 55.078125 64.0625 55.078125 55.328125 
Q 55.078125 49.078125 51.53125 44.71875 
Q 48 40.375 41.703125 38.8125 
Q 48.828125 37.15625 52.796875 32.3125 
Q 56.78125 27.484375 56.78125 20.515625 
Q 56.78125 9.90625 50.3125 4.234375 
Q 43.84375 -1.421875 31.78125 -1.421875 
Q 19.734375 -1.421875 13.25 4.234375 
Q 6.78125 9.90625 6.78125 20.515625 
Q 6.78125 27.484375 10.78125 32.3125 
Q 14.796875 37.15625 21.921875 38.8125 
z
M 18.3125 54.390625 
Q 18.3125 48.734375 21.84375 45.5625 
Q 25.390625 42.390625 31.78125 42.390625 
Q 38.140625 42.390625 41.71875 45.5625 
Q 45.3125 48.734375 45.3125 54.390625 
Q 45.3125 60.0625 41.71875 63.234375 
Q 38.140625 66.40625 31.78125 66.40625 
Q 25.390625 66.40625 21.84375 63.234375 
Q 18.3125 60.0625 18.3125 54.390625 
z
" id="DejaVuSans-56"/>
      </defs>
      <g transform="translate(-15.703125 104.114107)scale(0.1 -0.1)">
       <use xlink:href="#DejaVuSans-48"/>
       <use x="63.623047" xlink:href="#DejaVuSans-46"/>
       <use x="95.410156" xlink:href="#DejaVuSans-56"/>
      </g>
     </g>
    </g>
    <g id="ytick_6">
     <g id="line2d_8">
      <g>
       <use style="stroke:#000000;stroke-width:0.8;" x="7.2" xlink:href="#m73d425d5a3" y="61.634933"/>
      </g>
     </g>
     <g id="text_8">
      <!-- 1.0 -->
      <defs>
       <path d="M 12.40625 8.296875 
L 28.515625 8.296875 
L 28.515625 63.921875 
L 10.984375 60.40625 
L 10.984375 69.390625 
L 28.421875 72.90625 
L 38.28125 72.90625 
L 38.28125 8.296875 
L 54.390625 8.296875 
L 54.390625 0 
L 12.40625 0 
z
" id="DejaVuSans-49"/>
      </defs>
      <g transform="translate(-15.703125 65.434151)scale(0.1 -0.1)">
       <use xlink:href="#DejaVuSans-49"/>
       <use x="63.623047" xlink:href="#DejaVuSans-46"/>
       <use x="95.410156" xlink:href="#DejaVuSans-48"/>
      </g>
     </g>
    </g>
   </g>
   <g id="LineCollection_1">
    <path clip-path="url(#p70856c20bc)" d="M 12.610909 95.546059 
L 19.374545 95.546059 
" style="fill:none;stroke:#1f77b4;stroke-width:1.5;"/>
    <path clip-path="url(#p70856c20bc)" d="M 39.665455 167.399582 
L 46.429091 167.399582 
" style="fill:none;stroke:#1f77b4;stroke-width:1.5;"/>
   </g>
   <g id="LineCollection_2">
    <path clip-path="url(#p70856c20bc)" d="M 12.610909 67.001653 
L 19.374545 67.001653 
" style="fill:none;stroke:#1f77b4;stroke-width:1.5;"/>
    <path clip-path="url(#p70856c20bc)" d="M 39.665455 101.909564 
L 46.429091 101.909564 
" style="fill:none;stroke:#1f77b4;stroke-width:1.5;"/>
   </g>
   <g id="LineCollection_3">
    <path clip-path="url(#p70856c20bc)" d="M 12.610909 255.034711 
L 19.374545 255.034711 
" style="fill:none;stroke:#1f77b4;stroke-width:1.5;"/>
    <path clip-path="url(#p70856c20bc)" d="M 39.665455 255.034711 
L 46.429091 255.034711 
" style="fill:none;stroke:#1f77b4;stroke-width:1.5;"/>
   </g>
   <g id="LineCollection_4">
    <path clip-path="url(#p70856c20bc)" d="M 15.992727 255.034711 
L 15.992727 67.001653 
" style="fill:none;stroke:#1f77b4;stroke-width:1.5;"/>
    <path clip-path="url(#p70856c20bc)" d="M 43.047273 255.034711 
L 43.047273 101.909564 
" style="fill:none;stroke:#1f77b4;stroke-width:1.5;"/>
   </g>
   <g id="patch_3">
    <path d="M 7.2 264.436364 
L 7.2 57.6 
" style="fill:none;stroke:#000000;stroke-linecap:square;stroke-linejoin:miter;stroke-width:0.8;"/>
   </g>
   <g id="patch_4">
    <path d="M 51.84 264.436364 
L 51.84 57.6 
" style="fill:none;stroke:#000000;stroke-linecap:square;stroke-linejoin:miter;stroke-width:0.8;"/>
   </g>
   <g id="patch_5">
    <path d="M 7.2 264.436364 
L 51.84 264.436364 
" style="fill:none;stroke:#000000;stroke-linecap:square;stroke-linejoin:miter;stroke-width:0.8;"/>
   </g>
   <g id="patch_6">
    <path d="M 7.2 57.6 
L 51.84 57.6 
" style="fill:none;stroke:#000000;stroke-linecap:square;stroke-linejoin:miter;stroke-width:0.8;"/>
   </g>
   <g id="text_9">
    <!-- ovlp-F -->
    <defs>
     <path d="M 30.609375 48.390625 
Q 23.390625 48.390625 19.1875 42.75 
Q 14.984375 37.109375 14.984375 27.296875 
Q 14.984375 17.484375 19.15625 11.84375 
Q 23.34375 6.203125 30.609375 6.203125 
Q 37.796875 6.203125 41.984375 11.859375 
Q 46.1875 17.53125 46.1875 27.296875 
Q 46.1875 37.015625 41.984375 42.703125 
Q 37.796875 48.390625 30.609375 48.390625 
z
M 30.609375 56 
Q 42.328125 56 49.015625 48.375 
Q 55.71875 40.765625 55.71875 27.296875 
Q 55.71875 13.875 49.015625 6.21875 
Q 42.328125 -1.421875 30.609375 -1.421875 
Q 18.84375 -1.421875 12.171875 6.21875 
Q 5.515625 13.875 5.515625 27.296875 
Q 5.515625 40.765625 12.171875 48.375 
Q 18.84375 56 30.609375 56 
z
" id="DejaVuSans-111"/>
     <path d="M 2.984375 54.6875 
L 12.5 54.6875 
L 29.59375 8.796875 
L 46.6875 54.6875 
L 56.203125 54.6875 
L 35.6875 0 
L 23.484375 0 
z
" id="DejaVuSans-118"/>
     <path d="M 9.421875 75.984375 
L 18.40625 75.984375 
L 18.40625 0 
L 9.421875 0 
z
" id="DejaVuSans-108"/>
     <path d="M 18.109375 8.203125 
L 18.109375 -20.796875 
L 9.078125 -20.796875 
L 9.078125 54.6875 
L 18.109375 54.6875 
L 18.109375 46.390625 
Q 20.953125 51.265625 25.265625 53.625 
Q 29.59375 56 35.59375 56 
Q 45.5625 56 51.78125 48.09375 
Q 58.015625 40.1875 58.015625 27.296875 
Q 58.015625 14.40625 51.78125 6.484375 
Q 45.5625 -1.421875 35.59375 -1.421875 
Q 29.59375 -1.421875 25.265625 0.953125 
Q 20.953125 3.328125 18.109375 8.203125 
z
M 48.6875 27.296875 
Q 48.6875 37.203125 44.609375 42.84375 
Q 40.53125 48.484375 33.40625 48.484375 
Q 26.265625 48.484375 22.1875 42.84375 
Q 18.109375 37.203125 18.109375 27.296875 
Q 18.109375 17.390625 22.1875 11.75 
Q 26.265625 6.109375 33.40625 6.109375 
Q 40.53125 6.109375 44.609375 11.75 
Q 48.6875 17.390625 48.6875 27.296875 
z
" id="DejaVuSans-112"/>
     <path d="M 4.890625 31.390625 
L 31.203125 31.390625 
L 31.203125 23.390625 
L 4.890625 23.390625 
z
" id="DejaVuSans-45"/>
     <path d="M 9.8125 72.90625 
L 51.703125 72.90625 
L 51.703125 64.59375 
L 19.671875 64.59375 
L 19.671875 43.109375 
L 48.578125 43.109375 
L 48.578125 34.8125 
L 19.671875 34.8125 
L 19.671875 0 
L 9.8125 0 
z
" id="DejaVuSans-70"/>
    </defs>
    <g transform="translate(11.205938 51.6)scale(0.12 -0.12)">
     <use xlink:href="#DejaVuSans-111"/>
     <use x="61.181641" xlink:href="#DejaVuSans-118"/>
     <use x="120.361328" xlink:href="#DejaVuSans-108"/>
     <use x="148.144531" xlink:href="#DejaVuSans-112"/>
     <use x="211.621094" xlink:href="#DejaVuSans-45"/>
     <use x="247.705078" xlink:href="#DejaVuSans-70"/>
    </g>
   </g>
  </g>
  <g id="axes_2">
   <g id="patch_7">
    <path d="M 7.2 512.64 
L 51.84 512.64 
L 51.84 305.803636 
L 7.2 305.803636 
z
" style="fill:#ffffff;"/>
   </g>
   <g id="PolyCollection_3">
    <path clip-path="url(#pe5ce0773af)" d="M 16.10711 503.238347 
L 15.878345 503.238347 
L 15.879939 501.363179 
L 15.884592 499.488011 
L 15.89192 497.612842 
L 15.901338 495.737674 
L 15.912137 493.862506 
L 15.92356 491.987337 
L 15.934884 490.112169 
L 15.945476 488.237001 
L 15.954833 486.361833 
L 15.962587 484.486664 
L 15.968497 482.611496 
L 15.972422 480.736328 
L 15.974287 478.861159 
L 15.974059 476.985991 
L 15.971731 475.110823 
L 15.967319 473.235655 
L 15.960877 471.360486 
L 15.952522 469.485318 
L 15.942454 467.61015 
L 15.930983 465.734981 
L 15.918523 463.859813 
L 15.905584 461.984645 
L 15.892727 460.109477 
L 15.880512 458.234308 
L 15.869432 456.35914 
L 15.859859 454.483972 
L 15.852005 452.608803 
L 15.845916 450.733635 
L 15.841495 448.858467 
L 15.838556 446.983298 
L 15.836894 445.10813 
L 15.836353 443.232962 
L 15.836873 441.357794 
L 15.838509 439.482625 
L 15.841411 437.607457 
L 15.845776 435.732289 
L 15.851777 433.85712 
L 15.859484 431.981952 
L 15.868812 430.106784 
L 15.879475 428.231616 
L 15.890987 426.356447 
L 15.902669 424.481279 
L 15.913689 422.606111 
L 15.923084 420.730942 
L 15.929795 418.855774 
L 15.932664 416.980606 
L 15.930445 415.105438 
L 15.921788 413.230269 
L 15.905255 411.355101 
L 15.879355 409.479933 
L 15.842629 407.604764 
L 15.793774 405.729596 
L 15.731821 403.854428 
L 15.65633 401.97926 
L 15.567581 400.104091 
L 15.466712 398.228923 
L 15.355785 396.353755 
L 15.237729 394.478586 
L 15.11615 392.603418 
L 14.995031 390.72825 
L 14.87833 388.853082 
L 14.769543 386.977913 
L 14.671286 385.102745 
L 14.584958 383.227577 
L 14.510541 381.352408 
L 14.446544 379.47724 
L 14.39011 377.602072 
L 14.337253 375.726904 
L 14.283166 373.851735 
L 14.222572 371.976567 
L 14.150045 370.101399 
L 14.060291 368.22623 
L 13.948361 366.351062 
L 13.809821 364.475894 
L 13.640894 362.600726 
L 13.438619 360.725557 
L 13.201048 358.850389 
L 12.927505 356.975221 
L 12.618882 355.100052 
L 12.277967 353.224884 
L 11.909738 351.349716 
L 11.521569 349.474548 
L 11.123291 347.599379 
L 10.727055 345.724211 
L 10.346971 343.849043 
L 9.998516 341.973874 
L 9.697725 340.098706 
L 9.460223 338.223538 
L 9.300152 336.34837 
L 9.229091 334.473201 
L 9.255056 332.598033 
L 9.381692 330.722865 
L 9.60774 328.847696 
L 9.926876 326.972528 
L 10.327956 325.09736 
L 10.795683 323.222192 
L 11.311658 321.347023 
L 11.855709 319.471855 
L 12.407382 317.596687 
L 19.578072 317.596687 
L 19.578072 317.596687 
L 20.129745 319.471855 
L 20.673797 321.347023 
L 21.189771 323.222192 
L 21.657498 325.09736 
L 22.058578 326.972528 
L 22.377715 328.847696 
L 22.603763 330.722865 
L 22.730398 332.598033 
L 22.756364 334.473201 
L 22.685302 336.34837 
L 22.525232 338.223538 
L 22.28773 340.098706 
L 21.986939 341.973874 
L 21.638484 343.849043 
L 21.2584 345.724211 
L 20.862164 347.599379 
L 20.463885 349.474548 
L 20.075717 351.349716 
L 19.707488 353.224884 
L 19.366573 355.100052 
L 19.05795 356.975221 
L 18.784406 358.850389 
L 18.546836 360.725557 
L 18.344561 362.600726 
L 18.175633 364.475894 
L 18.037093 366.351062 
L 17.925164 368.22623 
L 17.83541 370.101399 
L 17.762883 371.976567 
L 17.702288 373.851735 
L 17.648202 375.726904 
L 17.595345 377.602072 
L 17.538911 379.47724 
L 17.474913 381.352408 
L 17.400496 383.227577 
L 17.314169 385.102745 
L 17.215911 386.977913 
L 17.107124 388.853082 
L 16.990423 390.72825 
L 16.869305 392.603418 
L 16.747726 394.478586 
L 16.629669 396.353755 
L 16.518743 398.228923 
L 16.417874 400.104091 
L 16.329124 401.97926 
L 16.253634 403.854428 
L 16.191681 405.729596 
L 16.142826 407.604764 
L 16.106099 409.479933 
L 16.0802 411.355101 
L 16.063667 413.230269 
L 16.05501 415.105438 
L 16.05279 416.980606 
L 16.05566 418.855774 
L 16.06237 420.730942 
L 16.071766 422.606111 
L 16.082785 424.481279 
L 16.094468 426.356447 
L 16.105979 428.231616 
L 16.116643 430.106784 
L 16.12597 431.981952 
L 16.133678 433.85712 
L 16.139678 435.732289 
L 16.144044 437.607457 
L 16.146946 439.482625 
L 16.148582 441.357794 
L 16.149101 443.232962 
L 16.14856 445.10813 
L 16.146899 446.983298 
L 16.14396 448.858467 
L 16.139539 450.733635 
L 16.133449 452.608803 
L 16.125596 454.483972 
L 16.116023 456.35914 
L 16.104943 458.234308 
L 16.092727 460.109477 
L 16.079871 461.984645 
L 16.066932 463.859813 
L 16.054472 465.734981 
L 16.043 467.61015 
L 16.032933 469.485318 
L 16.024578 471.360486 
L 16.018136 473.235655 
L 16.013724 475.110823 
L 16.011395 476.985991 
L 16.011168 478.861159 
L 16.013033 480.736328 
L 16.016957 482.611496 
L 16.022868 484.486664 
L 16.030622 486.361833 
L 16.039978 488.237001 
L 16.05057 490.112169 
L 16.061894 491.987337 
L 16.073317 493.862506 
L 16.084116 495.737674 
L 16.093535 497.612842 
L 16.100863 499.488011 
L 16.105516 501.363179 
L 16.10711 503.238347 
z
" style="fill:#1f77b4;fill-opacity:0.3;"/>
   </g>
   <g id="PolyCollection_4">
    <path clip-path="url(#pe5ce0773af)" d="M 43.314685 503.238347 
L 42.77986 503.238347 
L 42.778311 501.339023 
L 42.780236 499.439699 
L 42.785186 497.540376 
L 42.792542 495.641052 
L 42.801568 493.741728 
L 42.811476 491.842404 
L 42.821494 489.94308 
L 42.830927 488.043757 
L 42.8392 486.144433 
L 42.845892 484.245109 
L 42.850739 482.345785 
L 42.853628 480.446461 
L 42.854571 478.547137 
L 42.853664 476.647814 
L 42.85105 474.74849 
L 42.846882 472.849166 
L 42.841289 470.949842 
L 42.834363 469.050518 
L 42.826155 467.151195 
L 42.816688 465.251871 
L 42.805982 463.352547 
L 42.794079 461.453223 
L 42.781085 459.553899 
L 42.767191 457.654576 
L 42.752698 455.755252 
L 42.73802 453.855928 
L 42.723678 451.956604 
L 42.710274 450.05728 
L 42.698451 448.157956 
L 42.68884 446.258633 
L 42.682006 444.359309 
L 42.678384 442.459985 
L 42.678227 440.560661 
L 42.681562 438.661337 
L 42.688156 436.762014 
L 42.69751 434.86269 
L 42.708862 432.963366 
L 42.721216 431.064042 
L 42.733384 429.164718 
L 42.744038 427.265394 
L 42.751772 425.366071 
L 42.755164 423.466747 
L 42.752825 421.567423 
L 42.743452 419.668099 
L 42.725859 417.768775 
L 42.698999 415.869452 
L 42.661972 413.970128 
L 42.614032 412.070804 
L 42.554584 410.17148 
L 42.48318 408.272156 
L 42.399527 406.372832 
L 42.303491 404.473509 
L 42.195119 402.574185 
L 42.074652 400.674861 
L 41.942544 398.775537 
L 41.799477 396.876213 
L 41.646352 394.97689 
L 41.484271 393.077566 
L 41.314491 391.178242 
L 41.138356 389.278918 
L 40.957209 387.379594 
L 40.772295 385.48027 
L 40.584659 383.580947 
L 40.395056 381.681623 
L 40.203882 379.782299 
L 40.011146 377.882975 
L 39.816478 375.983651 
L 39.619193 374.084328 
L 39.418394 372.185004 
L 39.213122 370.28568 
L 39.002529 368.386356 
L 38.78607 366.487032 
L 38.563679 364.587708 
L 38.335928 362.688385 
L 38.104137 360.789061 
L 37.870426 358.889737 
L 37.637703 356.990413 
L 37.409588 355.091089 
L 37.190269 353.191766 
L 36.984324 351.292442 
L 36.796509 349.393118 
L 36.63155 347.493794 
L 36.493943 345.59447 
L 36.387794 343.695147 
L 36.316693 341.795823 
L 36.283636 339.896499 
L 36.290981 337.997175 
L 36.340419 336.097851 
L 36.432958 334.198527 
L 36.568893 332.299204 
L 36.747761 330.39988 
L 36.968281 328.500556 
L 37.228276 326.601232 
L 37.52461 324.701908 
L 37.853152 322.802585 
L 38.208787 320.903261 
L 38.585502 319.003937 
L 38.976546 317.104613 
L 39.374666 315.205289 
L 46.719879 315.205289 
L 46.719879 315.205289 
L 47.118 317.104613 
L 47.509043 319.003937 
L 47.885758 320.903261 
L 48.241393 322.802585 
L 48.569935 324.701908 
L 48.866269 326.601232 
L 49.126264 328.500556 
L 49.346784 330.39988 
L 49.525653 332.299204 
L 49.661587 334.198527 
L 49.754126 336.097851 
L 49.803564 337.997175 
L 49.810909 339.896499 
L 49.777853 341.795823 
L 49.706751 343.695147 
L 49.600602 345.59447 
L 49.462995 347.493794 
L 49.298036 349.393118 
L 49.110222 351.292442 
L 48.904276 353.191766 
L 48.684957 355.091089 
L 48.456842 356.990413 
L 48.22412 358.889737 
L 47.990409 360.789061 
L 47.758617 362.688385 
L 47.530866 364.587708 
L 47.308475 366.487032 
L 47.092016 368.386356 
L 46.881424 370.28568 
L 46.676152 372.185004 
L 46.475353 374.084328 
L 46.278068 375.983651 
L 46.0834 377.882975 
L 45.890664 379.782299 
L 45.69949 381.681623 
L 45.509886 383.580947 
L 45.32225 385.48027 
L 45.137337 387.379594 
L 44.95619 389.278918 
L 44.780054 391.178242 
L 44.610274 393.077566 
L 44.448194 394.97689 
L 44.295069 396.876213 
L 44.152001 398.775537 
L 44.019894 400.674861 
L 43.899426 402.574185 
L 43.791054 404.473509 
L 43.695019 406.372832 
L 43.611365 408.272156 
L 43.539961 410.17148 
L 43.480513 412.070804 
L 43.432574 413.970128 
L 43.395547 415.869452 
L 43.368686 417.768775 
L 43.351093 419.668099 
L 43.341721 421.567423 
L 43.339382 423.466747 
L 43.342773 425.366071 
L 43.350508 427.265394 
L 43.361162 429.164718 
L 43.37333 431.064042 
L 43.385684 432.963366 
L 43.397035 434.86269 
L 43.406389 436.762014 
L 43.412983 438.661337 
L 43.416318 440.560661 
L 43.416162 442.459985 
L 43.41254 444.359309 
L 43.405706 446.258633 
L 43.396095 448.157956 
L 43.384271 450.05728 
L 43.370867 451.956604 
L 43.356526 453.855928 
L 43.341848 455.755252 
L 43.327354 457.654576 
L 43.313461 459.553899 
L 43.300466 461.453223 
L 43.288564 463.352547 
L 43.277857 465.251871 
L 43.26839 467.151195 
L 43.260182 469.050518 
L 43.253256 470.949842 
L 43.247663 472.849166 
L 43.243495 474.74849 
L 43.240882 476.647814 
L 43.239975 478.547137 
L 43.240917 480.446461 
L 43.243807 482.345785 
L 43.248654 484.245109 
L 43.255345 486.144433 
L 43.263618 488.043757 
L 43.273051 489.94308 
L 43.28307 491.842404 
L 43.292977 493.741728 
L 43.302003 495.641052 
L 43.309359 497.540376 
L 43.31431 499.439699 
L 43.316234 501.339023 
L 43.314685 503.238347 
z
" style="fill:#1f77b4;fill-opacity:0.3;"/>
   </g>
   <g id="matplotlib.axis_3">
    <g id="xtick_3">
     <g id="line2d_9">
      <g>
       <use style="stroke:#000000;stroke-width:0.8;" x="15.992727" xlink:href="#m5cada8c7e3" y="512.64"/>
      </g>
     </g>
     <g id="text_10">
      <!-- seqRecur -->
      <g transform="translate(1.414174 558.072358)rotate(-45)scale(0.1 -0.1)">
       <use xlink:href="#DejaVuSans-115"/>
       <use x="52.099609" xlink:href="#DejaVuSans-101"/>
       <use x="113.623047" xlink:href="#DejaVuSans-113"/>
       <use x="177.099609" xlink:href="#DejaVuSans-82"/>
       <use x="246.519531" xlink:href="#DejaVuSans-101"/>
       <use x="308.042969" xlink:href="#DejaVuSans-99"/>
       <use x="363.023438" xlink:href="#DejaVuSans-117"/>
       <use x="426.402344" xlink:href="#DejaVuSans-114"/>
      </g>
     </g>
    </g>
    <g id="xtick_4">
     <g id="line2d_10">
      <g>
       <use style="stroke:#000000;stroke-width:0.8;" x="43.047273" xlink:href="#m5cada8c7e3" y="512.64"/>
      </g>
     </g>
     <g id="text_11">
      <!-- seqRecurS -->
      <g transform="translate(26.224208 562.561382)rotate(-45)scale(0.1 -0.1)">
       <use xlink:href="#DejaVuSans-115"/>
       <use x="52.099609" xlink:href="#DejaVuSans-101"/>
       <use x="113.623047" xlink:href="#DejaVuSans-113"/>
       <use x="177.099609" xlink:href="#DejaVuSans-82"/>
       <use x="246.519531" xlink:href="#DejaVuSans-101"/>
       <use x="308.042969" xlink:href="#DejaVuSans-99"/>
       <use x="363.023438" xlink:href="#DejaVuSans-117"/>
       <use x="426.402344" xlink:href="#DejaVuSans-114"/>
       <use x="467.515625" xlink:href="#DejaVuSans-83"/>
      </g>
     </g>
    </g>
   </g>
   <g id="matplotlib.axis_4">
    <g id="ytick_7">
     <g id="line2d_11">
      <g>
       <use style="stroke:#000000;stroke-width:0.8;" x="7.2" xlink:href="#m73d425d5a3" y="503.238347"/>
      </g>
     </g>
     <g id="text_12">
      <!-- 0.0 -->
      <g transform="translate(-15.703125 507.037566)scale(0.1 -0.1)">
       <use xlink:href="#DejaVuSans-48"/>
       <use x="63.623047" xlink:href="#DejaVuSans-46"/>
       <use x="95.410156" xlink:href="#DejaVuSans-48"/>
      </g>
     </g>
    </g>
    <g id="ytick_8">
     <g id="line2d_12">
      <g>
       <use style="stroke:#000000;stroke-width:0.8;" x="7.2" xlink:href="#m73d425d5a3" y="465.050322"/>
      </g>
     </g>
     <g id="text_13">
      <!-- 0.2 -->
      <g transform="translate(-15.703125 468.84954)scale(0.1 -0.1)">
       <use xlink:href="#DejaVuSans-48"/>
       <use x="63.623047" xlink:href="#DejaVuSans-46"/>
       <use x="95.410156" xlink:href="#DejaVuSans-50"/>
      </g>
     </g>
    </g>
    <g id="ytick_9">
     <g id="line2d_13">
      <g>
       <use style="stroke:#000000;stroke-width:0.8;" x="7.2" xlink:href="#m73d425d5a3" y="426.862296"/>
      </g>
     </g>
     <g id="text_14">
      <!-- 0.4 -->
      <g transform="translate(-15.703125 430.661515)scale(0.1 -0.1)">
       <use xlink:href="#DejaVuSans-48"/>
       <use x="63.623047" xlink:href="#DejaVuSans-46"/>
       <use x="95.410156" xlink:href="#DejaVuSans-52"/>
      </g>
     </g>
    </g>
    <g id="ytick_10">
     <g id="line2d_14">
      <g>
       <use style="stroke:#000000;stroke-width:0.8;" x="7.2" xlink:href="#m73d425d5a3" y="388.674271"/>
      </g>
     </g>
     <g id="text_15">
      <!-- 0.6 -->
      <g transform="translate(-15.703125 392.47349)scale(0.1 -0.1)">
       <use xlink:href="#DejaVuSans-48"/>
       <use x="63.623047" xlink:href="#DejaVuSans-46"/>
       <use x="95.410156" xlink:href="#DejaVuSans-54"/>
      </g>
     </g>
    </g>
    <g id="ytick_11">
     <g id="line2d_15">
      <g>
       <use style="stroke:#000000;stroke-width:0.8;" x="7.2" xlink:href="#m73d425d5a3" y="350.486246"/>
      </g>
     </g>
     <g id="text_16">
      <!-- 0.8 -->
      <g transform="translate(-15.703125 354.285464)scale(0.1 -0.1)">
       <use xlink:href="#DejaVuSans-48"/>
       <use x="63.623047" xlink:href="#DejaVuSans-46"/>
       <use x="95.410156" xlink:href="#DejaVuSans-56"/>
      </g>
     </g>
    </g>
    <g id="ytick_12">
     <g id="line2d_16">
      <g>
       <use style="stroke:#000000;stroke-width:0.8;" x="7.2" xlink:href="#m73d425d5a3" y="312.29822"/>
      </g>
     </g>
     <g id="text_17">
      <!-- 1.0 -->
      <g transform="translate(-15.703125 316.097439)scale(0.1 -0.1)">
       <use xlink:href="#DejaVuSans-49"/>
       <use x="63.623047" xlink:href="#DejaVuSans-46"/>
       <use x="95.410156" xlink:href="#DejaVuSans-48"/>
      </g>
     </g>
    </g>
   </g>
   <g id="LineCollection_5">
    <path clip-path="url(#pe5ce0773af)" d="M 12.610909 346.298499 
L 19.374545 346.298499 
" style="fill:none;stroke:#1f77b4;stroke-width:1.5;"/>
    <path clip-path="url(#pe5ce0773af)" d="M 39.665455 354.221561 
L 46.429091 354.221561 
" style="fill:none;stroke:#1f77b4;stroke-width:1.5;"/>
   </g>
   <g id="LineCollection_6">
    <path clip-path="url(#pe5ce0773af)" d="M 12.610909 317.596687 
L 19.374545 317.596687 
" style="fill:none;stroke:#1f77b4;stroke-width:1.5;"/>
    <path clip-path="url(#pe5ce0773af)" d="M 39.665455 315.205289 
L 46.429091 315.205289 
" style="fill:none;stroke:#1f77b4;stroke-width:1.5;"/>
   </g>
   <g id="LineCollection_7">
    <path clip-path="url(#pe5ce0773af)" d="M 12.610909 503.238347 
L 19.374545 503.238347 
" style="fill:none;stroke:#1f77b4;stroke-width:1.5;"/>
    <path clip-path="url(#pe5ce0773af)" d="M 39.665455 503.238347 
L 46.429091 503.238347 
" style="fill:none;stroke:#1f77b4;stroke-width:1.5;"/>
   </g>
   <g id="LineCollection_8">
    <path clip-path="url(#pe5ce0773af)" d="M 15.992727 503.238347 
L 15.992727 317.596687 
" style="fill:none;stroke:#1f77b4;stroke-width:1.5;"/>
    <path clip-path="url(#pe5ce0773af)" d="M 43.047273 503.238347 
L 43.047273 315.205289 
" style="fill:none;stroke:#1f77b4;stroke-width:1.5;"/>
   </g>
   <g id="patch_8">
    <path d="M 7.2 512.64 
L 7.2 305.803636 
" style="fill:none;stroke:#000000;stroke-linecap:square;stroke-linejoin:miter;stroke-width:0.8;"/>
   </g>
   <g id="patch_9">
    <path d="M 51.84 512.64 
L 51.84 305.803636 
" style="fill:none;stroke:#000000;stroke-linecap:square;stroke-linejoin:miter;stroke-width:0.8;"/>
   </g>
   <g id="patch_10">
    <path d="M 7.2 512.64 
L 51.84 512.64 
" style="fill:none;stroke:#000000;stroke-linecap:square;stroke-linejoin:miter;stroke-width:0.8;"/>
   </g>
   <g id="patch_11">
    <path d="M 7.2 305.803636 
L 51.84 305.803636 
" style="fill:none;stroke:#000000;stroke-linecap:square;stroke-linejoin:miter;stroke-width:0.8;"/>
   </g>
   <g id="text_18">
    <!-- sovl-F -->
    <g transform="translate(11.889375 299.803636)scale(0.12 -0.12)">
     <use xlink:href="#DejaVuSans-115"/>
     <use x="52.099609" xlink:href="#DejaVuSans-111"/>
     <use x="113.28125" xlink:href="#DejaVuSans-118"/>
     <use x="172.460938" xlink:href="#DejaVuSans-108"/>
     <use x="200.244141" xlink:href="#DejaVuSans-45"/>
     <use x="236.328125" xlink:href="#DejaVuSans-70"/>
    </g>
   </g>
  </g>
 </g>
 <defs>
  <clipPath id="p70856c20bc">
   <rect height="206.836364" width="44.64" x="7.2" y="57.6"/>
  </clipPath>
  <clipPath id="pe5ce0773af">
   <rect height="206.836364" width="44.64" x="7.2" y="305.803636"/>
  </clipPath>
 </defs>
</svg>
